<svg width="40" height="40" viewBox="0 0 40 40" fill="none" xmlns="http://www.w3.org/2000/svg">
<path d="M25.2687 14.1838C31.3663 1.34986 38.9797 10.5858 38.9797 10.5858C35.397 12.4033 37.5673 20.3411 32.5376 28.2417C28.9204 33.9168 24.0285 33.7685 16.5529 35.178C13.9348 35.6602 10.5587 38.8501 10.5587 38.8501C5.97685 35.4376 1.87733 31.8397 1.05054 26.6468L15.795 23.9019" fill="#686767"/>
<path d="M13.7971 27.6853C-0.258429 18.9316 2.08416 5.17035 2.08416 5.17035C2.08416 5.17035 19.309 9.32468 26.7157 16.706L13.7971 27.6853Z" fill="#686767"/>
<path d="M10.5586 40C10.4553 40 10.3519 40 10.2486 39.9629C4.94333 38.0712 0.602658 30.4302 0.0170122 26.9065C-0.0863371 26.313 0.292611 25.7195 0.843807 25.6082L5.46008 24.718C6.01127 24.6067 6.56247 25.0148 6.66582 25.6082C6.76917 26.2017 6.39022 26.7952 5.83902 26.9065L2.3596 27.5741C3.39309 30.7641 6.70027 35.957 10.3864 37.6261C11.4543 36.6988 14.1414 34.5475 16.4151 34.1024C17.6208 33.8798 18.7232 33.6943 19.8256 33.5089C25.3031 32.6187 28.9548 31.9881 31.7108 27.6112C34.1912 23.7165 34.8457 19.7848 35.3625 16.6319C35.7759 14.1096 36.1548 11.847 37.395 10.4746C36.3615 9.5473 34.4323 8.21199 32.2964 8.50872C30.0572 8.80546 27.9902 10.8826 26.1988 14.666C25.9232 15.2224 25.3031 15.445 24.8208 15.1482C24.3041 14.8515 24.0974 14.1838 24.373 13.6645C26.4744 9.17638 29.0582 6.6912 32.0208 6.28319C36.2926 5.68971 39.5998 9.65858 39.7376 9.80695C39.9443 10.0666 40.0476 10.4375 39.9787 10.7713C39.9098 11.1052 39.7031 11.4019 39.3931 11.5503C38.1874 12.1438 37.8429 13.9242 37.3606 16.9657C36.8094 20.3411 36.1204 24.5326 33.3644 28.8353C30.0572 34.0282 25.6476 34.7329 20.0668 35.6602C18.9988 35.8457 17.8964 36.0312 16.7252 36.2537C14.796 36.6246 12.1089 38.8502 11.2132 39.6662C11.0409 39.8887 10.7998 40 10.5586 40Z" fill="#464C54"/>
<path d="M13.7971 28.7611C13.6248 28.7611 13.4526 28.724 13.2803 28.6127C11.9713 27.7596 10.7311 26.8693 9.59422 25.9049C9.14637 25.534 9.07747 24.8293 9.42197 24.3471C9.76647 23.8649 10.421 23.7907 10.8689 24.1616C11.9024 25.0518 13.0736 25.9049 14.2794 26.6839C14.7617 26.9806 14.9339 27.6854 14.6583 28.2047C14.5205 28.5756 14.176 28.7611 13.7971 28.7611Z" fill="#464C54"/>
<path d="M5.97675 21.4168C5.66671 21.4168 5.35666 21.2684 5.14996 20.9717C-0.258655 13.1081 1.01599 5.28167 1.08489 4.98493C1.11934 4.68819 1.29158 4.42855 1.53273 4.24309C1.77388 4.09472 2.04948 4.02053 2.32508 4.09472C2.49733 4.13181 6.73465 5.17039 11.971 7.13628C19.0332 9.80692 24.2351 12.7372 27.439 15.9271C27.8524 16.3351 27.8868 17.0399 27.5079 17.485C27.1289 17.9301 26.4744 17.9672 26.061 17.5592C19.9634 11.5132 6.9069 7.61848 2.97962 6.5428C2.87627 8.87961 3.11742 14.258 6.80355 19.6364C7.14805 20.1186 7.0447 20.8233 6.59685 21.1942C6.39015 21.3426 6.18345 21.4168 5.97675 21.4168Z" fill="#464C54"/>
<path d="M23.2709 9.21342C23.0642 9.21342 22.8919 9.13924 22.7197 9.02796C18.9646 6.39441 13.0048 3.6125 10.6622 2.57391C10.6278 2.75938 10.5933 2.94484 10.5244 3.20448C10.3866 3.79796 9.8699 4.16888 9.28425 4.0576C8.73306 3.94633 8.38856 3.35285 8.49191 2.72228C8.87086 0.904765 9.14645 0.125828 9.9388 0.0145515C10.111 -0.0225408 10.2833 0.0145514 10.4555 0.0887358C10.8 0.237105 18.9302 3.76087 23.8221 7.17335C24.3044 7.50718 24.4422 8.21193 24.1321 8.73122C23.9599 9.02796 23.6154 9.21342 23.2709 9.21342Z" fill="#464C54"/>
</svg>
