<svg width="15" height="14" viewBox="0 0 15 14" fill="none" xmlns="http://www.w3.org/2000/svg">
<path d="M3.95949 13.9314C3.92073 13.9314 3.88198 13.9314 3.84322 13.9185C1.85375 13.2596 0.225997 10.5984 0.00637958 9.37113C-0.0323764 9.16443 0.109729 8.95773 0.316428 8.91897L2.04753 8.60892C2.25423 8.57017 2.46093 8.71227 2.49968 8.91897C2.53844 9.12567 2.39633 9.33237 2.18963 9.37113L0.884849 9.60366C1.27241 10.7147 2.5126 12.5233 3.8949 13.1046C4.29538 12.7817 5.30303 12.0324 6.15566 11.8773C6.60782 11.7998 7.02121 11.7352 7.43461 11.6706C9.48868 11.3606 10.8581 11.141 11.8915 9.61658C12.8217 8.26012 13.0671 6.89074 13.2609 5.79265C13.416 4.91419 13.5581 4.12615 14.0231 3.64816C13.6356 3.32519 12.9121 2.86012 12.1112 2.96347C11.2715 3.06682 10.4963 3.79026 9.82456 5.10797C9.72121 5.30175 9.48868 5.37926 9.30782 5.27591C9.11404 5.17256 9.03652 4.94002 9.13987 4.75916C9.92791 3.196 10.8968 2.33045 12.0078 2.18835C13.6097 1.98165 14.8499 3.36395 14.9016 3.41562C14.9791 3.50605 15.0179 3.63524 14.992 3.75151C14.9662 3.86777 14.8887 3.97112 14.7724 4.0228C14.3203 4.2295 14.1911 4.84959 14.0102 5.90892C13.8035 7.08452 13.5451 8.54433 12.5116 10.0429C11.2715 11.8515 9.61787 12.097 7.52504 12.4199C7.12456 12.4845 6.71117 12.5491 6.27193 12.6266C5.54849 12.7558 4.54083 13.5309 4.20495 13.8151C4.14035 13.8927 4.04992 13.9314 3.95949 13.9314Z" fill="black"/>
<path d="M5.17403 10.0171C5.10944 10.0171 5.04485 10.0041 4.98025 9.96538C4.48934 9.66825 4.02427 9.3582 3.59795 9.02231C3.43001 8.89313 3.40417 8.64767 3.53336 8.47973C3.66255 8.31179 3.908 8.28595 4.07595 8.41514C4.46351 8.72518 4.90274 9.02231 5.35489 9.2936C5.53575 9.39695 5.60035 9.64241 5.497 9.82327C5.44532 9.95246 5.31614 10.0171 5.17403 10.0171Z" fill="black"/>
<path d="M2.24128 7.45917C2.12501 7.45917 2.00875 7.40749 1.93123 7.30414C-0.0969954 4.56539 0.380995 1.83955 0.406832 1.7362C0.419751 1.63285 0.484344 1.54242 0.574775 1.47783C0.665206 1.42615 0.768555 1.40031 0.871904 1.42615C0.936497 1.43907 2.52549 1.80079 4.48913 2.48548C7.13746 3.41563 9.08817 4.4362 10.2896 5.5472C10.4446 5.68931 10.4576 5.93476 10.3154 6.08979C10.1733 6.24481 9.92789 6.25773 9.77286 6.11563C7.48626 4.00988 2.59009 2.65342 1.11736 2.27878C1.0786 3.09266 1.16903 4.96586 2.55133 6.83907C2.68052 7.00701 2.64176 7.25247 2.47382 7.38165C2.39631 7.43333 2.31879 7.45917 2.24128 7.45917Z" fill="black"/>
<path d="M8.72669 3.2089C8.64918 3.2089 8.58459 3.18306 8.52 3.1443C7.11186 2.22708 4.87693 1.25818 3.99846 0.896456C3.98555 0.961049 3.97263 1.02564 3.94679 1.11607C3.89511 1.32277 3.70133 1.45196 3.48172 1.4132C3.27502 1.37445 3.14583 1.16775 3.18459 0.94813C3.32669 0.315116 3.43004 0.043824 3.72717 0.00506806C3.79177 -0.0078506 3.85636 0.00506803 3.92095 0.0309054C4.05014 0.08258 7.09894 1.30985 8.93339 2.49837C9.11426 2.61464 9.16593 2.86009 9.04966 3.04095C8.98507 3.1443 8.85588 3.2089 8.72669 3.2089Z" fill="black"/>
</svg>
