<svg width="438" height="448" viewBox="0 0 438 448" fill="none" xmlns="http://www.w3.org/2000/svg">
<mask id="mask0_377_12" style="mask-type:alpha" maskUnits="userSpaceOnUse" x="10" y="24" width="420" height="417">
<ellipse cx="220" cy="232.5" rx="210" ry="208.5" fill="#D9D9D9"/>
</mask>
<g mask="url(#mask0_377_12)">
<path d="M311.514 0.2146L316.836 5.49933V18.7011L311.513 13.4151V0.215881H306.484V8.42377L298.217 0.2146H294.662L306.484 11.9536V30.9468L275.532 0.2146H271.977L305.324 33.3246H240.513L220.32 13.183L200.128 33.3246H134.676L168.022 0.2146H164.466L134.156 30.3102V11.3195L145.339 0.2146H141.783L134.156 7.78967V0.215881H129.127V12.7823L123.803 18.0671V4.86276L128.483 0.2146H124.928L123.803 1.33295V0.215881H118.775V6.32559L91.5826 33.3246H49.6733V0.571594H47.1578V33.3246H25.9888V0.215881H23.4746V33.3246H0.320571V35.8209H23.4746V64.4686L0 41.1617L0 44.6915L23.4746 67.9997V81.813L0 58.5049L0 65.5645L31.646 96.9857L8.7698 119.697H0.320571V124.69H8.76477L14.0875 129.975H0.320571V134.968H19.1161L49.8116 165.446H0L0 170.437H54.8402L70.166 185.652H0L0 188.149H72.6802L82.1138 197.515L82.0849 197.542H7.23861L0 190.088L0 193.686L3.74627 197.542H3.70353L13.4011 207.528H13.4438L24.2376 218.643L13.4438 229.759H13.4011L3.70353 239.744H3.74627L0 243.602L0 247.198L7.23861 239.744H82.0836L82.1113 239.773L72.6802 249.138H0L0 251.634H70.166L54.8402 266.85H0L0 271.842H49.8116L19.1135 302.32H0.320571V307.314H14.085L8.76226 312.599H0.320571V317.592H8.77357L31.646 340.302L0 371.722L0 378.781L23.4746 355.475V369.288L0 392.595L0 396.125L23.4746 372.818V401.467H0.320571V403.963H23.4746V437.072H25.9888V403.963H47.1578V436.716H49.6733V403.963H91.5826L118.775 430.962V437.072H123.803V435.955L124.928 437.072H128.483L123.803 432.425V419.221L129.127 424.505V437.072H134.156V429.498L141.783 437.072H145.339L134.156 425.968V406.976L164.466 437.072H168.022L134.676 403.963H200.128L220.32 424.103L240.513 403.963H305.324L271.977 437.072H275.532L306.484 406.341V425.333L294.662 437.072H298.217L306.484 428.863V437.072H311.513V423.871L316.836 418.585V431.788L311.513 437.072H315.069L316.836 435.318V437.072H321.865V430.325L348.415 403.963H390.327V436.716H392.84V403.963H414.01V437.072H416.523V403.963H439.999V401.467H416.523V372.818L439.999 396.125V392.595L416.523 369.288V355.475L439.999 378.781V371.722L408.353 340.302L431.225 317.592H439.999V312.599H431.236L425.914 307.314H439.999V302.32H420.885L390.186 271.842H439.997V266.85H385.157L369.834 251.634H439.997V249.138H367.318L358.21 240.096L358.554 239.744H432.758L439.999 247.199V243.604L436.251 239.744H436.294L426.596 229.759H426.555L415.76 218.643L426.555 207.528H426.596L436.294 197.542H436.251L439.999 193.684V190.086L432.758 197.542H358.554L358.21 197.192L367.318 188.149H439.997V185.652H369.834L385.157 170.437H439.997V165.446H390.186L420.883 134.968H439.999V129.975H425.911L431.234 124.69H439.999V119.697H431.228L408.353 96.9857L439.999 65.5645V58.5049L416.523 81.813V67.9997L439.999 44.6915V41.1617L416.523 64.4686V35.8209H439.999V33.3246H416.523V0.215881H414.01V33.3246H392.84V0.571594H390.327V33.3246H348.415L321.865 6.96216V0.215881H316.836V1.96829L315.069 0.2146H311.514ZM118.775 9.85538V23.0584L108.436 33.3246H95.1378L118.775 9.85538ZM321.865 23.6938V10.492L344.86 33.3246H331.563L321.865 23.6938ZM123.803 21.5968L129.127 16.3121V33.3246H123.803V21.5968ZM220.32 16.7215L236.964 33.3246H203.675L220.32 16.7215ZM311.513 16.9462L316.836 22.2309V33.3246H311.513V16.9462ZM118.775 26.5907V33.3246H111.992L118.775 26.5907ZM321.865 27.2248L328.006 33.3246H321.865V27.2248ZM362.923 65.4946L392.811 35.8209H412.231L362.923 84.7787V65.4946ZM362.923 48.7606L375.956 35.8209H389.254L362.923 61.9648V48.7606ZM362.923 35.8209H372.4L362.923 45.2307V35.8209ZM350.93 35.8209H360.408V45.2307L350.93 35.8209ZM334.076 35.8209H347.374L360.408 48.7606V61.9648L334.076 35.8209ZM321.865 35.8209H327.947L321.865 41.8607V35.8209ZM311.513 35.8209H316.836V46.8534L311.513 52.1381V35.8209ZM243.015 35.8209H305.264L288.205 52.7559H259.993L243.015 35.8209ZM201.174 35.8209H239.467L256.446 52.7559H184.194L201.174 35.8209ZM134.736 35.8209H197.625L180.646 52.7559H151.793L134.736 35.8209ZM123.803 47.4874V35.8209H129.127V52.7559H129.109L123.803 47.4874ZM112.053 35.8209H118.775V42.496L112.053 35.8209ZM79.5907 48.7606L92.6235 35.8209H105.922L79.5907 61.9648V48.7606ZM79.5907 35.8209H89.067L79.5907 45.2307V35.8209ZM67.5976 35.8209H77.0752V45.2307L67.5976 35.8209ZM50.7432 35.8209H64.0412L77.0752 48.7606V61.9648L50.7432 35.8209ZM27.7664 35.8209H47.188L77.0752 65.4946V84.7787L27.7664 35.8209ZM79.5907 65.4946L108.988 36.3076L118.698 45.9484L79.5907 84.7787V65.4946ZM321.865 46.5076V45.3905L331.012 36.3076L360.408 65.4946V84.7787L321.865 46.5076ZM362.923 88.3072L414.01 37.5858V66.9662L362.923 117.689V88.3072ZM25.9888 66.9662V37.5858L77.0752 88.3072V117.689L25.9888 66.9662ZM306.484 38.1387V52.7559H291.762L306.484 38.1387ZM134.156 38.774L148.238 52.7559H134.156V38.774ZM79.5907 88.3072L118.775 49.4021V78.7812L79.5907 117.689V88.3072ZM321.865 79.4191V50.0374L360.408 88.3072V117.689L321.865 79.4191ZM316.836 50.3831V108.565H311.513V55.9861L314.766 52.7559H314.446L316.836 50.3831ZM123.803 51.0185L129.127 56.3032V108.565H123.803V51.0185ZM304.389 62.7412H304.709L306.484 60.9788V82.3772H284.61L304.389 62.7412ZM134.156 61.2958L155.387 82.3772H134.156V61.2958ZM281.705 62.7412H300.832L290.368 73.1309H271.24L281.705 62.7412ZM222.085 62.7412H278.15L267.684 73.1309H232.499L222.085 62.7412ZM161.85 62.7412H218.556L208.139 73.1309H172.315L161.85 62.7412ZM139.167 62.7412H158.295L168.761 73.1309H149.63L139.167 62.7412ZM220.32 68.0596L260.928 108.565H179.711L220.32 68.0596ZM397.841 86.5486L414.01 70.496V84.3081L404.796 93.4547L397.841 86.5486ZM25.9888 84.3081V70.496L42.1569 86.5486L35.2011 93.4547L25.9888 84.3081ZM268.726 75.6272H287.855L281.056 82.3772H261.926L268.726 75.6272ZM235.003 75.6272H265.171L258.371 82.3772H241.77L235.003 75.6272ZM174.829 75.6272H205.638L198.869 82.3772H181.628L174.829 75.6272ZM152.144 75.6272H171.274L178.072 82.3772H158.943L152.144 75.6272ZM118.775 82.3123V108.565H107.562V119.697H81.1219L118.775 82.3123ZM321.865 82.9489L358.875 119.697H333.078V108.565H321.865V82.9489ZM263.142 103.695L282.096 84.8748H306.484V108.565H268.023L263.142 103.695ZM251.825 92.4074L259.412 84.8748H278.542L261.368 101.926L251.825 92.4074ZM244.273 84.8748H255.858L250.053 90.6388L244.273 84.8748ZM184.142 84.8748H196.368L190.269 90.9571L184.142 84.8748ZM161.458 84.8748H180.587L188.495 92.7269L178.954 102.244L161.458 84.8748ZM134.156 84.8748H157.902L177.179 104.013L172.617 108.565H134.156V84.8748ZM396.063 88.3147L403.019 95.2208L378.366 119.697H364.453L396.063 88.3147ZM36.9787 95.2208L43.9345 88.3147L75.544 119.697H61.6312L36.9787 95.2208ZM406.574 98.7506L427.671 119.697H385.477L406.574 98.7506ZM33.4236 98.7506L54.5221 119.697H12.3262L33.4236 98.7506ZM321.865 113.557H328.048V119.697H321.865V113.557ZM311.513 113.557H316.836V119.697H311.513V113.557ZM134.156 113.557H306.484V119.697H134.156V113.557ZM123.803 113.557H129.126V119.697H123.803V113.557ZM112.589 113.557H118.775V119.697H112.589V113.557ZM333.078 124.69H427.679L422.356 129.975H333.078V124.69ZM321.865 124.69H328.048V129.975H321.865V124.69ZM311.513 124.69H316.836V129.975H311.513V124.69ZM134.156 124.69H306.484V129.975H134.156V124.69ZM123.803 124.69H129.126V129.975H123.803V124.69ZM112.589 124.69H118.775V129.975H112.589V124.69ZM12.3187 124.69H107.562V129.975H17.6427L12.3187 124.69ZM333.078 134.968H417.327L386.629 165.446H333.078V134.968ZM321.865 134.968H328.048V302.32H321.865V134.968ZM311.513 134.968H316.836V302.32H311.513V134.968ZM134.156 134.968H306.484V302.32H134.156V134.968ZM123.803 134.968H129.126V302.32H123.803V134.968ZM112.589 134.968H118.775V302.32H112.589V218.645L112.591 166.132L112.589 134.968ZM22.6725 134.968H107.562V165.446H53.3681L22.6725 134.968ZM333.078 171.31V170.437H381.602L356.466 195.394L333.078 171.31ZM58.3954 170.437H107.562V171.311L83.8575 195.718L58.3954 170.437ZM333.078 178.502L372.059 218.643L333.078 258.786V178.502ZM68.5782 218.645L107.562 178.503V258.786L68.5782 218.645ZM379.045 218.643L368.25 207.528H423.061C423.061 207.528 412.267 212.613 412.266 218.643C412.266 224.673 423.061 229.759 423.061 229.759H368.25L379.045 218.643ZM27.73 218.643L16.9362 207.528H72.3873L61.5935 218.645L72.3873 229.759H16.9362L27.73 218.643ZM83.8575 241.57L107.562 265.978V266.85H58.3954L83.8575 241.57ZM333.078 265.978L356.466 241.892L381.602 266.85H333.078V265.978ZM333.078 271.842H386.629L417.33 302.32H333.078V271.842ZM53.3681 271.842H107.562V302.32H22.6687L53.3681 271.842ZM333.078 307.314H422.358L427.681 312.599H333.078V307.314ZM321.865 307.314H328.048V312.599H321.865V307.314ZM311.513 307.314H316.836V312.599H311.513V307.314ZM134.156 307.314H306.484V312.599H134.156V307.314ZM123.803 307.314H129.126V312.599H123.803V307.314ZM112.589 307.314H118.775V312.599H112.589V307.314ZM17.6402 307.314H107.562V312.599H12.3174L17.6402 307.314ZM385.479 317.592H427.669L406.574 338.537L385.479 317.592ZM364.456 317.592H378.369L403.019 342.067L396.063 348.973L364.456 317.592ZM321.865 328.724H333.078V317.592H358.874L321.865 354.338V328.724ZM321.865 317.592H328.048V323.733H321.865V317.592ZM311.513 317.592H316.836V323.733H311.513V317.592ZM134.156 317.592H306.484V323.733H134.156V317.592ZM123.803 317.592H129.126V323.733H123.803V317.592ZM112.589 317.592H118.775V323.733H112.589V317.592ZM81.1232 317.592H107.562V328.724H118.775V354.974L81.1232 317.592ZM36.9787 342.067L61.6287 317.592H75.5415L43.9345 348.973L36.9787 342.067ZM12.3288 317.592H54.5184L33.4236 338.537L12.3288 317.592ZM362.923 348.979V319.599L414.01 370.321V399.702L362.923 348.979ZM321.865 357.867L360.408 319.599V348.979L321.865 387.25V357.867ZM79.5907 348.979V319.599L118.775 358.504V387.886L79.5907 348.979ZM25.9888 370.321L77.0752 319.599V348.979L25.9888 399.702V370.321ZM314.446 384.532H314.766L311.513 381.302V328.724H316.836V386.903L314.446 384.532ZM263.143 333.594L268.023 328.724H306.484V352.414H282.096L263.143 333.594ZM179.711 328.724H260.928L220.32 369.231L179.711 328.724ZM134.156 328.724H172.617L177.179 333.275L157.902 352.414H134.156V328.724ZM123.803 328.724H129.127V380.984L123.803 386.269V328.724ZM178.952 335.043L188.494 344.563L180.587 352.414H161.458L178.952 335.043ZM251.828 344.88L261.369 335.363L278.542 352.414H259.412L251.828 344.88ZM397.841 350.739L404.796 343.833L414.01 352.978V366.792L397.841 350.739ZM25.9888 352.978L35.2011 343.833L42.1569 350.739L25.9888 366.792V352.978ZM190.268 346.331L196.365 352.414H184.142L190.268 346.331ZM250.054 346.65L255.858 352.414H244.275L250.054 346.65ZM362.923 371.793V352.509L412.231 401.467H392.811L362.923 371.793ZM321.865 391.896V390.779L360.408 352.509V371.793L331.012 400.979L321.865 391.896ZM79.5907 371.793V352.509L118.698 391.339L108.988 400.98L79.5907 371.793ZM77.0752 352.509V371.793L47.188 401.467H27.7664L77.0752 352.509ZM284.61 354.91H306.484V376.308L304.709 374.545H304.389L284.61 354.91ZM261.926 354.91H281.056L287.855 361.66H268.726L261.926 354.91ZM241.773 354.91H258.371L265.171 361.66H235.006L241.773 354.91ZM181.628 354.91H198.868L205.635 361.66H174.829L181.628 354.91ZM158.943 354.91H178.072L171.274 361.66H152.144L158.943 354.91ZM134.156 354.91H155.387L134.156 375.992V354.91ZM271.24 364.156H290.368L300.832 374.545H281.705L271.24 364.156ZM232.502 364.156H267.684L278.15 374.545H222.086L232.502 364.156ZM172.315 364.156H208.137L218.555 374.545H161.85L172.315 364.156ZM149.63 364.156H168.761L158.295 374.545H139.167L149.63 364.156ZM362.923 388.526V375.322L389.254 401.467H375.956L362.923 388.526ZM360.408 375.322V388.526L347.374 401.467H334.076L360.408 375.322ZM79.5907 388.526V375.322L105.922 401.467H92.6235L79.5907 388.526ZM77.0752 375.322V388.526L64.0412 401.467H50.7432L77.0752 375.322ZM291.762 384.532H306.484V399.148L291.762 384.532ZM259.993 384.532H288.205L305.264 401.467H243.015L259.993 384.532ZM184.194 384.532H256.446L239.467 401.467H201.174L184.194 384.532ZM151.793 384.532H180.646L197.625 401.467H134.736L151.793 384.532ZM134.156 384.532H148.238L134.156 398.514V384.532ZM123.803 392.879V389.8L129.109 384.532H129.127V398.164L123.803 392.879ZM311.513 385.148L316.836 390.433V392.242L311.513 397.528V385.148ZM362.923 392.056L372.4 401.467H362.923V392.056ZM360.408 392.056V401.467H350.93L360.408 392.056ZM79.5907 392.056L89.067 401.467H79.5907V392.056ZM77.0752 392.056V401.467H67.5976L77.0752 392.056ZM118.775 394.792V401.467H112.053L118.775 394.792ZM321.865 395.426L327.947 401.467H321.865V395.426ZM311.513 401.057L316.836 395.773V401.467H311.513V401.057ZM123.803 396.408L128.897 401.467H123.803V396.408ZM321.865 413.593L331.563 403.963H344.86L321.865 426.796V413.593ZM321.865 403.963H328.006L321.865 410.062V403.963ZM311.513 403.963H316.836V415.054L311.513 420.34V403.963ZM203.675 403.963H236.964L220.32 420.565L203.675 403.963ZM123.803 415.691V403.963H129.127V420.976L123.803 415.691ZM111.992 403.963H118.775V410.697L111.992 403.963ZM95.1378 403.963H108.436L118.775 414.229V427.432L95.1378 403.963Z" fill="url(#paint0_radial_377_12)"/>
</g>
<circle cx="219.5" cy="230.5" r="215" stroke="#9C8152" stroke-width="5"/>
<defs>
<radialGradient id="paint0_radial_377_12" cx="0" cy="0" r="1" gradientUnits="userSpaceOnUse" gradientTransform="translate(219.999 218.643) scale(219.999 218.428)">
<stop stop-color="#E8C157"/>
<stop offset="0.485427" stop-color="#E8C157"/>
<stop offset="1" stop-color="#988138"/>
</radialGradient>
</defs>
</svg>
