<svg width="29" height="29" viewBox="0 0 29 29" fill="none" xmlns="http://www.w3.org/2000/svg">
<path d="M2 2H6.375L11.375 8.25H27M13.25 27H16.375L21.375 20.75H27M2 27H8.25M2 14.5H3.25M2 20.75H14.5L19.5 14.5H27M2 8.25H4.5L9.5 14.5H13.25M13.25 2H27M22.625 27H27" stroke="white" stroke-width="2.68116" stroke-linecap="round" stroke-linejoin="round"/>
<path d="M2 2H6.375L11.375 8.25H27M13.25 27H16.375L21.375 20.75H27M2 27H8.25M2 14.5H3.25M2 20.75H14.5L19.5 14.5H27M2 8.25H4.5L9.5 14.5H13.25M13.25 2H27M22.625 27H27" stroke="white" stroke-opacity="0.2" stroke-width="2.68116" stroke-linecap="round" stroke-linejoin="round"/>
</svg>
