<svg width="440" height="23" viewBox="0 0 440 23" fill="none" xmlns="http://www.w3.org/2000/svg">
<path d="M45.4704 14.3314C44.3676 14.0303 43.1991 13.6295 42.3131 12.911C41.4277 12.1938 40.8271 11.1572 40.1749 10.3063C39.5239 9.45432 38.8224 8.7863 38.121 8.11715C38.789 8.08431 39.4571 8.05091 40.2423 8.2015C41.0269 8.35152 41.9293 8.68553 42.9313 9.08634C43.9334 9.48715 45.0362 9.95534 46.1384 10.573C47.2406 11.1912 48.3429 11.96 49.4457 12.7276C48.0762 11.6582 46.7062 10.59 45.8378 9.51999C44.9694 8.45172 44.602 7.38232 44.234 6.31405C45.5706 7.21588 46.9072 8.11715 48.0762 8.88537C49.2453 9.65359 50.2473 10.2893 51.2499 11.0236C52.2519 11.7584 53.2545 12.5946 54.3064 13.0622C55.3588 13.5292 56.4616 13.6295 57.4636 13.5292C58.4657 13.4296 59.3675 13.1284 60.2699 12.6444C61.1717 12.1592 62.0735 11.4912 62.6414 10.8068C63.2092 10.1218 63.4436 9.42092 63.6774 8.71893C63.276 9.21995 62.8752 9.72096 62.3742 10.0555C61.8731 10.389 61.2719 10.5566 60.4867 10.6562C59.7015 10.757 58.7329 10.7904 57.7642 10.5401C56.795 10.2893 55.8264 9.75436 55.0412 8.90179C54.2566 8.05091 53.6553 6.88131 53.0536 5.7117C53.7556 6.14592 54.457 6.58126 55.2088 6.63052C55.96 6.6809 56.7622 6.34689 57.5469 6.36331C58.3321 6.37972 59.1003 6.7477 59.9353 7.03189C60.7709 7.31552 61.6727 7.51593 62.591 7.39874C63.5098 7.28268 64.4456 6.84791 65.1136 6.28065C65.7816 5.7117 66.1824 5.01028 66.5833 4.30943H67.7857C67.4851 5.07708 67.185 5.84587 66.5504 6.98151C65.9158 8.11715 64.9466 9.62076 63.5098 11.3084C62.0735 12.9948 60.1691 14.8653 58.0648 16.4357C55.96 18.0061 53.6553 19.2754 51.3835 20.244C49.1117 21.2132 46.8738 21.8812 44.4848 22.2984C42.0963 22.7162 39.5573 22.8832 37.2186 22.6828C34.88 22.4824 32.7423 21.9146 30.7711 21.1628C28.8004 20.411 26.9962 19.4763 25.2254 18.3566C23.4551 17.2379 21.7177 15.9341 20.0646 14.7487C18.4104 13.5638 16.8406 12.4938 15.2702 11.725C13.7003 10.9574 12.1299 10.4892 10.5595 10.3392C8.98964 10.1891 7.41979 10.3561 6.11715 10.74C4.8145 11.1238 3.77794 11.725 3.0267 12.4276C2.27489 13.1284 1.80784 13.9301 1.49025 14.8823C1.17266 15.8345 1.00565 16.9367 1.20606 17.7717C1.40703 18.6079 1.97485 19.1752 2.65929 19.5262C3.34372 19.8771 4.14592 20.0102 4.73015 19.91C5.31496 19.8098 5.68293 19.4763 5.81654 19.1916C5.94957 18.908 5.84937 18.6736 5.78314 18.6577C5.71577 18.6407 5.68293 18.8417 5.48196 18.8253C5.28155 18.8072 4.91414 18.5734 4.73015 18.2399C4.54673 17.9054 4.54673 17.4717 4.79752 17.1371C5.04831 16.8026 5.54933 16.5699 6.03336 16.6197C6.51796 16.6695 6.98557 17.0041 7.2358 17.5045C7.48659 18.0061 7.51999 18.6736 7.28618 19.3427C7.05238 20.0102 6.55136 20.6782 5.78314 21.079C5.01435 21.481 3.97835 21.614 3.01028 21.4645C2.04165 21.3128 1.13926 20.8786 0.420851 20.1274C-0.297555 19.3756 -0.831975 18.3062 -0.965013 17.2045C-1.09862 16.1023 -0.831974 14.9661 -0.463996 14.1639C-0.0965844 13.3622 0.371032 12.8946 0.838647 12.4276L-0.865375 13.3288C-0.698369 12.6608 -0.530798 11.9928 -0.18037 11.4074C0.170624 10.8238 0.70504 10.3227 1.43986 10.0725C2.17469 9.82117 3.11048 9.82117 4.01231 9.65359C4.91414 9.48716 5.78313 9.15314 6.65156 8.8197C5.98298 8.51796 5.31495 8.21791 4.96452 7.90032C4.6141 7.58329 4.58013 7.24872 4.88074 7.11511C5.18135 6.98151 5.81654 7.04888 6.75177 7.2657C7.687 7.48253 8.92283 7.8505 9.97525 8.15055C11.0277 8.45172 11.8967 8.68553 12.7645 8.91934C11.9295 8.48512 11.0945 8.05091 10.5595 7.54989C10.0256 7.04888 9.79183 6.48049 9.55746 5.91324C10.6603 6.18045 11.7625 6.44709 12.7317 6.89772C13.7003 7.34892 14.5353 7.98354 15.1535 8.58533C15.7712 9.18655 16.1726 9.75436 16.8406 10.3392C17.5086 10.924 18.4438 11.5246 19.2964 11.943C20.1479 12.3602 20.9161 12.5946 21.6849 12.8284C20.8493 12.393 20.0143 11.96 19.4125 11.1238C18.8118 10.2893 18.4438 9.05351 18.0764 7.8171C18.9114 8.08431 19.747 8.35152 20.4988 9.00256C21.2507 9.65359 21.9181 10.6902 22.8205 11.8428C23.7223 12.9948 24.858 14.2641 26.044 15.3669C27.23 16.4691 28.4664 17.4043 29.7017 17.9733C30.9381 18.5405 32.1745 18.7409 33.4771 18.8253C34.7798 18.908 36.1498 18.8745 37.5198 18.8417C36.083 18.6736 34.6462 18.5071 33.4602 18.2399C32.2741 17.9733 31.3389 17.6053 30.3703 17.1207C29.4016 16.6361 28.3996 16.0349 27.7146 15.1999C27.0296 14.3648 26.6622 13.2954 26.1108 12.3432C25.5594 11.3916 24.8251 10.5566 24.0897 9.72096C24.7912 9.78776 25.4926 9.85457 26.1612 10.0046C26.8292 10.1546 27.4638 10.389 27.9314 10.8068C28.3996 11.2246 28.6997 11.8258 29.0008 12.4276C28.9006 11.9266 28.8004 11.425 28.5168 10.9409C28.2326 10.4558 27.765 9.98817 27.1632 9.50414C26.562 9.01897 25.8272 8.51796 25.3092 7.90032C24.7912 7.28269 24.4906 6.54786 24.5574 5.54526C24.6242 4.54323 25.0584 3.27399 25.6268 2.3048C26.194 1.3356 26.896 0.667577 27.598 0.00012207C27.3636 0.534539 27.1298 1.06839 26.9634 1.55356C26.7958 2.03759 26.695 2.4718 27.0132 2.93942C27.3308 3.4076 28.065 3.90861 28.7834 4.52681C29.5019 5.14389 30.2033 5.87871 30.5209 6.58126C30.8379 7.28269 30.7711 7.95071 30.8051 8.49418C30.839 9.03766 30.9743 9.45715 31.2704 9.96326C31.5676 10.4688 32.0262 11.0621 32.543 11.5461C33.0605 12.0319 33.6345 12.4095 34.2086 12.7865C33.5751 12.0319 32.9416 11.2772 32.5912 10.449C32.2413 9.62076 32.1745 8.71893 32.1241 8.13413C32.0737 7.54989 32.0409 7.28268 32.0075 7.01434C32.6421 7.21588 33.2767 7.41629 33.9119 7.95071C34.5465 8.48512 35.1812 9.35355 35.5486 10.2554C35.916 11.1572 36.0162 12.093 36.3502 13.1449C36.6842 14.1984 37.252 15.3669 37.9869 16.2523C38.7222 17.1371 39.6241 17.7389 40.7099 18.2071C41.7957 18.6736 43.0649 19.0082 44.0341 19.1916C45.0022 19.3756 45.6708 19.409 46.623 19.3427C47.5747 19.2754 48.8111 19.1084 50.0469 18.7574C51.2833 18.4064 52.5191 17.8725 53.7556 17.3387C52.753 17.6387 51.7509 17.9388 50.8321 18.0729C49.9133 18.2071 49.0783 18.1726 48.0428 18.0061C47.0068 17.8391 45.771 17.5379 44.8522 17.0709C43.9334 16.6033 43.3327 15.9687 42.7309 15.334C43.4992 15.1999 44.2674 15.0668 45.253 15.0159C46.2386 14.9661 47.4411 14.9995 48.6435 15.0323C47.6086 14.833 46.5726 14.6315 45.4704 14.3314Z" fill="black"/>
<path d="M99.015 14.3314C100.118 14.0303 101.286 13.6295 102.172 12.911C103.058 12.1938 103.658 11.1572 104.31 10.3063C104.961 9.45432 105.663 8.7863 106.364 8.11715C105.696 8.08431 105.028 8.05091 104.243 8.2015C103.458 8.35152 102.556 8.68553 101.554 9.08634C100.552 9.48715 99.4492 9.95534 98.3469 10.573C97.2447 11.1912 96.1425 11.96 95.0397 12.7276C96.4091 11.6582 97.7791 10.59 98.6476 9.51999C99.516 8.45172 99.8834 7.38232 100.251 6.31405C98.9148 7.21588 97.5782 8.11715 96.4091 8.88537C95.2401 9.65359 94.238 10.2893 93.2355 11.0236C92.2334 11.7584 91.2308 12.5946 90.179 13.0622C89.1266 13.5292 88.0238 13.6295 87.0217 13.5292C86.0197 13.4296 85.1179 13.1284 84.2155 12.6444C83.3136 12.1592 82.4118 11.4912 81.844 10.8068C81.2762 10.1218 81.0418 9.42092 80.808 8.71893C81.2094 9.21995 81.6102 9.72096 82.1112 10.0555C82.6122 10.389 83.2134 10.5566 83.9986 10.6562C84.7838 10.757 85.7525 10.7904 86.7211 10.5401C87.6903 10.2893 88.6589 9.75436 89.4441 8.90179C90.2288 8.05091 90.83 6.88131 91.4318 5.7117C90.7298 6.14592 90.0284 6.58126 89.2766 6.63052C88.5253 6.6809 87.7231 6.34689 86.9385 6.36331C86.1533 6.37972 85.3851 6.7477 84.55 7.03189C83.7144 7.31552 82.8126 7.51593 81.8944 7.39874C80.9756 7.28268 80.0398 6.84791 79.3717 6.28065C78.7037 5.7117 78.3029 5.01028 77.9021 4.30943H76.6997C77.0003 5.07708 77.3003 5.84587 77.9349 6.98151C78.5696 8.11715 79.5387 9.62076 80.9756 11.3084C82.4118 12.9948 84.3162 14.8653 86.4205 16.4357C88.5253 18.0061 90.83 19.2754 93.1018 20.244C95.3737 21.2132 97.6116 21.8812 100.001 22.2984C102.389 22.7162 104.928 22.8832 107.267 22.6828C109.605 22.4824 111.743 21.9146 113.714 21.1628C115.685 20.411 117.489 19.4763 119.26 18.3566C121.03 17.2379 122.768 15.9341 124.421 14.7487C126.075 13.5638 127.645 12.4938 129.215 11.725C130.785 10.9574 132.355 10.4892 133.926 10.3392C135.496 10.1891 137.066 10.3561 138.368 10.74C139.671 11.1238 140.707 11.725 141.459 12.4276C142.21 13.1284 142.678 13.9301 142.995 14.8823C143.313 15.8345 143.48 16.9367 143.279 17.7717C143.078 18.6079 142.511 19.1752 141.826 19.5262C141.142 19.8771 140.339 20.0102 139.755 19.91C139.17 19.8098 138.802 19.4763 138.669 19.1916C138.536 18.908 138.636 18.6736 138.702 18.6577C138.77 18.6407 138.802 18.8417 139.003 18.8253C139.204 18.8072 139.571 18.5734 139.755 18.2399C139.939 17.9054 139.939 17.4717 139.688 17.1371C139.437 16.8026 138.936 16.5699 138.452 16.6197C137.967 16.6695 137.5 17.0041 137.25 17.5045C136.999 18.0061 136.965 18.6736 137.199 19.3427C137.433 20.0102 137.934 20.6782 138.702 21.079C139.471 21.481 140.507 21.614 141.475 21.4645C142.444 21.3128 143.346 20.8786 144.065 20.1274C144.783 19.3756 145.317 18.3062 145.45 17.2045C145.584 16.1023 145.317 14.9661 144.949 14.1639C144.582 13.3622 144.114 12.8946 143.647 12.4276L145.351 13.3288C145.184 12.6608 145.016 11.9928 144.666 11.4074C144.315 10.8238 143.78 10.3227 143.045 10.0725C142.311 9.82117 141.375 9.82117 140.473 9.65359C139.571 9.48716 138.702 9.15314 137.834 8.8197C138.502 8.51796 139.17 8.21791 139.521 7.90032C139.871 7.58329 139.905 7.24872 139.605 7.11511C139.304 6.98151 138.669 7.04888 137.734 7.2657C136.798 7.48253 135.563 7.8505 134.51 8.15055C133.458 8.45172 132.589 8.68553 131.721 8.91934C132.556 8.48512 133.391 8.05091 133.926 7.54989C134.46 7.04888 134.694 6.48049 134.928 5.91324C133.825 6.18045 132.723 6.44709 131.754 6.89772C130.785 7.34892 129.95 7.98354 129.332 8.58533C128.714 9.18655 128.313 9.75436 127.645 10.3392C126.977 10.924 126.042 11.5246 125.189 11.943C124.337 12.3602 123.569 12.5946 122.8 12.8284C123.636 12.393 124.471 11.96 125.073 11.1238C125.674 10.2893 126.042 9.05351 126.409 7.8171C125.574 8.08431 124.738 8.35152 123.987 9.00256C123.235 9.65359 122.567 10.6902 121.665 11.8428C120.763 12.9948 119.627 14.2641 118.441 15.3669C117.255 16.4691 116.019 17.4043 114.784 17.9733C113.547 18.5405 112.311 18.7409 111.008 18.8253C109.706 18.908 108.336 18.8745 106.966 18.8417C108.402 18.6736 109.839 18.5071 111.025 18.2399C112.211 17.9733 113.146 17.6053 114.115 17.1207C115.084 16.6361 116.086 16.0349 116.771 15.1999C117.456 14.3648 117.823 13.2954 118.375 12.3432C118.926 11.3916 119.66 10.5566 120.396 9.72096C119.694 9.78776 118.993 9.85457 118.324 10.0046C117.656 10.1546 117.022 10.389 116.554 10.8068C116.086 11.2246 115.786 11.8258 115.485 12.4276C115.585 11.9266 115.685 11.425 115.969 10.9409C116.253 10.4558 116.72 9.98817 117.322 9.50414C117.923 9.01897 118.658 8.51796 119.176 7.90032C119.694 7.28269 119.995 6.54786 119.928 5.54526C119.861 4.54323 119.427 3.27399 118.859 2.3048C118.291 1.3356 117.589 0.667577 116.887 0.00012207C117.122 0.534539 117.356 1.06839 117.522 1.55356C117.69 2.03759 117.79 2.4718 117.472 2.93942C117.155 3.4076 116.42 3.90861 115.702 4.52681C114.984 5.14389 114.282 5.87871 113.964 6.58126C113.647 7.28269 113.714 7.95071 113.68 8.49418C113.646 9.03766 113.511 9.45715 113.215 9.96326C112.918 10.4688 112.459 11.0621 111.942 11.5461C111.425 12.0319 110.851 12.4095 110.277 12.7865C110.91 12.0319 111.544 11.2772 111.894 10.449C112.244 9.62076 112.311 8.71893 112.361 8.13413C112.412 7.54989 112.444 7.28268 112.478 7.01434C111.843 7.21588 111.209 7.41629 110.573 7.95071C109.939 8.48512 109.304 9.35355 108.937 10.2554C108.569 11.1572 108.469 12.093 108.135 13.1449C107.801 14.1984 107.233 15.3669 106.498 16.2523C105.763 17.1371 104.861 17.7389 103.775 18.2071C102.69 18.6736 101.42 19.0082 100.451 19.1916C99.4831 19.3756 98.8146 19.409 97.8623 19.3427C96.9107 19.2754 95.6743 19.1084 94.4385 18.7574C93.202 18.4064 91.9662 17.8725 90.7298 17.3387C91.7324 17.6387 92.7344 17.9388 93.6532 18.0729C94.5721 18.2071 95.4071 18.1726 96.4425 18.0061C97.4785 17.8391 98.7144 17.5379 99.6332 17.0709C100.552 16.6033 101.153 15.9687 101.754 15.334C100.986 15.1999 100.218 15.0668 99.2324 15.0159C98.2467 14.9661 97.0443 14.9995 95.8419 15.0323C96.8767 14.833 97.9127 14.6315 99.015 14.3314Z" fill="black"/>
<path d="M193.227 14.3314C192.125 14.0303 190.956 13.6295 190.07 12.911C189.185 12.1938 188.584 11.1572 187.932 10.3063C187.281 9.45432 186.58 8.7863 185.878 8.11715C186.546 8.08431 187.214 8.05091 187.999 8.2015C188.784 8.35152 189.686 8.68553 190.688 9.08634C191.69 9.48715 192.793 9.95534 193.895 10.573C194.998 11.1912 196.1 11.96 197.203 12.7276C195.833 11.6582 194.463 10.59 193.595 9.51999C192.726 8.45172 192.359 7.38232 191.991 6.31405C193.328 7.21588 194.664 8.11715 195.833 8.88537C197.002 9.65359 198.004 10.2893 199.007 11.0236C200.009 11.7584 201.012 12.5946 202.063 13.0622C203.116 13.5292 204.219 13.6295 205.221 13.5292C206.223 13.4296 207.125 13.1284 208.027 12.6444C208.929 12.1592 209.831 11.4912 210.398 10.8068C210.966 10.1218 211.201 9.42092 211.434 8.71893C211.033 9.21995 210.632 9.72096 210.131 10.0555C209.63 10.389 209.029 10.5566 208.244 10.6562C207.459 10.757 206.49 10.7904 205.521 10.5401C204.552 10.2893 203.583 9.75436 202.798 8.90179C202.014 8.05091 201.412 6.88131 200.811 5.7117C201.513 6.14592 202.214 6.58126 202.966 6.63052C203.717 6.6809 204.519 6.34689 205.304 6.36331C206.089 6.37972 206.857 6.7477 207.692 7.03189C208.528 7.31552 209.43 7.51593 210.348 7.39874C211.267 7.28268 212.203 6.84791 212.871 6.28065C213.539 5.7117 213.94 5.01028 214.34 4.30943H215.543C215.242 5.07708 214.942 5.84587 214.307 6.98151C213.673 8.11715 212.704 9.62076 211.267 11.3084C209.831 12.9948 207.926 14.8653 205.822 16.4357C203.717 18.0061 201.412 19.2754 199.141 20.244C196.869 21.2132 194.631 21.8812 192.242 22.2984C189.853 22.7162 187.314 22.8832 184.976 22.6828C182.637 22.4824 180.499 21.9146 178.528 21.1628C176.558 20.411 174.753 19.4763 172.982 18.3566C171.212 17.2379 169.475 15.9341 167.822 14.7487C166.168 13.5638 164.598 12.4938 163.027 11.725C161.457 10.9574 159.887 10.4892 158.317 10.3392C156.747 10.1891 155.177 10.3561 153.874 10.74C152.572 11.1238 151.535 11.725 150.784 12.4276C150.032 13.1284 149.565 13.9301 149.247 14.8823C148.93 15.8345 148.763 16.9367 148.963 17.7717C149.164 18.6079 149.732 19.1752 150.416 19.5262C151.101 19.8771 151.903 20.0102 152.487 19.91C153.072 19.8098 153.44 19.4763 153.574 19.1916C153.707 18.908 153.606 18.6736 153.54 18.6577C153.473 18.6407 153.44 18.8417 153.239 18.8253C153.039 18.8072 152.671 18.5734 152.487 18.2399C152.304 17.9054 152.304 17.4717 152.555 17.1371C152.805 16.8026 153.306 16.5699 153.79 16.6197C154.275 16.6695 154.743 17.0041 154.993 17.5045C155.244 18.0061 155.277 18.6736 155.043 19.3427C154.809 20.0102 154.308 20.6782 153.54 21.079C152.771 21.481 151.735 21.614 150.767 21.4645C149.799 21.3128 148.896 20.8786 148.178 20.1274C147.46 19.3756 146.925 18.3062 146.792 17.2045C146.658 16.1023 146.925 14.9661 147.293 14.1639C147.66 13.3622 148.128 12.8946 148.596 12.4276L146.892 13.3288C147.059 12.6608 147.226 11.9928 147.577 11.4074C147.928 10.8238 148.462 10.3227 149.197 10.0725C149.932 9.82117 150.868 9.82117 151.769 9.65359C152.671 9.48716 153.54 9.15314 154.409 8.8197C153.74 8.51796 153.072 8.21791 152.722 7.90032C152.371 7.58329 152.337 7.24872 152.638 7.11511C152.938 6.98151 153.574 7.04888 154.509 7.2657C155.444 7.48253 156.68 7.8505 157.732 8.15055C158.785 8.45172 159.654 8.68553 160.522 8.91934C159.687 8.48512 158.852 8.05091 158.317 7.54989C157.783 7.04888 157.549 6.48049 157.315 5.91324C158.417 6.18045 159.52 6.44709 160.489 6.89772C161.457 7.34892 162.292 7.98354 162.911 8.58533C163.528 9.18655 163.93 9.75436 164.598 10.3392C165.266 10.924 166.201 11.5246 167.053 11.943C167.905 12.3602 168.673 12.5946 169.442 12.8284C168.606 12.393 167.771 11.96 167.17 11.1238C166.569 10.2893 166.201 9.05351 165.834 7.8171C166.669 8.08431 167.504 8.35152 168.256 9.00256C169.008 9.65359 169.675 10.6902 170.578 11.8428C171.479 12.9948 172.615 14.2641 173.801 15.3669C174.987 16.4691 176.223 17.4043 177.459 17.9733C178.695 18.5405 179.932 18.7409 181.234 18.8253C182.537 18.908 183.907 18.8745 185.277 18.8417C183.84 18.6736 182.403 18.5071 181.217 18.2399C180.031 17.9733 179.096 17.6053 178.127 17.1207C177.159 16.6361 176.157 16.0349 175.472 15.1999C174.787 14.3648 174.419 13.2954 173.868 12.3432C173.316 11.3916 172.582 10.5566 171.847 9.72096C172.548 9.78776 173.25 9.85457 173.918 10.0046C174.586 10.1546 175.221 10.389 175.689 10.8068C176.157 11.2246 176.457 11.8258 176.758 12.4276C176.658 11.9266 176.558 11.425 176.274 10.9409C175.99 10.4558 175.522 9.98817 174.92 9.50414C174.319 9.01897 173.584 8.51796 173.066 7.90032C172.548 7.28269 172.248 6.54786 172.314 5.54526C172.381 4.54323 172.815 3.27399 173.384 2.3048C173.951 1.3356 174.653 0.667577 175.355 0.00012207C175.121 0.534539 174.887 1.06839 174.72 1.55356C174.553 2.03759 174.452 2.4718 174.77 2.93942C175.088 3.4076 175.822 3.90861 176.541 4.52681C177.259 5.14389 177.96 5.87871 178.278 6.58126C178.595 7.28269 178.528 7.95071 178.562 8.49418C178.596 9.03766 178.731 9.45715 179.027 9.96326C179.325 10.4688 179.783 11.0621 180.3 11.5461C180.818 12.0319 181.392 12.4095 181.966 12.7865C181.332 12.0319 180.699 11.2772 180.348 10.449C179.998 9.62076 179.932 8.71893 179.881 8.13413C179.831 7.54989 179.798 7.28268 179.765 7.01434C180.399 7.21588 181.034 7.41629 181.669 7.95071C182.304 8.48512 182.938 9.35355 183.306 10.2554C183.673 11.1572 183.773 12.093 184.107 13.1449C184.441 14.1984 185.009 15.3669 185.744 16.2523C186.479 17.1371 187.381 17.7389 188.467 18.2071C189.553 18.6736 190.822 19.0082 191.791 19.1916C192.759 19.3756 193.428 19.409 194.38 19.3427C195.332 19.2754 196.568 19.1084 197.804 18.7574C199.04 18.4064 200.276 17.8725 201.513 17.3387C200.51 17.6387 199.508 17.9388 198.589 18.0729C197.67 18.2071 196.835 18.1726 195.8 18.0061C194.764 17.8391 193.528 17.5379 192.609 17.0709C191.69 16.6033 191.09 15.9687 190.488 15.334C191.256 15.1999 192.024 15.0668 193.01 15.0159C193.996 14.9661 195.198 14.9995 196.401 15.0323C195.366 14.833 194.33 14.6315 193.227 14.3314Z" fill="black"/>
<path d="M246.772 14.3314C247.875 14.0303 249.044 13.6295 249.93 12.911C250.815 12.1938 251.416 11.1572 252.068 10.3063C252.719 9.45432 253.42 8.7863 254.122 8.11715C253.454 8.08431 252.786 8.05091 252 8.2015C251.216 8.35152 250.313 8.68553 249.311 9.08634C248.309 9.48715 247.207 9.95534 246.104 10.573C245.002 11.1912 243.9 11.96 242.797 12.7276C244.166 11.6582 245.536 10.59 246.405 9.51999C247.273 8.45172 247.641 7.38232 248.009 6.31405C246.672 7.21588 245.335 8.11715 244.166 8.88537C242.997 9.65359 241.995 10.2893 240.993 11.0236C239.991 11.7584 238.988 12.5946 237.936 13.0622C236.884 13.5292 235.781 13.6295 234.779 13.5292C233.777 13.4296 232.875 13.1284 231.973 12.6444C231.071 12.1592 230.169 11.4912 229.601 10.8068C229.033 10.1218 228.799 9.42092 228.565 8.71893C228.967 9.21995 229.368 9.72096 229.869 10.0555C230.37 10.389 230.971 10.5566 231.756 10.6562C232.541 10.757 233.51 10.7904 234.478 10.5401C235.448 10.2893 236.416 9.75436 237.201 8.90179C237.986 8.05091 238.587 6.88131 239.189 5.7117C238.487 6.14592 237.786 6.58126 237.034 6.63052C236.283 6.6809 235.48 6.34689 234.696 6.36331C233.911 6.37972 233.142 6.7477 232.307 7.03189C231.472 7.31552 230.57 7.51593 229.652 7.39874C228.733 7.28268 227.797 6.84791 227.129 6.28065C226.461 5.7117 226.06 5.01028 225.659 4.30943H224.457C224.758 5.07708 225.058 5.84587 225.692 6.98151C226.327 8.11715 227.296 9.62076 228.733 11.3084C230.169 12.9948 232.074 14.8653 234.178 16.4357C236.283 18.0061 238.587 19.2754 240.859 20.244C243.131 21.2132 245.369 21.8812 247.758 22.2984C250.146 22.7162 252.685 22.8832 255.024 22.6828C257.363 22.4824 259.5 21.9146 261.472 21.1628C263.442 20.411 265.246 19.4763 267.017 18.3566C268.788 17.2379 270.525 15.9341 272.178 14.7487C273.832 13.5638 275.402 12.4938 276.973 11.725C278.542 10.9574 280.113 10.4892 281.683 10.3392C283.253 10.1891 284.823 10.3561 286.126 10.74C287.428 11.1238 288.465 11.725 289.216 12.4276C289.968 13.1284 290.435 13.9301 290.752 14.8823C291.07 15.8345 291.237 16.9367 291.037 17.7717C290.836 18.6079 290.268 19.1752 289.583 19.5262C288.899 19.8771 288.097 20.0102 287.513 19.91C286.928 19.8098 286.56 19.4763 286.426 19.1916C286.293 18.908 286.393 18.6736 286.46 18.6577C286.527 18.6407 286.56 18.8417 286.761 18.8253C286.961 18.8072 287.329 18.5734 287.513 18.2399C287.696 17.9054 287.696 17.4717 287.445 17.1371C287.194 16.8026 286.693 16.5699 286.209 16.6197C285.725 16.6695 285.257 17.0041 285.007 17.5045C284.756 18.0061 284.723 18.6736 284.956 19.3427C285.19 20.0102 285.691 20.6782 286.46 21.079C287.228 21.481 288.264 21.614 289.232 21.4645C290.201 21.3128 291.103 20.8786 291.822 20.1274C292.54 19.3756 293.075 18.3062 293.208 17.2045C293.341 16.1023 293.075 14.9661 292.707 14.1639C292.339 13.3622 291.872 12.8946 291.404 12.4276L293.108 13.3288C292.941 12.6608 292.773 11.9928 292.423 11.4074C292.072 10.8238 291.538 10.3227 290.803 10.0725C290.068 9.82117 289.132 9.82117 288.23 9.65359C287.329 9.48716 286.46 9.15314 285.591 8.8197C286.26 8.51796 286.928 8.21791 287.278 7.90032C287.629 7.58329 287.663 7.24872 287.362 7.11511C287.061 6.98151 286.426 7.04888 285.491 7.2657C284.556 7.48253 283.32 7.8505 282.267 8.15055C281.215 8.45172 280.346 8.68553 279.478 8.91934C280.313 8.48512 281.148 8.05091 281.683 7.54989C282.217 7.04888 282.451 6.48049 282.685 5.91324C281.582 6.18045 280.48 6.44709 279.511 6.89772C278.542 7.34892 277.707 7.98354 277.089 8.58533C276.471 9.18655 276.07 9.75436 275.402 10.3392C274.734 10.924 273.799 11.5246 272.946 11.943C272.095 12.3602 271.327 12.5946 270.558 12.8284C271.393 12.393 272.228 11.96 272.83 11.1238C273.431 10.2893 273.799 9.05351 274.166 7.8171C273.331 8.08431 272.496 8.35152 271.744 9.00256C270.992 9.65359 270.325 10.6902 269.422 11.8428C268.52 12.9948 267.385 14.2641 266.199 15.3669C265.013 16.4691 263.776 17.4043 262.541 17.9733C261.305 18.5405 260.068 18.7409 258.766 18.8253C257.463 18.908 256.093 18.8745 254.723 18.8417C256.16 18.6736 257.596 18.5071 258.783 18.2399C259.969 17.9733 260.904 17.6053 261.872 17.1207C262.841 16.6361 263.843 16.0349 264.528 15.1999C265.213 14.3648 265.58 13.2954 266.132 12.3432C266.683 11.3916 267.418 10.5566 268.153 9.72096C267.452 9.78776 266.75 9.85457 266.081 10.0046C265.413 10.1546 264.779 10.389 264.311 10.8068C263.843 11.2246 263.543 11.8258 263.242 12.4276C263.342 11.9266 263.442 11.425 263.726 10.9409C264.01 10.4558 264.478 9.98817 265.079 9.50414C265.681 9.01897 266.416 8.51796 266.934 7.90032C267.452 7.28269 267.752 6.54786 267.685 5.54526C267.619 4.54323 267.184 3.27399 266.616 2.3048C266.049 1.3356 265.347 0.667577 264.645 0.00012207C264.879 0.534539 265.113 1.06839 265.279 1.55356C265.447 2.03759 265.548 2.4718 265.229 2.93942C264.912 3.4076 264.178 3.90861 263.459 4.52681C262.741 5.14389 262.039 5.87871 261.722 6.58126C261.405 7.28269 261.472 7.95071 261.438 8.49418C261.404 9.03766 261.268 9.45715 260.972 9.96326C260.675 10.4688 260.216 11.0621 259.7 11.5461C259.182 12.0319 258.608 12.4095 258.034 12.7865C258.668 12.0319 259.301 11.2772 259.652 10.449C260.001 9.62076 260.068 8.71893 260.119 8.13413C260.169 7.54989 260.202 7.28268 260.235 7.01434C259.601 7.21588 258.966 7.41629 258.331 7.95071C257.696 8.48512 257.062 9.35355 256.694 10.2554C256.327 11.1572 256.226 12.093 255.892 13.1449C255.558 14.1984 254.991 15.3669 254.256 16.2523C253.52 17.1371 252.619 17.7389 251.533 18.2071C250.447 18.6736 249.178 19.0082 248.209 19.1916C247.24 19.3756 246.572 19.409 245.62 19.3427C244.668 19.2754 243.432 19.1084 242.196 18.7574C240.959 18.4064 239.724 17.8725 238.487 17.3387C239.49 17.6387 240.492 17.9388 241.411 18.0729C242.329 18.2071 243.164 18.1726 244.2 18.0061C245.236 17.8391 246.472 17.5379 247.39 17.0709C248.309 16.6033 248.91 15.9687 249.512 15.334C248.744 15.1999 247.975 15.0668 246.99 15.0159C246.004 14.9661 244.802 14.9995 243.599 15.0323C244.634 14.833 245.67 14.6315 246.772 14.3314Z" fill="black"/>
<path d="M340.985 14.3314C339.882 14.0303 338.714 13.6295 337.828 12.911C336.942 12.1938 336.341 11.1572 335.689 10.3063C335.038 9.45432 334.337 8.7863 333.635 8.11715C334.303 8.08431 334.971 8.05091 335.757 8.2015C336.541 8.35152 337.444 8.68553 338.446 9.08634C339.448 9.48715 340.551 9.95534 341.653 10.573C342.755 11.1912 343.857 11.96 344.96 12.7276C343.591 11.6582 342.221 10.59 341.352 9.51999C340.484 8.45172 340.116 7.38232 339.748 6.31405C341.085 7.21588 342.422 8.11715 343.591 8.88537C344.76 9.65359 345.762 10.2893 346.764 11.0236C347.766 11.7584 348.769 12.5946 349.821 13.0622C350.873 13.5292 351.976 13.6295 352.978 13.5292C353.98 13.4296 354.882 13.1284 355.784 12.6444C356.686 12.1592 357.588 11.4912 358.156 10.8068C358.724 10.1218 358.958 9.42092 359.192 8.71893C358.79 9.21995 358.39 9.72096 357.889 10.0555C357.388 10.389 356.786 10.5566 356.001 10.6562C355.216 10.757 354.247 10.7904 353.279 10.5401C352.309 10.2893 351.341 9.75436 350.556 8.90179C349.771 8.05091 349.17 6.88131 348.568 5.7117C349.27 6.14592 349.971 6.58126 350.723 6.63052C351.474 6.6809 352.277 6.34689 353.061 6.36331C353.846 6.37972 354.615 6.7477 355.45 7.03189C356.285 7.31552 357.187 7.51593 358.105 7.39874C359.024 7.28268 359.96 6.84791 360.628 6.28065C361.296 5.7117 361.697 5.01028 362.098 4.30943H363.3C362.999 5.07708 362.699 5.84587 362.065 6.98151C361.43 8.11715 360.461 9.62076 359.024 11.3084C357.588 12.9948 355.684 14.8653 353.579 16.4357C351.474 18.0061 349.17 19.2754 346.898 20.244C344.626 21.2132 342.388 21.8812 339.999 22.2984C337.611 22.7162 335.072 22.8832 332.733 22.6828C330.394 22.4824 328.257 21.9146 326.285 21.1628C324.315 20.411 322.511 19.4763 320.74 18.3566C318.97 17.2379 317.232 15.9341 315.579 14.7487C313.925 13.5638 312.355 12.4938 310.785 11.725C309.215 10.9574 307.644 10.4892 306.074 10.3392C304.504 10.1891 302.934 10.3561 301.632 10.74C300.329 11.1238 299.292 11.725 298.541 12.4276C297.789 13.1284 297.322 13.9301 297.005 14.8823C296.687 15.8345 296.52 16.9367 296.72 17.7717C296.921 18.6079 297.489 19.1752 298.174 19.5262C298.858 19.8771 299.66 20.0102 300.245 19.91C300.829 19.8098 301.197 19.4763 301.331 19.1916C301.464 18.908 301.364 18.6736 301.298 18.6577C301.23 18.6407 301.197 18.8417 300.996 18.8253C300.796 18.8072 300.429 18.5734 300.245 18.2399C300.061 17.9054 300.061 17.4717 300.312 17.1371C300.563 16.8026 301.064 16.5699 301.548 16.6197C302.032 16.6695 302.5 17.0041 302.75 17.5045C303.001 18.0061 303.034 18.6736 302.801 19.3427C302.567 20.0102 302.066 20.6782 301.298 21.079C300.529 21.481 299.493 21.614 298.525 21.4645C297.556 21.3128 296.654 20.8786 295.935 20.1274C295.217 19.3756 294.682 18.3062 294.549 17.2045C294.416 16.1023 294.682 14.9661 295.05 14.1639C295.418 13.3622 295.885 12.8946 296.353 12.4276L294.649 13.3288C294.816 12.6608 294.984 11.9928 295.334 11.4074C295.685 10.8238 296.219 10.3227 296.954 10.0725C297.689 9.82117 298.625 9.82117 299.527 9.65359C300.429 9.48716 301.298 9.15314 302.166 8.8197C301.497 8.51796 300.829 8.21791 300.479 7.90032C300.128 7.58329 300.095 7.24872 300.395 7.11511C300.696 6.98151 301.331 7.04888 302.266 7.2657C303.201 7.48253 304.437 7.8505 305.49 8.15055C306.542 8.45172 307.411 8.68553 308.279 8.91934C307.444 8.48512 306.609 8.05091 306.074 7.54989C305.54 7.04888 305.306 6.48049 305.072 5.91324C306.175 6.18045 307.277 6.44709 308.246 6.89772C309.215 7.34892 310.05 7.98354 310.668 8.58533C311.286 9.18655 311.687 9.75436 312.355 10.3392C313.023 10.924 313.958 11.5246 314.811 11.943C315.662 12.3602 316.43 12.5946 317.199 12.8284C316.364 12.393 315.529 11.96 314.927 11.1238C314.326 10.2893 313.958 9.05351 313.591 7.8171C314.426 8.08431 315.261 8.35152 316.013 9.00256C316.765 9.65359 317.433 10.6902 318.335 11.8428C319.237 12.9948 320.372 14.2641 321.558 15.3669C322.744 16.4691 323.981 17.4043 325.216 17.9733C326.453 18.5405 327.689 18.7409 328.992 18.8253C330.294 18.908 331.664 18.8745 333.034 18.8417C331.597 18.6736 330.161 18.5071 328.975 18.2399C327.789 17.9733 326.853 17.6053 325.885 17.1207C324.916 16.6361 323.914 16.0349 323.229 15.1999C322.544 14.3648 322.177 13.2954 321.625 12.3432C321.074 11.3916 320.34 10.5566 319.604 9.72096C320.306 9.78776 321.007 9.85457 321.676 10.0046C322.344 10.1546 322.978 10.389 323.446 10.8068C323.914 11.2246 324.214 11.8258 324.515 12.4276C324.415 11.9266 324.315 11.425 324.031 10.9409C323.747 10.4558 323.279 9.98817 322.678 9.50414C322.076 9.01897 321.342 8.51796 320.824 7.90032C320.306 7.28269 320.005 6.54786 320.072 5.54526C320.139 4.54323 320.573 3.27399 321.141 2.3048C321.708 1.3356 322.41 0.667577 323.112 0.00012207C322.878 0.534539 322.644 1.06839 322.478 1.55356C322.31 2.03759 322.209 2.4718 322.528 2.93942C322.845 3.4076 323.579 3.90861 324.298 4.52681C325.016 5.14389 325.718 5.87871 326.035 6.58126C326.352 7.28269 326.285 7.95071 326.319 8.49418C326.353 9.03766 326.489 9.45715 326.785 9.96326C327.082 10.4688 327.541 11.0621 328.057 11.5461C328.575 12.0319 329.149 12.4095 329.723 12.7865C329.089 12.0319 328.456 11.2772 328.106 10.449C327.756 9.62076 327.689 8.71893 327.639 8.13413C327.588 7.54989 327.555 7.28268 327.522 7.01434C328.157 7.21588 328.791 7.41629 329.426 7.95071C330.061 8.48512 330.696 9.35355 331.063 10.2554C331.43 11.1572 331.531 12.093 331.865 13.1449C332.199 14.1984 332.766 15.3669 333.501 16.2523C334.237 17.1371 335.138 17.7389 336.224 18.2071C337.31 18.6736 338.579 19.0082 339.549 19.1916C340.517 19.3756 341.185 19.409 342.137 19.3427C343.089 19.2754 344.325 19.1084 345.561 18.7574C346.798 18.4064 348.034 17.8725 349.27 17.3387C348.267 17.6387 347.265 17.9388 346.347 18.0729C345.428 18.2071 344.593 18.1726 343.557 18.0061C342.521 17.8391 341.285 17.5379 340.367 17.0709C339.448 16.6033 338.847 15.9687 338.245 15.334C339.014 15.1999 339.782 15.0668 340.767 15.0159C341.753 14.9661 342.955 14.9995 344.158 15.0323C343.123 14.833 342.087 14.6315 340.985 14.3314Z" fill="black"/>
<path d="M394.53 14.3314C395.633 14.0303 396.801 13.6295 397.687 12.911C398.573 12.1938 399.173 11.1572 399.825 10.3063C400.476 9.45432 401.178 8.7863 401.879 8.11715C401.211 8.08431 400.543 8.05091 399.758 8.2015C398.973 8.35152 398.071 8.68553 397.069 9.08634C396.067 9.48715 394.964 9.95534 393.862 10.573C392.76 11.1912 391.657 11.96 390.555 12.7276C391.924 11.6582 393.294 10.59 394.162 9.51999C395.031 8.45172 395.398 7.38232 395.766 6.31405C394.43 7.21588 393.093 8.11715 391.924 8.88537C390.755 9.65359 389.753 10.2893 388.75 11.0236C387.748 11.7584 386.746 12.5946 385.694 13.0622C384.641 13.5292 383.539 13.6295 382.537 13.5292C381.535 13.4296 380.633 13.1284 379.73 12.6444C378.829 12.1592 377.927 11.4912 377.359 10.8068C376.791 10.1218 376.557 9.42092 376.323 8.71893C376.724 9.21995 377.125 9.72096 377.626 10.0555C378.127 10.389 378.728 10.5566 379.514 10.6562C380.299 10.757 381.267 10.7904 382.236 10.5401C383.205 10.2893 384.174 9.75436 384.959 8.90179C385.744 8.05091 386.345 6.88131 386.947 5.7117C386.245 6.14592 385.543 6.58126 384.791 6.63052C384.04 6.6809 383.238 6.34689 382.453 6.36331C381.668 6.37972 380.9 6.7477 380.065 7.03189C379.229 7.31552 378.328 7.51593 377.409 7.39874C376.49 7.28268 375.555 6.84791 374.887 6.28065C374.219 5.7117 373.818 5.01028 373.417 4.30943H372.215C372.515 5.07708 372.815 5.84587 373.45 6.98151C374.084 8.11715 375.054 9.62076 376.49 11.3084C377.927 12.9948 379.831 14.8653 381.935 16.4357C384.04 18.0061 386.345 19.2754 388.617 20.244C390.889 21.2132 393.126 21.8812 395.515 22.2984C397.904 22.7162 400.443 22.8832 402.782 22.6828C405.12 22.4824 407.258 21.9146 409.229 21.1628C411.2 20.411 413.004 19.4763 414.775 18.3566C416.545 17.2379 418.283 15.9341 419.936 14.7487C421.59 13.5638 423.16 12.4938 424.73 11.725C426.3 10.9574 427.87 10.4892 429.441 10.3392C431.011 10.1891 432.58 10.3561 433.883 10.74C435.186 11.1238 436.222 11.725 436.974 12.4276C437.725 13.1284 438.192 13.9301 438.51 14.8823C438.828 15.8345 438.995 16.9367 438.794 17.7717C438.593 18.6079 438.025 19.1752 437.341 19.5262C436.657 19.8771 435.854 20.0102 435.27 19.91C434.685 19.8098 434.317 19.4763 434.184 19.1916C434.051 18.908 434.151 18.6736 434.217 18.6577C434.284 18.6407 434.317 18.8417 434.518 18.8253C434.719 18.8072 435.086 18.5734 435.27 18.2399C435.454 17.9054 435.454 17.4717 435.203 17.1371C434.952 16.8026 434.451 16.5699 433.967 16.6197C433.482 16.6695 433.015 17.0041 432.764 17.5045C432.514 18.0061 432.48 18.6736 432.714 19.3427C432.948 20.0102 433.449 20.6782 434.217 21.079C434.986 21.481 436.022 21.614 436.99 21.4645C437.959 21.3128 438.861 20.8786 439.579 20.1274C440.298 19.3756 440.832 18.3062 440.965 17.2045C441.099 16.1023 440.832 14.9661 440.464 14.1639C440.097 13.3622 439.629 12.8946 439.162 12.4276L440.866 13.3288C440.699 12.6608 440.531 11.9928 440.181 11.4074C439.83 10.8238 439.295 10.3227 438.56 10.0725C437.826 9.82117 436.89 9.82117 435.988 9.65359C435.086 9.48716 434.217 9.15314 433.349 8.8197C434.017 8.51796 434.685 8.21791 435.036 7.90032C435.386 7.58329 435.42 7.24872 435.12 7.11511C434.819 6.98151 434.184 7.04888 433.248 7.2657C432.313 7.48253 431.077 7.8505 430.025 8.15055C428.973 8.45172 428.104 8.68553 427.236 8.91934C428.071 8.48512 428.906 8.05091 429.441 7.54989C429.975 7.04888 430.208 6.48049 430.443 5.91324C429.34 6.18045 428.238 6.44709 427.269 6.89772C426.3 7.34892 425.465 7.98354 424.847 8.58533C424.229 9.18655 423.828 9.75436 423.16 10.3392C422.492 10.924 421.556 11.5246 420.704 11.943C419.852 12.3602 419.084 12.5946 418.315 12.8284C419.151 12.393 419.986 11.96 420.588 11.1238C421.188 10.2893 421.556 9.05351 421.924 7.8171C421.089 8.08431 420.253 8.35152 419.501 9.00256C418.75 9.65359 418.082 10.6902 417.18 11.8428C416.278 12.9948 415.142 14.2641 413.956 15.3669C412.77 16.4691 411.534 17.4043 410.299 17.9733C409.062 18.5405 407.826 18.7409 406.523 18.8253C405.22 18.908 403.85 18.8745 402.48 18.8417C403.917 18.6736 405.354 18.5071 406.54 18.2399C407.726 17.9733 408.661 17.6053 409.63 17.1207C410.599 16.6361 411.601 16.0349 412.286 15.1999C412.971 14.3648 413.338 13.2954 413.889 12.3432C414.441 11.3916 415.175 10.5566 415.91 9.72096C415.209 9.78776 414.508 9.85457 413.839 10.0046C413.171 10.1546 412.536 10.389 412.069 10.8068C411.601 11.2246 411.301 11.8258 410.999 12.4276C411.1 11.9266 411.2 11.425 411.483 10.9409C411.768 10.4558 412.235 9.98817 412.837 9.50414C413.438 9.01897 414.173 8.51796 414.691 7.90032C415.209 7.28269 415.51 6.54786 415.443 5.54526C415.376 4.54323 414.942 3.27399 414.373 2.3048C413.806 1.3356 413.104 0.667577 412.402 0.00012207C412.637 0.534539 412.87 1.06839 413.037 1.55356C413.204 2.03759 413.305 2.4718 412.987 2.93942C412.669 3.4076 411.935 3.90861 411.217 4.52681C410.498 5.14389 409.797 5.87871 409.479 6.58126C409.162 7.28269 409.229 7.95071 409.195 8.49418C409.161 9.03766 409.026 9.45715 408.73 9.96326C408.433 10.4688 407.974 11.0621 407.457 11.5461C406.94 12.0319 406.366 12.4095 405.792 12.7865C406.425 12.0319 407.059 11.2772 407.409 10.449C407.759 9.62076 407.826 8.71893 407.876 8.13413C407.927 7.54989 407.959 7.28268 407.993 7.01434C407.358 7.21588 406.724 7.41629 406.088 7.95071C405.454 8.48512 404.819 9.35355 404.452 10.2554C404.084 11.1572 403.984 12.093 403.65 13.1449C403.316 14.1984 402.748 15.3669 402.013 16.2523C401.278 17.1371 400.376 17.7389 399.29 18.2071C398.205 18.6736 396.935 19.0082 395.966 19.1916C394.998 19.3756 394.329 19.409 393.377 19.3427C392.426 19.2754 391.189 19.1084 389.953 18.7574C388.717 18.4064 387.481 17.8725 386.245 17.3387C387.247 17.6387 388.249 17.9388 389.168 18.0729C390.087 18.2071 390.922 18.1726 391.957 18.0061C392.993 17.8391 394.229 17.5379 395.148 17.0709C396.067 16.6033 396.668 15.9687 397.269 15.334C396.501 15.1999 395.733 15.0668 394.747 15.0159C393.762 14.9661 392.559 14.9995 391.357 15.0323C392.392 14.833 393.428 14.6315 394.53 14.3314Z" fill="black"/>
</svg>
