<svg width="440" height="956" viewBox="0 0 440 956" fill="none" xmlns="http://www.w3.org/2000/svg">
<path d="M0 0H440V956H0V0Z" fill="url(#paint0_linear_367_10)"/>
<g filter="url(#filter0_f_367_10)">
<mask id="mask0_367_10" style="mask-type:luminance" maskUnits="userSpaceOnUse" x="0" y="0" width="440" height="732">
<path d="M0 731.667L0 0H440L440 731.667H0Z" fill="white"/>
</mask>
<g mask="url(#mask0_367_10)">
<path d="M186.776 -7.55286C196.594 -4.75143 206.066 -1.45465 215.286 2.61557C223.025 6.03116 230.587 9.82336 238.009 14.1707C243.393 17.3242 248.702 20.7179 253.962 24.3771C257.874 27.0984 261.761 29.927 265.622 32.9341C268.875 35.4674 272.111 38.1126 275.337 40.852C277.869 43.0027 280.397 45.2055 282.918 47.4853C285.713 50.013 288.505 52.594 291.293 55.2827C293.474 57.3864 295.653 59.5384 297.832 61.7416C299.975 63.9081 302.117 66.1195 304.262 68.3838C306.275 70.5099 308.29 72.6894 310.306 74.9025C310.473 75.0859 310.64 75.2585 310.807 75.4427C311.185 75.2559 311.563 75.0717 311.941 74.8866C312.034 74.841 312.127 74.7953 312.22 74.7497C312.296 74.7123 312.372 74.6748 312.448 74.6378C312.608 74.5599 312.767 74.4807 312.926 74.4033C313.633 74.0594 314.34 73.7181 315.046 73.3802C315.753 73.0415 316.46 72.7058 317.167 72.3731C317.244 72.337 317.321 72.3012 317.397 72.2655C316.641 72.6206 315.887 73.0045 315.131 73.366C314.598 73.6208 314.065 73.8842 313.532 74.142C313.336 74.2371 313.139 74.3331 312.942 74.4287C312.235 74.7726 311.528 75.1095 310.821 75.459C346.276 118.901 352.535 126.581 437.578 283.899C438.016 283.526 438.465 283.143 438.894 282.777C438.978 282.702 439.981 281.777 440.064 281.702C350.604 109.634 344.831 105.392 319.301 71.4C319.117 71.4856 318.932 71.5657 318.748 71.6513C318.301 71.8592 317.854 72.0512 317.406 72.2612C318.034 71.9664 318.661 71.6729 319.288 71.3824C318.125 69.9939 316.965 68.6601 315.803 67.3031C313.813 64.979 311.825 62.7009 309.837 60.4684C307.58 57.9343 305.323 55.4574 303.066 53.0403C300.461 50.2522 297.855 47.5274 295.245 44.893C292.386 42.0094 289.522 39.214 286.651 36.5116C282.995 33.071 279.325 29.7707 275.633 26.6198C271.764 23.3174 267.868 20.1881 263.945 17.1977C258.803 13.2773 253.61 9.60214 248.343 6.20465C241.075 1.51639 233.662 -2.37653 226.074 -6.10416C224.786 -6.73682 223.49 -7.67422 222.192 -7.67422H185.271C185.77 -7.67422 186.278 -7.69531 186.776 -7.55286Z" fill="#D9CF43" fill-opacity="0.4"/>
<path d="M345.777 27.3646C351.068 36.0177 356.327 45.2143 361.595 55.0543C362.295 54.8383 362.995 54.6257 363.694 54.4161C364.393 54.206 365.091 53.999 365.79 53.795C366.459 53.5996 367.127 53.4072 367.796 53.217C366.569 53.5661 365.331 53.959 364.1 54.327C363.47 54.5151 362.839 54.7014 362.208 54.8947C362.007 54.9562 361.768 55.0139 361.567 55.0754C393.334 121.55 419.32 190.131 445.28 258.508V251.045C421.52 184.564 398.043 117.801 369.944 52.6295C369.683 52.7014 369.444 52.7659 369.184 52.8387C369.054 52.8748 368.934 52.9067 368.805 52.9433C368.679 52.9781 368.56 53.0083 368.435 53.0435C368.232 53.1008 368.032 53.149 367.829 53.2067C367.846 53.2019 367.864 53.1972 367.881 53.192C368.233 53.0918 368.585 52.9949 368.936 52.8968C368.97 52.8873 369.003 52.8778 369.036 52.8684C369.348 52.7814 369.66 52.6924 369.972 52.6063C362.401 37.017 354.835 23.1795 347.123 10.3805C343.232 3.92377 339.298 -2.94012 335.313 -7.67444H321.226C324.746 -2.94012 328.229 1.17313 331.677 6.07959C336.423 12.8337 341.114 19.7381 345.777 27.3646Z" fill="#D9CF43" fill-opacity="0.4"/>
<path d="M412.112 266.874C410.794 264.933 409.475 263.002 408.155 261.075C406.842 259.157 405.529 257.239 404.214 255.335C403.068 253.678 401.92 252.035 400.772 250.388C399.637 248.759 398.502 247.129 397.366 245.511C396.171 243.812 394.975 242.127 393.778 240.44C392.348 238.424 390.919 236.404 389.486 234.407C388.294 232.747 387.098 231.109 385.903 229.462C384.669 227.76 383.437 226.047 382.2 224.36C380.936 222.634 379.666 220.935 378.398 219.225C376.849 217.135 375.299 215.046 373.744 212.979C372.099 210.792 370.451 208.619 368.799 206.459C366.778 203.813 364.748 201.196 362.716 198.591C353.831 187.204 344.847 176.222 335.737 165.696C333.029 162.566 330.308 159.48 327.577 156.433C308.64 135.312 289.135 116.189 268.798 99.6277C267.937 100.195 267.077 100.759 266.219 101.335C264.315 102.611 262.419 103.916 260.526 105.233C322.261 151.47 376.136 219.261 426.652 293.128C427.3 292.589 427.932 292.059 428.566 291.529C424.209 284.899 419.845 278.333 415.47 271.842C414.351 270.182 413.232 268.525 412.112 266.874Z" fill="#D9CF43" fill-opacity="0.4"/>
<path d="M-5.39334 64.3198C37.7328 55.421 75.5565 51.8027 110.311 53.7343C110.885 53.7658 111.491 53.8183 112.063 53.8527C124.5 54.6042 136.561 56.0731 148.302 58.2599C157.779 60.0254 167.073 62.269 176.211 64.9831C183.379 67.1113 190.47 69.5164 197.486 72.2347C202.89 74.3282 208.26 76.5972 213.6 79.0435C217.963 81.0427 222.309 83.1706 226.643 85.4069C229.843 87.0574 233.038 88.7545 236.228 90.535C239.145 92.1636 242.059 93.8473 244.972 95.5848C247.13 96.8725 249.287 98.1994 251.443 99.547C253.713 100.965 255.984 102.428 258.255 103.912C258.986 104.391 259.717 104.846 260.449 105.331C260.469 105.344 260.489 105.356 260.509 105.369C261.196 104.891 261.883 104.416 262.571 103.943C263.259 103.471 263.948 103.001 264.637 102.534C264.815 102.413 264.993 102.295 265.171 102.175C265.683 101.829 266.195 101.483 266.707 101.14C267.398 100.679 268.089 100.22 268.781 99.7635C267.742 99.0129 266.703 98.2696 265.663 97.5306C263.74 96.165 261.815 94.8217 259.886 93.4952C257.887 92.1214 255.883 90.7696 253.874 89.4392C251.949 88.164 250.017 86.9072 248.078 85.6733C245.184 83.8308 242.275 82.0361 239.346 80.2904C236.374 78.5189 233.381 76.8003 230.363 75.1326C226.304 72.8889 222.202 70.7374 218.041 68.6905C212.711 66.0694 207.285 63.6183 201.743 61.3402C194.557 58.3856 187.173 55.7279 179.536 53.393C170.518 50.6359 161.148 48.3273 151.339 46.5089C144.519 45.2444 137.404 44.2128 130.13 43.435C92.7645 39.4406 48.229 42.0858 -5.39334 53.1085V64.3198Z" fill="#D9CF43" fill-opacity="0.4"/>
<path d="M59.4525 -2.87482C49.6299 -1.77301 12.1503 1.98901 -5.3934 2.289V15.4001C-2.85461 15.2391 -0.315338 15.079 2.22345 14.9189C10.7005 14.3852 19.156 13.6053 27.6027 12.7321C55.3068 9.8678 82.9181 5.99469 110.88 6.47198C110.912 6.47241 110.943 6.47287 110.975 6.47372C130.621 6.81674 150.266 8.8512 169.338 13.2761C179.01 15.5132 188.363 18.3444 197.503 21.7324C204.968 24.4998 212.286 27.6602 219.497 31.2226C224.942 33.9125 230.332 36.8215 235.677 39.9767C239.783 42.4007 243.866 44.977 247.934 47.6812C251.342 49.9476 254.743 52.2829 258.136 54.7486C260.917 56.7711 263.697 58.871 266.475 61.0289C268.876 62.8947 271.278 64.8138 273.68 66.7824C275.644 68.3917 277.608 70.0185 279.575 71.6971C281.471 73.3153 283.371 74.9891 285.271 76.672C286.791 78.0182 288.315 79.3972 289.839 80.7852C291.19 82.0161 292.54 83.226 293.895 84.4901C294.598 84.098 295.3 83.708 296.004 83.3215C296.703 82.9368 297.403 82.5541 298.127 82.1616C298.827 81.7824 299.526 81.4063 300.226 81.0327C300.305 80.9905 300.383 80.9496 300.462 80.9074C299.037 81.6671 297.615 82.4698 296.191 83.2522C295.628 83.5617 295.064 83.8668 294.501 84.1797C294.46 84.203 294.419 84.2249 294.335 84.2714C294.276 84.3041 294.216 84.336 294.157 84.3687C294.075 84.4147 293.992 84.4586 293.909 84.5047C341.31 133.829 373.954 182.922 434.216 286.912C434.794 286.421 435.381 285.923 435.946 285.442C406.272 232.291 385.558 196.152 368.463 168.654C359.365 154.019 351.288 141.827 343.431 130.82C340.117 126.178 336.84 121.74 333.543 117.424C333.346 117.165 333.148 116.91 332.951 116.652C323.445 104.257 313.729 92.7682 302.352 79.9287C302.14 80.0402 301.928 80.1457 301.716 80.2576C301.341 80.4555 300.965 80.6397 300.591 80.839C301.174 80.5287 301.757 80.2188 302.34 79.9124C300.881 78.4383 299.429 77.021 297.976 75.5887C296.106 73.7462 294.239 71.9398 292.375 70.1653C290.584 68.4601 288.792 66.7747 287.004 65.1314C285.194 63.468 283.384 61.8131 281.576 60.2129C279.2 58.1109 276.825 56.0691 274.45 54.0755C271.868 51.9094 269.285 49.8211 266.699 47.7819C263.396 45.178 260.087 42.6874 256.769 40.2871C252.798 37.4155 248.81 34.6881 244.799 32.1031C239.31 28.5649 233.774 25.2874 228.172 22.2755C220.867 18.3482 213.446 14.8547 205.863 11.7946C196.619 8.06445 187.122 4.97855 177.301 2.48572C176.259 2.22147 175.23 1.93524 174.181 1.68433C141.218 -6.19528 104.42 -7.38232 60.5036 -2.95618C60.1525 -2.92819 59.8098 -2.91486 59.4525 -2.87482Z" fill="#D9CF43" fill-opacity="0.4"/>
<path d="M378.277 50.484C402.807 113.957 423.721 178.593 445.281 242.894V233.846C425.921 172.063 407.609 109.921 386.536 48.5894C386.431 48.6114 386.345 48.6308 386.24 48.6531C386.004 48.703 385.78 48.7448 385.545 48.7956C385.475 48.8102 385.411 48.8223 385.342 48.8373C385.311 48.8438 385.283 48.8494 385.253 48.8559C385.188 48.87 385.125 48.8808 385.06 48.895C384.65 48.9837 384.241 49.0736 383.831 49.1644C383.775 49.1765 383.719 49.1915 383.663 49.204C383.547 49.2299 383.429 49.2608 383.312 49.2867C383.226 49.306 383.138 49.3288 383.051 49.3482C381.687 49.6546 380.317 49.9835 378.947 50.3149C379.422 50.1832 379.898 50.045 380.372 49.9331C380.895 49.81 381.416 49.6964 381.938 49.5768C382.029 49.5557 382.12 49.5372 382.212 49.5165C382.288 49.4989 382.364 49.4821 382.441 49.4644C383.13 49.3082 383.818 49.1554 384.506 49.0047C385.193 48.8545 385.88 48.7074 386.566 48.5632C386.558 48.5434 386.55 48.5244 386.543 48.5046C380.523 33.1198 374.463 19.3537 368.26 6.45662C365.863 1.47354 363.443 -2.94014 360.995 -7.67445H348.565C358.775 8.68045 368.543 28.4006 378.28 50.7031C378.286 50.7018 378.272 50.4853 378.277 50.484Z" fill="#D9CF43" fill-opacity="0.4"/>
<path d="M15.4147 156.63C14.0934 156.876 12.696 157.097 11.3694 157.356C5.79279 158.445 0.32756 159.674 -5.39333 161.007V171.264C-2.7762 170.64 -0.166138 170.039 2.40346 169.471C12.6005 167.211 22.7121 165.36 32.6183 163.874C55.9361 160.377 78.56 159.022 100.991 159.692C125.235 160.417 149.266 163.517 173.709 168.898C177.984 169.839 182.267 170.825 186.57 171.904C186.598 171.911 186.624 171.917 186.651 171.924C187.156 171.327 187.665 170.731 188.176 170.135C188.687 169.539 189.202 168.945 189.719 168.35C189.972 168.06 190.228 167.771 190.482 167.48C190.555 167.397 190.628 167.314 190.7 167.231C190.894 167.011 191.086 166.79 191.281 166.57C191.46 166.366 191.642 166.163 191.823 165.96C191.861 165.916 191.9 165.873 191.939 165.829C192.246 165.484 192.551 165.138 192.86 164.794C175.066 159.797 157.547 156.045 140.054 153.517C118.852 150.453 97.6811 149.228 76.1061 149.908C56.3369 150.531 36.2153 152.759 15.4147 156.63Z" fill="#D9CF43" fill-opacity="0.4"/>
<path d="M191.313 166.4C191.129 166.609 190.954 166.82 190.77 167.029C189.796 168.137 188.845 169.249 187.894 170.361C187.689 170.6 187.478 170.838 187.275 171.077C187.075 171.312 186.867 171.545 186.668 171.78C219.632 181.887 250.603 196.014 279.784 213.007C312.227 231.692 347.463 256.982 386.72 292.855C390.917 296.69 395.163 300.657 399.453 304.738C401.277 306.475 403.111 308.234 404.953 310.016C405.552 309.586 406.15 309.157 406.747 308.723C406.935 308.586 407.124 308.452 407.312 308.315C394.97 295.944 381.796 283.456 367.852 271.19C367.015 270.453 366.18 269.717 365.338 268.982C354.149 259.227 342.462 249.632 330.309 240.36C315.089 228.749 299.138 217.65 282.488 207.411C277.197 204.156 271.83 200.996 266.4 197.926C243.113 184.758 218.573 173.372 192.878 164.65C192.571 164.993 192.246 165.334 191.941 165.677C191.901 165.722 191.861 165.767 191.821 165.811C191.648 166.007 191.486 166.204 191.313 166.4Z" fill="#D9CF43" fill-opacity="0.4"/>
<path d="M409.943 313.078C409.927 313.083 409.91 313.088 409.894 313.093C409.433 313.226 408.991 313.355 408.555 313.482C408.391 313.53 408.225 313.578 408.064 313.626C407.778 313.71 407.502 313.792 407.227 313.874C406.961 313.953 406.696 314.032 406.438 314.109C406.27 314.159 406.107 314.209 405.943 314.258C405.622 314.355 405.305 314.452 404.998 314.546C404.87 314.585 404.746 314.623 404.621 314.662C404.327 314.753 404.038 314.842 403.755 314.931C403.533 315 403.317 315.068 403.104 315.136C402.96 315.182 402.815 315.227 402.674 315.272C395.594 317.537 392.982 318.885 389.234 320.822C389.234 320.822 389.233 320.822 389.232 320.822C388.447 321.333 387.66 321.839 386.873 322.343C386.818 322.377 386.763 322.414 386.708 322.449C386.657 322.481 386.607 322.513 386.557 322.546C385.664 323.116 384.77 323.682 383.875 324.244C382.98 324.806 382.083 325.363 381.186 325.916C380.944 326.065 380.702 326.211 380.461 326.36C380.297 326.46 380.134 326.559 379.97 326.66C379.868 326.722 379.766 326.785 379.664 326.847C379.273 327.085 378.882 327.326 378.49 327.564C381.232 326.433 383.369 325.656 387 324.755C388.51 324.38 390.283 323.982 392.465 323.529C392.62 323.497 392.777 323.465 392.936 323.432C393.253 323.366 393.581 323.3 393.915 323.232C398.35 322.334 404.345 321.212 412.908 319.638C413.434 319.541 413.972 319.443 414.517 319.342C414.684 319.312 414.84 319.283 415.009 319.252C418.449 318.62 421.857 317.975 425.243 317.322C425.318 317.307 425.394 317.294 425.469 317.279C428.329 316.726 431.155 316.161 433.976 315.594C434.776 315.433 435.59 315.276 436.388 315.114C437.802 314.826 439.155 314.53 440.56 314.239C442.15 313.909 443.961 313.578 445.281 313.244V303.491C440.441 304.822 435.445 306.154 430.378 307.49C421.552 309.819 415.003 311.618 409.943 313.078Z" fill="#D9CF43" fill-opacity="0.4"/>
<path d="M-5.39328 201.815V211.834C21.881 204.573 47.3442 200.012 73.2625 198.007C103.477 195.669 133.655 196.743 164.727 200.993C164.755 200.997 164.783 201 164.811 201.004C165.103 200.56 165.4 200.115 165.696 199.671C165.745 199.598 165.794 199.524 165.842 199.45C165.906 199.356 165.968 199.261 166.031 199.166C166.441 198.554 166.855 197.942 167.272 197.331C167.688 196.72 168.108 196.109 168.531 195.497C168.703 195.25 168.878 195.003 169.05 194.755C168.957 194.889 168.872 195.023 168.779 195.157C167.425 197.105 166.114 199.056 164.83 201.008C195.799 206.806 225.193 216.184 252.843 227.919C258.91 230.444 265.076 233.164 271.344 236.099C308.864 253.665 350.05 278.948 395.714 316.618C396.108 316.352 396.501 316.088 396.894 315.82C397.273 315.562 397.654 315.311 398.032 315.051C334.077 259.881 259.358 212.966 169.829 193.671C169.619 193.968 169.394 194.265 169.185 194.563C169.178 194.573 169.17 194.583 169.163 194.594C169.181 194.568 169.2 194.541 169.218 194.515C169.289 194.413 169.361 194.31 169.433 194.207C169.548 194.043 169.661 193.88 169.776 193.716C169.788 193.7 169.799 193.683 169.811 193.666C169.088 193.549 168.372 193.454 167.65 193.339C119.984 185.795 74.4306 185.871 27.0673 194.562C16.3198 196.534 5.76379 198.95 -5.39328 201.815Z" fill="#D9CF43" fill-opacity="0.4"/>
<path d="M-5.39319 86.399C27.2403 79.4878 57.401 75.9125 85.5548 75.7486C94.6017 75.6905 103.542 75.9999 112.253 76.6446C124.315 77.5373 136.088 79.1108 147.663 81.3592C156.849 83.1431 165.915 85.345 174.897 87.9881C181.734 89.9993 188.524 92.2722 195.289 94.7835C200.344 96.6596 205.386 98.6545 210.421 100.811C214.524 102.568 218.624 104.447 222.724 106.391C225.987 107.938 229.251 109.542 232.518 111.208C235.443 112.699 238.372 114.238 241.303 115.824C242.236 116.329 243.167 116.81 244.1 117.324C244.121 117.336 244.142 117.346 244.162 117.358C244.837 116.836 245.513 116.318 246.19 115.802C246.832 115.312 247.476 114.825 248.12 114.34C248.134 114.329 248.148 114.319 248.162 114.308C248.182 114.293 248.202 114.278 248.222 114.263C248.813 113.818 249.405 113.376 249.996 112.936C250.084 112.871 250.172 112.805 250.259 112.739C250.414 112.625 250.568 112.512 250.723 112.397C250.635 112.462 250.549 112.532 250.461 112.597C250.203 112.787 249.949 112.989 249.692 113.18C248.658 113.952 247.631 114.746 246.601 115.53C246.387 115.692 246.173 115.853 245.96 116.016C245.565 116.318 245.168 116.614 244.774 116.917C244.692 116.98 244.61 117.041 244.528 117.105C244.48 117.142 244.432 117.177 244.384 117.214C244.316 117.266 244.247 117.317 244.18 117.369C269.024 133.008 292.675 151.89 315.446 173.28C315.726 173.539 316.005 173.802 316.285 174.063C319.557 177.112 322.829 180.228 326.105 183.425C334.128 191.254 342.176 199.546 350.327 208.38C353.944 212.3 357.582 216.33 361.246 220.473C364.234 223.851 367.239 227.302 370.266 230.838C372.572 233.531 374.89 236.269 377.222 239.058C378.978 241.157 380.744 243.292 382.517 245.447C384.255 247.561 386.002 249.702 387.758 251.871C389.926 254.549 392.109 257.272 394.306 260.037C395.684 261.772 397.069 263.526 398.459 265.295C400.293 267.63 402.136 269.992 403.992 272.388C405.768 274.682 407.553 277 409.352 279.353C411.122 281.67 412.906 284.023 414.699 286.398C416.499 288.781 418.309 291.194 420.133 293.638C420.902 294.668 421.672 295.703 422.446 296.745C423.173 296.15 423.885 295.564 424.598 294.975C417.446 284.967 410.157 274.999 402.728 265.129C402.073 264.259 401.413 263.395 400.757 262.527C399.045 260.264 397.332 258.003 395.605 255.752C393.927 253.565 392.24 251.387 390.547 249.212C388.701 246.839 386.842 244.479 384.979 242.124C382.975 239.589 380.964 237.065 378.942 234.553C376.703 231.774 374.458 229.004 372.196 226.255C369.484 222.958 366.754 219.686 364.008 216.436C361.262 213.188 358.5 209.968 355.721 206.774C346.194 195.823 336.465 185.214 326.54 175.031C302.928 150.805 278.197 129.038 252.318 111.245C252.089 111.413 251.858 111.574 251.63 111.742C251.353 111.945 251.073 112.138 250.797 112.342C251.298 111.972 251.799 111.601 252.301 111.233C251.579 110.797 250.86 110.391 250.139 109.961C247.607 108.453 245.077 106.977 242.549 105.545C239.65 103.902 236.751 102.314 233.853 100.772C230.379 98.923 226.904 97.1558 223.427 95.4506C219.091 93.3245 214.751 91.2844 210.4 89.3804C205.424 87.203 200.432 85.1763 195.419 83.2877C188.558 80.7032 181.65 78.4032 174.683 76.3567C165.611 73.6926 156.426 71.4859 147.087 69.7269C135.465 67.538 123.595 66.0471 111.391 65.2461C106.957 64.9552 102.406 64.7245 97.8774 64.6152C66.3695 63.8564 32.4578 67.5143 -5.39319 75.4223V86.399Z" fill="#D9CF43" fill-opacity="0.4"/>
<path d="M51.2114 110.031C33.0293 111.662 14.625 114.622 -5.39328 118.908V129.582C10.9232 126.065 25.7103 123.424 40.6725 121.679C57.2794 119.733 73.456 118.886 89.2256 119.096C104.482 119.298 119.434 120.522 134.251 122.719C146.734 124.571 159.126 127.128 171.518 130.381C180.291 132.684 189.07 135.335 197.884 138.335C202.98 140.069 208.086 141.889 213.215 143.855C213.496 143.588 213.78 143.322 214.062 143.055C214.145 142.976 214.228 142.899 214.311 142.82C214.55 142.595 214.786 142.37 215.026 142.145C215.181 141.999 215.339 141.854 215.495 141.708C215.947 141.285 216.399 140.863 216.855 140.441C217.467 139.875 218.083 139.308 218.701 138.743C218.873 138.586 219.048 138.429 219.221 138.271C219.03 138.445 218.851 138.621 218.66 138.795C218.212 139.205 217.782 139.621 217.336 140.032C216.784 140.541 216.243 141.054 215.695 141.565C215.397 141.844 215.096 142.122 214.799 142.401C214.28 142.89 213.749 143.375 213.233 143.864C243.564 157.429 271.987 174.706 298.755 194.556C302.653 197.421 306.575 200.392 310.525 203.47C328.642 217.588 347.365 234.031 367.188 253.631C368.507 254.935 369.83 256.25 371.158 257.582C385.979 272.38 400.246 287.759 414.01 303.461C414.702 302.933 415.393 302.403 416.083 301.869C416.14 301.824 416.198 301.776 416.256 301.73C399.062 281.242 381.262 261.431 362.692 242.73C357.755 237.759 352.772 232.854 347.724 228.049C344.511 224.991 341.273 221.97 338.012 218.985C328.203 210.006 318.162 201.387 307.891 193.148C303.802 189.868 299.674 186.655 295.507 183.506C271.893 165.655 247.016 149.929 220.584 137.06C220.38 137.244 220.169 137.424 219.967 137.608C219.823 137.738 219.672 137.865 219.529 137.995C219.468 138.051 219.404 138.105 219.343 138.16C219.513 138.006 219.683 137.852 219.852 137.698C219.953 137.607 220.053 137.515 220.155 137.423C220.292 137.3 220.427 137.175 220.565 137.051C220.541 137.041 220.517 137.032 220.493 137.022C216.498 135.349 212.518 133.777 208.544 132.251C201.741 129.639 194.961 127.248 188.19 125.066C179.377 122.225 170.574 119.748 161.749 117.638C149.762 114.772 137.727 112.578 125.554 111.066C110.67 109.218 95.5775 108.365 80.1 108.552C70.6541 108.667 60.982 109.154 51.2114 110.031Z" fill="#D9CF43" fill-opacity="0.4"/>
<path d="M41.1605 22.5387C34.5728 23.3611 8.28189 26.9471 -5.39331 28.8177V41.757C-5.32907 41.744 -5.27142 41.732 -5.20673 41.7195C-5.19443 41.7186 -5.18295 41.7178 -5.17065 41.7169C-5.16846 41.7148 -5.16626 41.7131 -5.16406 41.7109C-5.11478 41.7014 -5.06989 41.692 -5.02017 41.6825L-5.05139 41.7105C-3.21265 41.3416 -1.42273 41.0111 0.3927 40.6608C12.9239 38.3728 30.6862 35.5658 41.6282 34.0155C80.6412 29.0884 113.68 29.1026 142.677 33.2421C147.122 33.8739 151.472 34.6013 155.735 35.4224C165.661 37.3334 175.112 39.7492 184.179 42.6298C192.124 45.154 199.773 48.0389 207.19 51.251C212.524 53.5613 217.736 56.0455 222.851 58.6882C226.776 60.7157 230.646 62.8333 234.466 65.0463C237.455 66.7782 240.413 68.5691 243.348 70.4099C246.154 72.1685 248.939 73.9731 251.705 75.8277C253.893 77.294 256.069 78.79 258.237 80.3145C260.511 81.9138 262.776 83.5459 265.033 85.2072C267.165 86.776 269.29 88.3714 271.41 89.9927C273.172 91.3407 274.932 92.7046 276.689 94.0875C276.828 94.1976 276.968 94.3052 277.108 94.4158C277.804 93.9807 278.5 93.5482 279.197 93.1187C279.894 92.6891 280.592 92.2622 281.29 91.8378C281.987 91.4134 282.686 90.9921 283.385 90.5729C283.5 90.5045 283.615 90.4364 283.729 90.368C281.522 91.688 279.322 93.0558 277.124 94.4301C323.134 135.116 363.169 186.837 405.383 250.907C405.8 251.539 406.213 252.155 406.631 252.79C406.793 253.038 406.957 253.287 407.119 253.535C408.151 255.107 409.187 256.704 410.222 258.291C410.344 258.477 410.466 258.664 410.588 258.851C411.763 260.654 412.937 262.45 414.119 264.277C414.852 265.409 415.589 266.563 416.324 267.703C416.834 268.495 417.344 269.286 417.855 270.082C418.865 271.654 419.872 273.217 420.887 274.807C421.971 276.504 423.063 278.229 424.151 279.941C424.353 280.259 424.554 280.575 424.756 280.894C425.662 282.322 426.564 283.737 427.475 285.179C428.49 286.785 429.511 288.411 430.53 290.031C431.158 289.501 431.785 288.973 432.4 288.453C378.076 198.453 336.806 138.563 285.497 89.3389C284.998 89.6342 284.497 89.9131 283.998 90.2109C283.928 90.2531 283.857 90.2914 283.787 90.3336C283.783 90.3362 283.778 90.3392 283.773 90.3418C283.777 90.3392 283.782 90.3366 283.786 90.334C283.907 90.2617 284.029 90.1898 284.15 90.1175C284.227 90.071 284.305 90.025 284.383 89.9785C284.749 89.7603 285.115 89.5412 285.482 89.3243C285.464 89.3088 285.447 89.2946 285.429 89.2796C284.651 88.6142 283.879 87.9854 283.102 87.3299C281.501 85.9771 279.898 84.6171 278.302 83.3066C276.27 81.6388 274.243 80.0253 272.218 78.4255C270.089 76.744 267.962 75.1089 265.837 73.5018C263.403 71.6606 260.97 69.868 258.538 68.1236C255.558 65.9863 252.578 63.9036 249.596 61.9109C246.21 59.647 242.818 57.4899 239.42 55.4099C235.744 53.1611 232.059 51.016 228.358 48.9794C223.236 46.1612 218.084 43.5379 212.885 41.1204C205.457 37.6661 197.932 34.6206 190.269 31.9673C181.005 28.7604 171.526 26.1411 161.767 24.0704C160.139 23.7248 158.519 23.365 156.876 23.0504C123.006 16.5739 85.545 16.6681 41.1578 22.5481C41.1591 22.5447 41.1591 22.5421 41.1605 22.5387Z" fill="#D9CF43" fill-opacity="0.4"/>
<path d="M-5.39349 97.3369V108.175C18.3524 103.091 40.6776 99.8525 62.0924 98.5161C65.8223 98.2811 69.605 98.1159 73.2812 97.9941C88.987 97.475 104.228 97.9829 119.17 99.531C131.198 100.777 143.034 102.704 154.773 105.287C163.69 107.25 172.551 109.602 181.394 112.335C188.115 114.413 194.828 116.696 201.547 119.218C206.547 121.095 211.555 123.118 216.571 125.241C220.439 126.878 224.311 128.561 228.196 130.344C228.2 130.341 228.204 130.338 228.208 130.335C228.223 130.322 228.238 130.309 228.252 130.297C228.591 130.007 228.93 129.719 229.27 129.43C229.449 129.278 229.627 129.125 229.807 128.972C229.847 128.938 229.888 128.904 229.928 128.87C230.23 128.614 230.534 128.359 230.837 128.104C231.035 127.938 231.231 127.771 231.429 127.605C231.458 127.581 231.486 127.558 231.514 127.534C231.835 127.265 232.158 126.997 232.48 126.729C232.675 126.567 232.868 126.404 233.064 126.242C233.08 126.229 233.097 126.215 233.113 126.202C233.644 125.762 234.176 125.322 234.71 124.884C234.984 124.66 235.19 124.491 235.362 124.351C235.917 123.897 236.015 123.817 236.104 123.745H236.104C236.082 123.733 236.059 123.723 236.036 123.712C235.697 123.543 235.36 123.388 235.02 123.22C231.545 121.498 228.078 119.852 224.615 118.254C220.57 116.386 216.531 114.604 212.495 112.905C207.422 110.767 202.352 108.765 197.281 106.893C190.565 104.413 183.842 102.161 177.097 100.144C168.192 97.4815 159.244 95.2206 150.213 93.3648C138.591 90.9752 126.825 89.258 114.835 88.2014C101.384 87.0161 87.5675 86.6386 73.4127 87.1262C48.723 87.9763 22.118 91.4147 -5.39349 97.3369Z" fill="#D9CF43" fill-opacity="0.4"/>
<path d="M299.702 177.807C301.909 179.565 304.124 181.362 306.349 183.196C310.885 186.935 315.46 190.83 320.087 194.909C332.245 205.628 344.759 217.591 357.838 231.122C378.823 252.725 398.91 275.894 418.31 299.939C418.994 299.391 419.672 298.846 420.344 298.302C419.935 297.774 419.528 297.244 419.118 296.718C417.29 294.367 415.454 292.03 413.615 289.696C411.605 287.147 409.591 284.605 407.568 282.077C405.662 279.695 403.757 277.313 401.84 274.952C399.98 272.664 398.108 270.397 396.236 268.129C394.142 265.59 392.038 263.067 389.928 260.556C388.981 259.429 388.037 258.296 387.088 257.175C384.083 253.627 381.066 250.103 378.03 246.617C376.046 244.339 374.048 242.088 372.051 239.838C370.17 237.72 368.282 235.617 366.389 233.525C362.852 229.616 359.294 225.754 355.713 221.941C348.346 214.099 340.882 206.471 333.316 199.084C327.741 193.641 322.109 188.329 316.418 183.162C314.513 181.433 312.607 179.708 310.689 178.012C286.927 157 262.141 138.552 236.122 123.605C235.653 123.986 235.177 124.35 234.71 124.734C232.506 126.542 230.354 128.372 228.214 130.204C253.262 143.447 277.013 159.56 299.702 177.807Z" fill="#D9CF43" fill-opacity="0.4"/>
<path d="M439.534 43.8974C439.633 43.9026 439.731 43.9095 439.83 43.9146C439.798 43.9172 439.757 43.9198 439.758 43.922C440.08 47.5536 440.291 51.1646 440.612 54.767C440.738 56.1752 440.769 57.5826 440.895 58.987C442.618 78.1713 443.96 93.4334 445.28 106.476V31.998C444.4 20.0925 443.106 9.03396 441.878 -1.72111C441.636 -3.83519 441.422 -6.3831 441.173 -7.67429H432.409C433.952 2.22473 435.406 11.6938 436.794 22.2341C437.729 29.3351 438.64 36.3552 439.534 43.8974Z" fill="#D9CF43" fill-opacity="0.4"/>
<path d="M425.168 43.1119H425.175C434.515 104.228 440.044 139.462 444.732 166.962C444.928 168.1 445.281 169.189 445.281 170.332V142.392C441.761 116.566 438.681 87.506 432.521 43.7011V43.6801C432.521 43.6801 432.473 43.5213 432.286 43.3332C432.288 43.2764 432.431 43.1119 432.433 43.1119H432.373C432.324 43.1119 432.275 42.5611 432.227 42.2464C429.851 26.8733 427.422 12.8283 424.84 -0.690781C424.373 -3.1367 423.899 -6.38315 423.42 -7.67432H414.142C416.905 3.94627 419.519 15.2238 422.056 27.8154C423.103 33.0111 424.141 38.3776 425.168 43.1119Z" fill="#D9CF43" fill-opacity="0.4"/>
<path d="M394.759 46.9798C395.41 46.8649 396.062 46.7534 396.712 46.6445C396.997 46.5967 397.28 46.5515 397.565 46.5051C397.692 46.4844 397.818 46.4637 397.945 46.4431C398.034 46.4284 398.124 46.4138 398.214 46.3992C398.362 46.3751 398.511 46.3497 398.659 46.3264C399.308 46.2231 399.955 46.1228 400.602 46.026C400.633 46.0213 400.665 46.0196 400.697 46.0153C400.676 46.0183 400.654 46.0217 400.633 46.0247C400.41 46.0579 400.183 46.1031 399.96 46.1375C399.903 46.1461 399.846 46.1573 399.789 46.1659C399.686 46.1818 399.58 46.2025 399.476 46.2184C399.349 46.2382 399.22 46.2627 399.092 46.2825C397.656 46.5085 396.213 46.7529 394.767 47.0073C396.548 52.8972 398.29 58.7958 400.017 64.6986C403.047 74.9083 405.974 84.7716 408.799 94.291C411.013 101.749 413.165 108.999 415.258 116.049C417.26 122.789 419.205 129.341 421.099 135.719C422.801 141.449 424.461 147.036 426.08 152.483C427.712 157.972 429.302 163.322 430.852 168.533C432.609 174.441 434.276 180.174 435.931 185.736C439.258 196.913 442.641 207.37 445.281 217.232V207.802C434.721 168.189 421.032 116.027 402.507 45.7682C402.501 45.7691 402.513 45.9847 402.507 45.9856C396.405 26.0111 390.261 8.68045 383.841 -7.67444H372.998C380.445 8.68045 387.609 26.6209 394.738 47.2057C394.745 47.2255 394.752 46.96 394.759 46.9798Z" fill="#D9CF43" fill-opacity="0.4"/>
<path d="M301.089 4.14384C305.252 8.5489 309.363 13.0362 313.444 17.9181C317.221 22.4372 320.97 27.1152 324.7 32.0561C328.35 36.8928 331.985 41.9099 335.61 47.1628C338.652 51.5718 341.691 56.0827 344.728 60.7925C344.802 60.7649 344.876 60.7318 344.95 60.7047C345.003 60.6845 345.057 60.6621 345.111 60.6423C345.688 60.4288 346.266 60.2149 346.843 60.0057C347.547 59.7501 348.251 59.4961 348.956 59.2465C349.66 58.9965 350.364 58.749 351.067 58.5049C351.319 58.4171 351.57 58.3319 351.822 58.2454C351.978 58.1916 352.134 58.1378 352.291 58.084C352.306 58.0789 352.322 58.0737 352.338 58.0681C352.406 58.0444 352.475 58.0208 352.544 57.9971C352.755 57.9252 352.966 57.8516 353.177 57.7797C353.165 57.7604 353.154 57.7423 353.142 57.7229C349.381 51.3458 345.628 45.2626 341.872 39.4153C337.67 32.8729 333.461 26.6654 329.23 20.7609C324.791 14.5679 320.324 8.99393 315.809 3.47243C312.549 -0.513859 309.259 -4.66155 305.938 -7.67429H288.869C292.994 -4.66155 297.066 -0.114025 301.089 4.14384Z" fill="#D9CF43" fill-opacity="0.4"/>
<path d="M275.482 11.4863C279.641 14.9935 283.762 18.6914 287.854 22.5831C291.472 26.0249 295.071 29.604 298.652 33.354C301.554 36.3939 304.446 39.553 307.331 42.799C309.738 45.5057 312.142 48.2736 314.542 51.1262C316.861 53.8816 319.178 56.6873 321.496 59.5813C323.468 62.0444 325.441 64.5601 327.415 67.1248C327.521 67.2625 327.627 67.392 327.733 67.5298C327.747 67.5478 327.761 67.5651 327.774 67.5831C327.911 67.5242 328.048 67.4665 328.184 67.408C328.755 67.1618 329.325 66.9169 329.896 66.6746C330.603 66.3746 331.31 66.0772 332.017 65.7824C332.724 65.488 333.431 65.1962 334.137 64.907C334.35 64.82 334.563 64.7352 334.776 64.6483C335.27 64.4473 335.763 64.2463 336.257 64.0483C336.244 64.0298 336.231 64.0122 336.218 63.9937C333.241 59.7771 330.266 55.7267 327.289 51.7662C324.606 48.1961 321.921 44.6936 319.23 41.3275C316.255 37.605 313.269 34.0405 310.275 30.5625C306.94 26.6877 303.589 22.9553 300.218 19.3771C296.248 15.1622 292.247 11.1523 288.207 7.33813C282.512 1.95995 276.736 -2.7494 270.851 -7.35847C270.589 -7.56333 270.324 -7.67437 270.061 -7.67437H248.511C252.123 -6.38319 255.694 -3.33344 259.226 -0.832863C264.725 3.05961 270.136 6.97876 275.482 11.4863Z" fill="#D9CF43" fill-opacity="0.4"/>
<path d="M351.741 58.2801C351.658 58.309 351.575 58.3339 351.492 58.3628C350.886 58.5724 350.277 58.7988 349.671 59.0122C349.298 59.1435 348.924 59.2851 348.551 59.4181C348.202 59.5429 347.851 59.6725 347.501 59.7986C346.581 60.13 345.622 60.4579 344.701 60.7992C384.049 128.845 414.92 200.29 445.28 271.771V265.381C417.12 195.351 388.668 125.223 353.149 57.8007C352.666 57.9646 352.224 58.1136 351.741 58.2801Z" fill="#D9CF43" fill-opacity="0.4"/>
<path d="M337.672 348.737C337.51 348.807 337.347 348.887 337.183 348.963C336.352 349.349 335.523 349.796 334.928 350.289C335.943 349.841 336.958 349.388 337.974 348.929C338.165 348.843 338.355 348.76 338.546 348.673C338.507 348.691 338.468 348.709 338.43 348.726C338.398 348.741 338.368 348.755 338.337 348.769C338.103 348.875 337.869 348.983 337.635 349.088C336.725 349.498 335.815 349.903 334.906 350.305C334.876 350.748 335.411 351.485 336.555 352.415C337.633 353.291 339.265 354.34 341.465 355.476C343.886 356.726 347.007 358.082 350.887 359.437C354.968 360.862 359.887 362.282 365.699 363.573C369.934 364.513 374.632 365.385 379.841 366.137C388.437 367.377 398.359 368.289 409.779 368.657C420.342 368.997 432.08 368.863 445.28 368.089V352.286C440 352.788 434.432 353.176 429.383 353.453C416.987 354.133 406.153 354.185 396.736 353.834C391.289 353.632 386.318 353.3 381.812 352.875C375.511 352.281 370.125 351.513 365.568 350.695C361.2 349.91 357.611 349.081 354.745 348.311C352.08 347.595 350.033 346.932 348.585 346.408C346.772 345.754 345.879 345.318 345.832 345.272C345.751 345.311 345.672 345.348 345.591 345.386C345.491 345.435 345.39 345.482 345.29 345.53C345.102 345.62 344.914 345.709 344.726 345.798C344.821 345.753 344.916 345.705 345.012 345.66C345.294 345.525 345.577 345.385 345.859 345.249C345.93 345.17 346.023 345.101 346.117 345.032L338.714 348.306C338.39 348.433 338.035 348.578 337.672 348.737Z" fill="#D9CF43" fill-opacity="0.4"/>
<path d="M401.01 312.859C400.901 312.936 400.793 313.018 400.684 313.095C401.155 312.765 401.627 312.434 402.098 312.102C402.046 312.131 401.994 312.158 401.942 312.187C401.633 312.413 401.323 312.64 401.01 312.859Z" fill="#D9CF43" fill-opacity="0.4"/>
<path d="M-5.3931 181.507V191.688C27.3301 183.404 58.6313 179.141 89.6738 178.635C117.992 178.173 146.162 180.807 175.101 186.368C175.465 185.883 175.843 185.398 176.212 184.914C176.262 184.848 176.316 184.782 176.366 184.716C176.409 184.661 176.453 184.606 176.495 184.551C176.77 184.189 177.051 183.828 177.328 183.468C177.516 183.224 177.702 182.98 177.891 182.736C178.359 182.133 178.831 181.529 179.305 180.926C179.499 180.679 179.696 180.432 179.892 180.185C179.439 180.756 179.018 181.333 178.57 181.905C177.425 183.375 176.287 184.845 175.179 186.319C175.166 186.337 175.152 186.355 175.139 186.372C263.186 207.924 336.928 256.683 400.169 313.345C400.765 313.002 401.357 312.663 401.942 312.337C402.16 312.177 402.379 312.019 402.599 311.863C340.08 253.622 267.319 202.937 180.753 179.122C180.53 179.401 180.293 179.679 180.072 179.958C180.294 179.678 180.514 179.398 180.737 179.118C166.944 176.086 153.33 173.737 139.784 172.083C111.252 168.597 83.0227 168.239 54.105 171.154C34.7138 173.109 14.9287 176.526 -5.3931 181.507Z" fill="#D9CF43" fill-opacity="0.4"/>
<path d="M399.85 313.375C399.935 313.375 400.02 313.408 400.104 313.349C400.122 313.336 400.141 313.475 400.159 313.462C400.218 313.422 400.277 313.384 400.335 313.343C400.28 313.294 400.225 313.245 400.169 313.195C400.063 313.257 399.96 313.313 399.852 313.375H399.85Z" fill="#D9CF43" fill-opacity="0.4"/>
<path d="M328.368 352.408C328.833 352.214 329.279 352.037 329.689 351.877L329.461 351.957C329.138 352.079 328.796 352.212 328.48 352.329C328.444 352.343 328.406 352.38 328.368 352.408Z" fill="#D9CF43" fill-opacity="0.4"/>
<path d="M-5.39328 232.138C48.9802 216.138 101.321 211.149 155.686 215.76C156.035 215.144 156.431 214.527 156.787 213.911C157.143 213.295 157.525 212.679 157.888 212.063C158.251 211.448 158.628 210.832 158.998 210.216C159.156 209.954 159.323 209.691 159.481 209.429C158.201 211.541 156.984 213.652 155.788 215.763C193.697 220.812 229.201 230.927 262.404 244.539C269.447 247.377 276.616 250.475 283.91 253.85C307.196 264.623 331.78 278.269 357.822 295.746C368.682 303.034 379.799 311 391.177 319.686C391.301 319.604 391.425 319.516 391.551 319.434C391.645 319.371 391.738 319.305 391.833 319.243C392.365 318.89 392.892 318.522 393.424 318.167C379.99 307.557 365.61 296.971 350.337 286.753C320.067 266.501 286.288 247.717 249.395 233.132C221.38 222.057 191.577 213.397 160.148 208.374C159.959 208.683 159.752 208.992 159.565 209.3C159.545 209.333 159.525 209.366 159.505 209.399C159.524 209.367 159.544 209.335 159.563 209.304C159.751 208.993 159.938 208.682 160.129 208.371V208.371C160.104 208.368 159.992 208.366 159.967 208.363C103.556 202.207 50.6588 206.067 -5.39328 221.763V232.138Z" fill="#D9CF43" fill-opacity="0.4"/>
<path d="M407.47 34.6719C407.665 35.3786 407.859 36.0909 408.053 36.8014C408.277 37.6188 408.501 38.4296 408.724 39.2538C409.219 41.0778 409.712 42.9173 410.205 44.7762C410.205 44.7805 410.207 44.7848 410.208 44.7895C410.842 44.7224 411.474 44.6578 412.104 44.5967C412.736 44.5352 413.366 44.4766 413.995 44.4215C414.138 44.4086 414.28 44.3979 414.422 44.3858C414.448 44.3832 414.473 44.3815 414.499 44.3793C414.561 44.3738 414.623 44.369 414.685 44.3639C414.811 44.3531 414.937 44.3819 415.063 44.4013C414.935 44.4056 414.806 44.4078 414.679 44.4185C413.207 44.5433 411.73 44.6656 410.245 44.8235C410.234 44.8244 410.185 44.8184 410.175 44.8197C426.162 115.46 437.36 164.103 445.28 199.386V188.109C439.56 157.693 431.033 114.127 417.76 45.2638H417.736C414.055 28.4785 410.332 13.5964 406.395 -0.536346C405.726 -2.93492 405.052 -6.38324 404.37 -7.67441H394.372C398.572 3.94617 402.543 17.3167 406.409 31.1547C406.763 32.4158 407.117 33.394 407.47 34.6719Z" fill="#D9CF43" fill-opacity="0.4"/>
<path d="M445.052 277.053C412.46 204.53 379.374 132.213 336.269 64.0677C336.098 64.1366 335.926 64.2007 335.755 64.27C335.595 64.3341 335.436 64.3931 335.276 64.4581C335.042 64.5528 334.809 64.6384 334.575 64.734C332.314 65.655 330.051 66.6238 327.787 67.6021C352.958 104.083 375.14 145.336 383.51 161.381C384.593 163.458 385.66 165.541 386.738 167.62C387.622 169.3 388.519 171.007 389.432 172.749C390.429 174.652 391.437 176.58 392.471 178.562C393.304 180.159 394.122 181.761 394.95 183.36C396.778 186.887 398.604 190.417 400.412 193.953C401.545 196.171 402.667 198.394 403.792 200.616C405.084 203.162 406.378 205.707 407.661 208.258C409.03 210.984 410.39 213.714 411.75 216.444C412.425 217.797 413.106 219.149 413.779 220.504C416.069 225.117 418.347 229.737 420.615 234.361C423.381 239.998 426.132 245.641 428.871 251.288C429.76 253.121 430.645 254.955 431.531 256.788C433.591 261.047 435.647 265.307 437.698 269.57C439.287 272.875 440.877 276.179 442.463 279.485C442.412 279.532 442.362 279.578 442.311 279.626C441.998 279.916 441.686 280.205 441.379 280.489L441.279 280.546C442.635 279.308 443.961 278.071 445.281 276.826V276.765L445.073 276.996C445.053 277.015 445.072 277.034 445.052 277.053Z" fill="#D9CF43" fill-opacity="0.4"/>
<path d="M429.716 290.761C429.727 290.752 429.737 290.743 429.747 290.734L429.551 290.895L428.786 291.521L425.367 294.323L424.399 295.117C425.138 294.514 425.878 293.914 426.614 293.306C426.857 293.105 427.104 292.909 427.347 292.707C427.709 292.406 428.077 292.117 428.438 291.815C428.738 291.564 429.046 291.326 429.345 291.074C428.948 291.408 428.551 291.745 428.153 292.078C427.635 292.51 427.116 292.938 426.596 293.367C426.448 293.49 426.299 293.614 426.15 293.737C425.982 293.876 425.814 294.017 425.646 294.155C424.807 294.844 423.966 295.529 423.124 296.21C422.281 296.892 421.436 297.57 420.588 298.243C425.141 294.98 429.529 292.054 434.945 288.892C437.241 287.551 439.681 286.169 442.439 284.699C443.362 284.208 444.401 283.702 445.281 283.189V279.517C440.441 282.884 435.475 286.236 430.606 289.979C430.298 290.241 430.025 290.5 429.716 290.761Z" fill="#D9CF43" fill-opacity="0.4"/>
<path d="M30.4726 133.459C18.7008 135.145 7.26788 137.391 -5.39355 140.163V150.635C3.72501 148.585 12.081 146.814 20.7389 145.348C33.4892 143.182 45.9936 141.669 58.2657 140.736C78.3675 139.209 97.9638 139.326 117.349 141.043C132.468 142.382 147.492 144.686 162.555 147.953C174.729 150.594 186.942 153.834 199.276 157.71C199.302 157.718 199.331 157.725 199.356 157.733C199.735 157.333 200.118 156.934 200.5 156.535C200.676 156.35 200.851 156.165 201.029 155.98C201.588 155.397 202.15 154.815 202.716 154.233C203.215 153.719 203.718 153.206 204.222 152.694C204.261 152.654 204.299 152.614 204.339 152.575C204.366 152.546 204.394 152.518 204.422 152.49C204.601 152.307 204.783 152.126 204.963 151.944C204.907 152.001 204.855 152.057 204.799 152.114C204.602 152.313 204.417 152.515 204.221 152.714C204.068 152.87 203.922 153.028 203.769 153.183C202.851 154.12 201.955 155.062 201.053 156.003C200.646 156.427 200.231 156.85 199.827 157.275C199.679 157.431 199.526 157.585 199.378 157.741C235.549 171.259 269.114 189.687 300.594 211.567C302.221 212.688 303.851 213.826 305.486 214.979C305.904 215.277 306.325 215.569 306.743 215.868C314.313 221.244 321.978 226.979 329.767 233.133C337.542 239.275 345.44 245.836 353.482 252.844C364.472 262.42 375.735 272.852 387.333 284.245C391.54 288.378 395.787 292.626 400.086 297.02C400.087 297.02 400.087 297.02 400.088 297.021C403.22 300.222 406.379 303.499 409.562 306.843C409.733 306.717 409.907 306.598 410.078 306.471C409.291 307.056 408.503 307.639 407.713 308.217C407.504 308.37 407.294 308.52 407.085 308.672C407.068 308.685 407.051 308.697 407.034 308.709C406.877 308.824 406.719 308.938 406.561 309.053C406.075 309.406 405.589 309.761 405.102 310.112C404.231 310.739 403.357 311.363 402.481 311.983C402.354 312.073 402.226 312.162 402.098 312.252C406.914 309.577 411.565 307.411 418.643 304.667C418.722 304.636 418.802 304.681 418.882 304.65C425.185 302.214 433.422 299.372 445.357 295.361V288.633C426.981 296.315 419.106 300.495 410.327 306.288C410.356 306.267 410.385 306.244 410.414 306.222C410.748 305.973 411.076 305.708 411.41 305.458C411.569 305.338 411.727 305.212 411.887 305.092C354.124 241.713 287.186 183.946 206.164 150.76C206.069 150.855 205.97 150.95 205.875 151.045C205.728 151.192 205.574 151.338 205.427 151.485C205.293 151.621 205.152 151.753 205.018 151.888C205.393 151.51 205.767 151.13 206.145 150.752C199.048 148.292 191.994 146.062 184.961 144.023C171.964 140.255 159.043 137.216 146.096 134.905C131.264 132.258 116.392 130.559 101.317 129.853C83.0398 128.996 64.4507 129.601 45.2791 131.648C40.4078 132.168 35.4252 132.749 30.4726 133.459Z" fill="#D9CF43" fill-opacity="0.4"/>
<path d="M326.984 363.109C326.449 362.521 325.826 361.809 325.265 361.045C325.188 360.936 325.109 360.827 325.038 360.719C324.959 360.606 324.878 360.493 324.803 360.378C324.344 359.632 324.021 358.916 323.824 358.236C323.55 356.93 323.864 355.575 324.801 354.523C324.817 354.484 324.827 354.441 324.849 354.407C325.034 354.117 325.525 353.787 326.138 353.452C326.224 353.402 326.311 353.355 326.399 353.31C326.752 353.127 327.132 352.946 327.531 352.768L327.422 352.779L327.302 352.767C312.726 350.636 297.58 349.004 281.644 348.795C278.923 348.759 276.176 348.755 273.408 348.805C246.038 349.299 216.321 354.178 183.21 367.629C183.829 367.861 184.449 368.09 185.076 368.311C185.039 368.298 185 368.285 184.962 368.272C184.369 368.062 183.779 367.848 183.193 367.629C183.176 367.638 183.16 367.646 183.143 367.654C174.214 371.991 165.701 376.74 157.617 381.877C147.953 388.019 138.938 394.744 130.523 401.952C122.251 409.038 114.569 416.598 107.546 424.633C99.4585 433.886 92.2192 443.743 85.8475 454.14C84.5112 456.319 83.1979 458.512 81.939 460.739C67.1946 486.816 58.2155 515.438 54.4641 544.583C50.2766 577.119 52.5985 610.92 51.6565 643.66C50.7549 674.98 48.353 707.637 50.1939 739.056H95.7999C94.1429 730.878 92.6579 723.704 91.3603 715.819C90.6466 711.623 89.9857 707.255 89.3851 702.974C84.6938 669.531 82.5497 635.782 80.4263 602.137C78.4058 570.116 74.9254 538.77 81.7419 506.998C85.0234 491.705 90.1226 476.742 97.0385 462.506C97.314 461.939 97.6193 461.38 97.9005 460.816C103.06 450.454 109.161 440.574 116.162 431.246C122.146 423.275 128.791 415.71 136.077 408.594C143.393 401.448 151.347 394.752 159.936 388.562C168.37 382.484 177.419 376.901 187.041 371.832C188.164 371.241 189.258 370.625 190.423 370.033C190.018 369.915 189.618 369.79 189.216 369.668C189.622 369.791 190.035 369.905 190.443 370.025C197.201 367.18 203.866 364.71 210.442 362.564C214.021 361.373 217.859 360.19 221.966 359.053C233.649 355.822 247.501 353.012 263.696 351.669C264.149 351.63 264.603 351.587 265.055 351.55C265.654 351.504 266.263 351.465 266.868 351.423C285.069 350.095 302.416 350.926 318.883 353.049C320.651 353.269 322.454 353.525 324.243 353.788L322.39 354.438C284.211 349.543 242.619 352.573 198.073 371.976C198.326 372.032 198.576 372.091 198.829 372.145C198.99 372.18 199.148 372.218 199.309 372.252C199.067 372.201 198.825 372.15 198.583 372.098C198.501 372.081 198.418 372.064 198.335 372.046C198.241 372.025 198.145 372.006 198.008 372.009C194.986 373.621 192.036 375.293 189.146 377.012C180.308 382.268 172.09 388.007 164.517 394.189C156.915 400.396 149.965 407.049 143.673 414.092C137.328 421.192 131.66 428.692 126.682 436.54C121.975 443.961 117.877 451.688 114.422 459.69C101.035 490.695 97.1657 525.745 103.65 562.358C104.865 580.287 120.796 650.149 124.768 669.193C124.906 669.871 125.044 670.55 125.185 671.225C125.244 671.52 125.3 671.802 125.368 672.063C126.627 678.031 127.981 683.887 129.455 689.591C133.014 703.362 137.194 716.593 141.908 728.7C143.248 732.144 144.643 735.612 146.069 739.056H206.911C205.999 737.334 205.084 736.484 204.186 735.293C198.631 728.205 193.442 720.631 188.639 712.816C181.441 701.104 175.085 688.521 169.588 675.204C160.951 654.28 135.222 573.185 129.709 554.073C120.178 521.037 120.706 488.74 130.666 459.693C132.91 453.116 135.648 446.707 138.85 440.494C142.824 432.784 147.527 425.375 152.951 418.326C158.288 411.39 164.315 404.798 171.03 398.608C177.586 392.564 184.799 386.907 192.643 381.674C196.928 378.814 201.393 376.076 206.058 373.481C205.702 373.426 205.35 373.366 204.996 373.308C204.872 373.288 204.747 373.268 204.623 373.248C204.423 373.215 204.221 373.184 204.021 373.15C203.861 373.123 203.702 373.092 203.542 373.064C203.794 373.108 204.051 373.145 204.304 373.187C204.687 373.252 205.073 373.311 205.458 373.373C205.664 373.406 205.87 373.441 206.077 373.472C216 369.009 225.854 365.415 235.62 362.584C243.442 360.276 251.771 358.294 260.67 356.814C275.239 354.391 291.343 353.321 309.262 354.383C312.855 354.581 316.426 354.859 319.973 355.212C318.923 355.541 318.049 355.841 317.475 356.075C316.372 356.524 314.478 357.456 313.182 359.021C313.17 359.036 313.162 359.053 313.151 359.069C312.716 359.613 312.355 360.23 312.131 360.931C311.868 361.609 311.695 362.323 311.612 363.067C311.407 364.913 311.774 366.944 312.75 369.091C313.811 371.428 315.589 373.894 318.146 376.399C320.926 379.123 324.625 381.887 329.298 384.568C332.943 386.66 337.18 388.7 342.048 390.629C349.064 393.41 357.382 395.96 367.094 398.101C372.167 399.22 377.578 400.227 383.424 401.096C400.558 403.643 421.081 404.998 445.281 404.546V385.638C437.361 385.973 429.156 386.088 421.791 385.987C409.388 385.829 398.329 385.098 388.478 383.956C377.829 382.721 368.629 381.004 360.774 378.997C355.684 377.695 351.169 376.273 347.186 374.783C341.87 372.795 337.51 370.686 334.053 368.584C330.996 366.723 328.677 364.872 326.984 363.109Z" fill="#D9CF43" fill-opacity="0.4"/>
<path d="M133.299 308.681V308.686C133.299 308.69 133.201 308.694 133.182 308.699C132.22 308.906 131.232 309.125 130.274 309.339C109.221 314.025 88.931 320.02 69.2802 327.447C43.4685 337.203 18.6432 349.448 -5.3931 364.412V376.543C10.8856 365.707 25.5468 356.663 40.4135 349.081C62.4382 337.849 83.4059 329.777 103.066 323.664C113.924 320.287 124.421 317.503 134.478 315.119C134.349 314.59 134.235 314.059 134.115 313.526C134.083 313.384 134.06 313.24 134.029 313.098C134.012 313.02 133.998 312.941 133.982 312.863C133.956 312.744 133.932 312.625 133.906 312.506C133.896 312.455 133.883 312.405 133.873 312.354C133.869 312.334 133.865 312.315 133.861 312.295C133.856 312.273 133.853 312.249 133.848 312.226C133.827 312.125 133.804 312.024 133.783 311.922C133.674 311.385 133.573 310.847 133.475 310.307C133.412 309.964 133.299 309.619 133.299 309.274V309.264C133.299 309.316 133.315 309.373 133.323 309.419C133.483 310.35 133.654 311.275 133.844 312.193C133.845 312.201 133.846 312.209 133.848 312.217C133.88 312.365 133.914 312.522 133.943 312.653C133.948 312.68 133.954 312.706 133.96 312.733C134.003 312.932 134.053 313.128 134.097 313.326C134.115 313.407 134.134 313.488 134.152 313.568C134.269 314.086 134.382 314.604 134.508 315.117C220.359 298.79 296.383 314.771 357.391 339.606C357.764 339.41 358.138 339.218 358.511 339.02C358.843 338.845 359.175 338.676 359.507 338.499C359.548 338.478 359.588 338.458 359.628 338.436C359.581 338.462 359.534 338.487 359.487 338.512C359.458 338.528 359.429 338.543 359.4 338.558C359.324 338.598 359.249 338.637 359.173 338.678C358.369 339.104 357.564 339.529 356.759 339.948H356.759C357.738 339.988 358.718 340.025 359.702 340.062C359.958 340.071 360.216 340.08 360.473 340.089C363.186 340.188 365.918 340.278 368.677 340.354C372.872 340.47 377.126 340.556 381.454 340.599C387.218 340.656 393.117 340.636 399.181 340.515C404.231 340.413 409.395 340.242 414.7 339.98C424.401 339.5 434.602 338.698 445.357 337.521V324.702C423.358 328.164 403.172 330.324 384.004 331.931C383.355 331.986 382.754 332.037 382.168 332.087C382.059 332.096 381.949 332.105 381.842 332.114C380.165 332.259 378.76 332.386 377.533 332.502C377.032 332.55 376.535 332.598 376.062 332.646C375.938 332.658 375.803 332.672 375.684 332.684C374.978 332.757 374.307 332.831 373.67 332.907C373.619 332.913 373.562 332.92 373.512 332.926C373.115 332.974 372.762 333.023 372.395 333.073C372.377 333.075 372.357 333.077 372.339 333.08C370.322 333.364 369.252 333.635 367.654 334.043C367.28 334.254 366.905 334.461 366.53 334.67C366.329 334.782 366.129 334.894 365.929 335.005C365.597 335.19 365.266 335.376 364.935 335.56C364.028 336.06 363.121 336.557 362.212 337.049C361.441 337.468 360.669 337.881 359.896 338.292C298.307 311.89 221.165 293.899 133.299 308.681Z" fill="#D9CF43" fill-opacity="0.4"/>
<path d="M-5.39305 321.673V331.682C0.338394 328.818 5.84192 326.075 11.5874 323.487C42.185 309.703 73.605 299.682 106.318 293.006C114.832 291.268 123.436 289.749 132.15 288.458C132.178 287.88 132.211 287.301 132.249 286.721C132.271 286.386 131.877 286.05 131.902 285.714C131.911 285.599 131.506 285.485 131.506 285.37V285.359C131.506 285.231 131.945 285.104 131.956 284.977C131.97 284.801 132.198 284.624 132.213 284.449C132.248 284.041 132.387 283.634 132.426 283.226C132.442 283.065 132.513 282.904 132.529 282.744C132.539 282.651 132.575 282.558 132.584 282.466C132.592 282.391 132.613 282.317 132.62 282.243C132.625 282.203 132.634 282.163 132.638 282.123C132.646 282.051 132.657 281.978 132.665 281.905C132.681 281.76 132.696 281.615 132.712 281.469C108.959 284.493 85.6949 289.249 62.9139 295.841C39.8306 302.52 17.0289 311.111 -5.39305 321.673Z" fill="#D9CF43" fill-opacity="0.4"/>
<path d="M131.506 295.382C107.439 299.525 84.2827 305.352 61.7072 313.016C38.7357 320.815 16.8206 330.564 -5.39325 342.349V353.286C4.04782 347.897 13.1409 342.884 22.633 338.271C48.3321 325.779 74.8817 316.06 102.509 308.84C112.312 306.279 122.26 304.027 132.373 302.081C132.325 301.525 132.282 300.967 132.244 300.408C132.225 300.141 132.212 299.873 132.196 299.605C132.191 299.522 132.186 299.439 132.181 299.355C132.196 299.587 132.216 299.816 132.231 300.047C132.255 300.406 132.283 300.763 132.31 301.121C132.334 301.44 132.352 301.762 132.38 302.08C221.841 288.958 300.222 309.003 362.284 336.973C363.098 336.531 363.645 336.074 364.458 335.626C302.028 306.096 222.971 283.976 131.506 295.334V295.382Z" fill="#D9CF43" fill-opacity="0.4"/>
<path d="M247.964 323.082C234.532 322.251 220.757 322.175 206.686 322.985C185.586 324.198 163.825 327.398 141.54 333.113C141.567 333.163 141.592 333.215 141.619 333.265C141.67 333.352 141.716 333.434 141.762 333.515C141.782 333.549 141.804 333.587 141.823 333.62C141.989 333.916 142.169 334.206 142.339 334.5C142.36 334.536 142.382 334.572 142.403 334.609C142.57 334.894 142.735 335.181 142.906 335.465C142.961 335.556 143.012 335.649 143.067 335.74C143.133 335.847 143.191 335.957 143.257 336.064C143.307 336.142 143.352 336.212 143.398 336.285C143.414 336.311 143.431 336.338 143.447 336.363C143.449 336.366 143.452 336.369 143.453 336.372C143.681 336.737 143.924 337.094 144.158 337.456C144.174 337.479 144.189 337.503 144.204 337.526C144.435 337.881 144.659 338.24 144.897 338.591C144.923 338.63 144.947 338.67 144.973 338.708C167.345 332.461 189.223 328.862 210.449 327.356C211 327.314 211.549 327.27 212.104 327.23C212.278 327.219 212.451 327.207 212.624 327.196C216.686 326.909 220.868 326.684 225.184 326.546C243.263 325.964 263.556 326.817 285.855 330.115C304.861 332.927 325.33 337.528 347.15 344.554C347.285 344.494 347.416 344.434 347.548 344.375C347.631 344.347 347.719 344.316 347.795 344.29C347.76 344.298 347.722 344.315 347.686 344.325C347.656 344.333 347.624 344.345 347.594 344.354C347.85 344.238 348.117 344.119 348.367 344.004C348.432 343.975 348.503 343.943 348.568 343.914C348.8 343.808 349.022 343.705 349.249 343.601C337.218 339.498 324.654 335.805 311.614 332.69C291.468 327.877 270.185 324.457 247.964 323.082Z" fill="#D9CF43" fill-opacity="0.4"/>
<path d="M79.2213 340.552C59.5524 348.836 38.4201 359.619 16.3725 374.018C9.16313 378.726 2.10245 383.828 -5.39296 389.35V402.096C48.7763 358.247 98.7172 338.761 138.569 327.43C138.477 327.22 138.476 327.007 138.386 326.796C138.336 326.677 138.285 326.558 138.234 326.439C138.164 326.271 138.09 326.104 138.021 325.936C137.886 325.607 137.756 325.275 137.626 324.944C137.601 324.883 137.574 324.824 137.55 324.762C137.54 324.736 137.531 324.708 137.521 324.682C137.488 324.597 137.453 324.514 137.42 324.429C137.32 324.169 137.225 323.908 137.128 323.647C137.085 323.533 137.042 323.418 136.999 323.303C136.951 323.172 136.9 323.041 136.852 322.908C136.733 322.579 136.62 322.248 136.506 321.916C136.485 321.857 136.461 321.798 136.441 321.738C136.431 321.709 136.423 321.68 136.412 321.65C136.381 321.558 136.348 321.467 136.317 321.375C134.918 321.74 133.502 322.119 132.078 322.504C115.977 326.859 98.2433 332.541 79.2213 340.552Z" fill="#D9CF43" fill-opacity="0.4"/>
<path d="M136.324 321.224C136.351 321.305 136.375 321.388 136.402 321.469C136.453 321.612 136.505 321.759 136.55 321.887C136.552 321.894 136.556 321.904 136.558 321.911C136.624 322.101 136.699 322.287 136.766 322.477C136.817 322.621 136.872 322.763 136.924 322.907C136.931 322.928 136.939 322.948 136.947 322.969C137.066 323.295 137.182 323.621 137.305 323.945C137.375 324.13 137.438 324.319 137.51 324.504C137.564 324.637 137.618 324.771 137.666 324.89C137.671 324.903 137.677 324.919 137.682 324.932C137.769 325.15 137.865 325.364 137.954 325.581C138.076 325.882 138.202 326.181 138.329 326.48C138.353 326.538 138.377 326.596 138.401 326.654C138.452 326.772 138.499 326.892 138.55 327.009C138.589 327.098 138.624 327.19 138.663 327.278C219.982 308.241 292.96 320.314 352.444 342.001C352.713 341.866 352.982 341.732 353.251 341.595C353.624 341.406 353.997 341.223 354.371 341.032C354.547 340.941 354.723 340.849 354.9 340.758C354.911 340.752 354.922 340.746 354.933 340.741C294.624 317.478 220.028 303.473 136.324 321.224Z" fill="#D9CF43" fill-opacity="0.4"/>
<path d="M102.069 255.432C65.5837 259.565 29.6353 267.926 -5.39355 281.076V291.43C41.8796 272.971 88.0101 262.835 136.863 259.967C137.031 259.362 137.291 258.755 137.467 258.148C137.554 257.848 137.646 257.548 137.735 257.248C137.464 258.157 137.21 259.063 136.958 259.967C230.87 258.706 310.308 288.612 376.931 328.608C376.956 328.593 376.982 328.578 377.008 328.563C377.285 328.397 377.564 328.236 377.842 328.069C378.33 327.775 378.822 327.497 379.309 327.201C312.743 285.543 233.255 253.585 139.174 252.669C139.111 252.861 139.042 253.055 138.98 253.247C138.941 253.367 138.902 253.486 138.864 253.606C138.631 254.327 138.413 255.046 138.192 255.765C138.108 256.036 138.02 256.309 137.938 256.58C137.904 256.692 137.866 256.806 137.833 256.919C137.892 256.721 137.949 256.523 138.01 256.324C138.011 256.319 138.013 256.314 138.014 256.309C138.015 256.306 138.017 256.302 138.018 256.297C138.2 255.698 138.386 255.098 138.576 254.498C138.67 254.2 138.768 253.902 138.864 253.604C138.902 253.486 138.941 253.367 138.979 253.249C139.042 253.055 139.102 252.862 139.166 252.669C139.139 252.67 139.111 252.671 139.084 252.672C126.613 253.136 114.235 254.053 102.069 255.432Z" fill="#D9CF43" fill-opacity="0.4"/>
<path d="M-5.39346 251.787C45.533 235.346 95.7691 228.727 147.98 230.562C148.272 229.946 148.611 229.329 148.911 228.712C149.168 228.181 149.452 227.651 149.715 227.121C149.758 227.034 149.81 226.948 149.853 226.861C150.16 226.245 150.476 225.628 150.79 225.01C150.939 224.718 151.094 224.425 151.244 224.133C150.139 226.281 149.095 228.424 148.08 230.563C236.823 237.849 312.447 272.572 376.289 315.92C376.846 316.296 377.405 316.675 377.964 317.054C378.155 317.184 378.346 317.315 378.536 317.446C381.111 319.197 383.699 320.988 386.3 322.81C386.529 322.665 386.758 322.522 386.987 322.375C387.523 322.032 388.063 321.701 388.598 321.354C386.108 319.525 383.598 317.709 381.07 315.905C317.078 270.219 241.078 232.747 151.766 223.162C151.628 223.427 151.473 223.694 151.336 223.96C151.474 223.693 151.523 223.427 151.662 223.16C98.3528 220.044 47.2367 225.838 -5.39346 241.98V251.787Z" fill="#D9CF43" fill-opacity="0.4"/>
<path d="M143.959 239.8C144.089 239.487 144.222 239.174 144.354 238.861C144.388 238.781 144.419 238.702 144.452 238.621C144.467 238.588 144.483 238.555 144.497 238.522C144.52 238.468 144.542 238.413 144.565 238.359C144.622 238.224 144.592 238.09 144.649 237.954C93.2985 237.45 43.8461 244.847 -5.39301 261.549V271.28C15.2399 263.941 36.209 258.24 57.0051 254.078C84.7748 248.52 112.881 245.69 141.765 245.328C141.997 244.715 142.234 244.101 142.473 243.487C142.592 243.183 142.714 242.879 142.835 242.576C142.47 243.494 142.119 244.412 141.772 245.328C235.816 248.465 315.221 282.464 381.642 325.76C382.415 325.283 383.18 324.783 383.95 324.299C380.714 322.103 377.447 319.93 374.15 317.779C309.977 275.934 233.977 243.082 144.749 237.955C144.721 238.022 144.688 238.09 144.66 238.156C144.618 238.254 144.57 238.352 144.529 238.449C144.519 238.472 144.508 238.495 144.498 238.519C144.449 238.635 144.401 238.751 144.352 238.866C143.89 239.963 143.44 241.058 143.003 242.152C143.071 241.983 143.136 241.814 143.205 241.644C143.452 241.03 143.704 240.415 143.959 239.8Z" fill="#D9CF43" fill-opacity="0.4"/>
<path d="M240.859 291.7C264.928 295.76 291.752 302.591 321.004 313.681C335.832 319.302 351.285 326.026 367.323 334.04C367.475 333.955 367.626 333.875 367.778 333.789C368.11 333.602 368.444 333.427 368.776 333.238C369.053 333.081 369.333 332.936 369.61 332.778C342.67 318.793 312.452 305.965 279.373 296.458C260.559 291.051 240.825 286.713 220.24 283.857C207.76 282.126 194.968 280.94 181.884 280.382C165.922 279.702 149.525 279.957 132.721 281.319C132.705 281.464 132.684 281.61 132.669 281.755C132.662 281.81 132.657 281.866 132.651 281.921C132.645 281.978 132.64 282.036 132.633 282.094C132.629 282.138 132.626 282.182 132.621 282.228C132.59 282.529 132.567 282.828 132.539 283.13C132.489 283.643 132.44 284.156 132.398 284.666C132.383 284.846 132.363 285.029 132.349 285.209C132.348 285.22 132.347 285.231 132.346 285.242C132.338 285.349 132.331 285.457 132.323 285.564C132.274 286.217 132.241 286.865 132.204 287.514C132.196 287.641 132.187 287.769 132.181 287.896C132.173 288.033 132.162 288.171 132.156 288.308C149.005 286.571 165.449 285.968 181.459 286.321C198.753 286.558 218.629 287.951 240.859 291.7Z" fill="#D9CF43" fill-opacity="0.4"/>
<path d="M135.113 267.306C135.077 267.466 135.036 267.627 135.001 267.787C135.044 267.594 135.084 267.402 135.127 267.209C135.1 267.211 135.073 267.214 135.046 267.217C113.625 268.989 92.5963 272.122 71.9479 276.702C45.8172 282.498 20.4068 290.661 -5.39349 301.305V311.218C-3.48611 310.342 -1.61169 309.481 0.372253 308.636C39.6986 291.902 79.6602 281.209 121.446 275.81C125.516 275.285 129.603 274.806 133.711 274.38C133.809 273.799 133.913 273.217 134.019 272.633C134.022 272.621 134.024 272.608 134.026 272.595C134.083 272.287 134.144 271.978 134.202 271.67C134.165 271.868 134.134 272.065 134.097 272.263C134.029 272.628 133.966 272.992 133.902 273.356C133.9 273.37 133.897 273.383 133.895 273.396C133.837 273.724 133.775 274.053 133.72 274.38C150.458 273.397 166.791 273.494 182.688 274.506C188.497 274.827 194.596 275.291 200.981 275.94C221.22 277.997 244.298 281.917 269.923 289.126C289.803 294.717 311.218 302.3 334.011 312.507C346.324 318.021 359.033 324.293 372.131 331.451C372.88 331.016 373.624 330.564 374.372 330.124C356.37 319.918 336.844 310.131 315.927 301.43C294.793 292.638 272.239 284.966 248.396 279.102C227.807 274.038 206.267 270.314 183.844 268.405C183.322 268.36 182.796 268.325 182.273 268.283C182.169 268.274 182.065 268.268 181.961 268.259C166.741 267.034 151.128 266.629 135.135 267.209C135.128 267.241 135.12 267.274 135.113 267.306Z" fill="#D9CF43" fill-opacity="0.4"/>
<path d="M308.64 358.388L308.303 358.426C308.254 358.438 308.201 358.45 308.152 358.463C308.315 358.437 308.475 358.413 308.64 358.388Z" fill="#D9CF43" fill-opacity="0.4"/>
<path d="M288.894 427.59C286.407 425.395 284.19 423.172 282.21 420.937C278.513 416.766 275.678 412.549 273.668 408.369C271.497 403.856 270.282 399.388 269.953 395.069C269.663 391.253 270.062 387.554 271.114 384.046C271.574 382.512 272.193 381.026 272.899 379.572C274.764 376.17 279.07 369.369 288.454 364.551C289.949 363.796 291.365 363.151 292.759 362.594C292.784 362.584 292.808 362.574 292.833 362.564C293.227 362.407 293.622 362.257 294.016 362.113C294.163 362.058 294.309 362.003 294.459 361.949C294.743 361.848 295.03 361.75 295.315 361.653C295.608 361.554 295.902 361.454 296.206 361.357C296.265 361.338 296.324 361.32 296.382 361.302C299.343 360.36 302.906 359.484 307.626 358.546C307.648 358.542 307.669 358.538 307.692 358.534C307.653 358.539 307.616 358.545 307.578 358.551C300.925 359.57 294.944 360.544 288.729 362.525C286.416 363.261 284.066 364.149 281.64 365.22C281.303 365.366 280.946 365.525 280.574 365.696C280.435 365.76 280.297 365.822 280.157 365.887C280.089 365.919 280.03 365.944 279.961 365.977C272.814 369.359 269.027 371.426 264.142 377.702C261.573 380.762 259.49 384.005 257.941 387.401C256.203 391.214 255.115 395.211 254.698 399.334C254.223 404.017 254.604 408.861 255.884 413.779C257.156 418.666 259.313 423.624 262.37 428.569C265.838 434.177 270.475 439.766 276.312 445.211C283.313 451.742 292.046 458.063 302.576 463.961C325.617 476.864 351.986 482.649 377.194 490.797C397.702 497.427 417.732 505.191 438.333 511.583C440.654 512.303 443.081 513.002 445.281 513.679V477.776C441.761 476.686 437.679 475.543 433.888 474.348C431.226 473.509 391.864 467.574 376.038 464.405C362.925 461.78 349.965 458.438 337.415 454.05C327.257 450.499 317.352 446.259 308.081 441.029C301.22 437.158 294.695 432.734 288.894 427.59Z" fill="#D9CF43" fill-opacity="0.4"/>
<path d="M301.118 685.128C278.431 668.767 199.16 563.839 182.539 535.362C176.973 525.819 172.743 516.36 169.755 507.06C165.788 494.717 163.986 482.655 164.113 471.054C164.115 470.89 164.124 470.727 164.126 470.564C164.296 436.296 181.075 404.553 214.228 380.989C216.68 379.287 225.771 373.163 236.56 368.517C262.369 358.489 288.628 355.467 313.955 356.503C314.144 356.359 314.337 356.239 314.569 356.239C314.597 356.239 314.629 356.54 314.657 356.532C314.725 356.508 314.723 356.645 314.796 356.62C314.796 356.62 316.23 356.262 316.23 356.302L316.658 356.217L317.53 355.965C285.579 353.598 255.644 358.028 227.025 369.145C223.275 370.431 219.386 372.034 215.582 373.994C215.2 374.169 214.82 374.33 214.438 374.508C214.478 374.511 214.52 374.516 214.552 374.526C214.51 374.522 214.468 374.519 214.426 374.515C213.751 374.911 213.099 375.32 212.433 375.722C212.265 375.82 212.093 375.909 211.933 376.024C206.917 379.074 202.16 382.283 197.689 385.653C190.939 390.739 184.808 396.174 179.315 401.918C173.441 408.06 168.3 414.557 163.879 421.343C159.336 428.321 155.562 435.607 152.572 443.147C150.971 447.184 149.582 451.289 148.431 455.461C140.277 484.986 144.082 516.214 155.812 544.469C160.904 556.736 218.013 670.544 236.646 692.858C243.68 701.282 251.072 709.008 258.773 715.899C265.66 722.061 272.79 727.869 280.12 732.754C283.349 734.906 286.626 737.334 289.929 739.056H437.746C440.133 737.334 442.476 736.046 444.848 734.56L445.281 733.985V716.772C445.281 719.41 411.586 720.869 408.164 720.88C395.637 720.919 383.137 719.575 370.95 716.912C345.402 711.329 321.719 699.984 301.118 685.128Z" fill="#D9CF43" fill-opacity="0.4"/>
<path d="M310.989 393.517C307.095 390.15 304.191 386.749 302.189 383.438C300.368 380.426 299.3 377.492 298.908 374.73C298.559 372.262 298.779 369.944 299.472 367.823C300.142 366.225 302.054 363.111 304.246 361.389C304.613 361.135 304.96 360.953 305.295 360.743C305.322 360.728 305.348 360.741 305.375 360.741H305.374C305.747 360.311 306.116 360.25 306.499 360.049C306.507 360.045 306.512 360.014 306.52 360.01C306.538 360.001 306.56 359.978 306.578 359.97C306.859 359.823 307.154 359.501 307.465 359.36C307.943 359.125 308.457 358.696 309.003 358.362C308.998 358.363 308.993 358.363 308.988 358.364C308.865 358.398 308.732 358.434 308.611 358.467C305.566 359.306 303.005 360.058 300.648 360.976C300.181 361.158 299.731 361.361 299.276 361.559C299.182 361.593 299.091 361.626 298.987 361.666C296.391 362.662 290.997 365.084 288.182 370.382C288.186 370.391 288.189 370.398 288.191 370.407C288.127 370.509 288.045 370.603 287.983 370.707C286.324 373.471 285.325 376.511 285.017 379.734C284.717 382.887 285.09 386.216 286.177 389.64C287.398 393.482 289.522 397.44 292.614 401.403C295.299 404.845 298.716 408.288 302.907 411.658C306.682 414.695 311.034 417.674 316.099 420.534C341.391 434.821 383.241 446.221 445.281 447.796V425.242C402.161 425.164 369.961 419.883 346.956 412.269C346.241 412.033 345.569 411.791 344.87 411.551C336.086 408.529 328.697 405.169 322.582 401.635C318.023 399 314.175 396.271 310.989 393.517Z" fill="#D9CF43" fill-opacity="0.4"/>
<path d="M225.664 500.386C223.739 497.913 221.904 495.382 220.173 492.79C210.99 479.024 204.737 463.305 203.59 447.112C203.493 445.789 203.44 444.399 203.411 443.087C203.262 436.154 204.064 429.342 205.769 422.809C207.341 416.787 209.673 410.953 212.745 405.417C215.436 400.567 218.69 395.923 222.48 391.548C224.273 389.478 226.222 387.482 228.252 385.535C232.555 381.706 240.739 375.277 247.95 371.481C267.368 362.05 286.294 358.695 302.909 357.962C305.585 357.833 308.352 357.761 311.217 357.754C311.181 357.763 311.14 357.775 311.105 357.784C311.084 357.79 311.066 357.794 311.046 357.8C310.935 357.83 310.835 357.858 310.73 357.887C310.775 357.882 310.819 357.886 310.864 357.869C311.087 357.789 311.321 357.996 311.563 357.915C311.607 357.9 311.652 358.159 311.696 358.159H312.543C312.687 358.159 312.828 357.412 312.981 357.365C313.132 357.318 313.29 357.127 313.451 356.987C313.231 357.078 313.011 357.14 312.787 357.2C312.619 357.246 312.452 357.362 312.287 357.406C294.072 356.927 277.446 359.018 261.379 363.661C253.663 365.891 246.074 368.49 238.5 371.82C238.387 371.867 238.283 371.903 238.167 371.952C237.754 372.126 237.367 372.315 236.966 372.497C236.639 372.645 236.313 372.79 235.986 372.941C235.909 372.978 235.825 373.011 235.748 373.049C227.322 377.286 213.833 389.53 208.913 394.626C205.868 398.016 203.067 401.566 200.551 405.206C196.558 410.98 193.244 417.133 190.673 423.503C187.953 430.242 186.065 437.304 185.066 444.561C184.694 447.268 184.437 450.016 184.317 452.78C183.321 475.712 191.403 498.136 204.448 517.486C217.978 537.556 288.619 613.558 310.426 631.122C317.104 636.501 324.084 641.706 331.353 646.394C364.689 667.891 404.674 681.501 445.394 681.615C445.372 668.112 445.349 654.644 445.327 641.141C445.327 640.927 426.101 637.215 424.302 636.761C417.229 634.979 410.241 632.918 403.365 630.574C389.607 625.883 376.294 620.248 363.607 613.471C341.028 601.412 243.733 523.593 225.664 500.386Z" fill="#D9CF43" fill-opacity="0.4"/>
<path d="M281.184 361.877C280.196 362.119 279.21 362.389 278.224 362.661C277.287 362.918 276.347 363.195 275.409 363.48C275.098 363.575 274.787 363.671 274.476 363.769C273.387 364.111 272.294 364.476 271.2 364.858C270.924 364.954 270.648 365.052 270.372 365.151C269.358 365.515 268.34 365.895 267.319 366.295C250.467 371.885 243.148 379.801 238.44 385.059C238.294 385.223 238.183 385.375 238.054 385.533C236.349 387.389 234.726 389.279 233.266 391.231C230.106 395.456 227.523 399.893 225.539 404.501C223.248 409.82 221.748 415.362 221.073 421.056C220.345 427.207 220.57 433.533 221.791 439.946C221.954 440.798 222.132 441.651 222.329 442.507C229.598 473.994 363.784 564.296 387.294 575.568C402.147 582.69 417.292 588.457 432.707 592.879C436.893 594.079 441.321 595.142 445.281 596.143V554.451C440.881 553.176 436.238 551.835 431.906 550.426C416.835 545.523 402.207 539.522 388.157 532.513C376.671 526.782 336.322 504.924 332.812 503.063C323.91 498.345 315.091 493.499 306.391 488.471C296.696 482.867 287.138 477.048 277.905 470.816C269.66 465.251 261.543 459.375 254.387 452.634C250.322 448.805 246.239 444.544 243.943 439.563C243.239 438.045 242.61 436.528 242.041 435.015C239.877 429.258 238.684 423.554 238.4 417.997C238.125 412.647 238.697 407.436 240.047 402.445C241.24 398.035 243.045 393.799 245.421 389.796C248.289 384.966 251.985 380.475 256.446 376.428C257.88 375.128 259.382 373.868 260.971 372.662C260.538 372.729 260.108 372.791 259.677 372.856C260.115 372.79 260.557 372.715 260.996 372.647C269.2 367.786 276.725 364.687 283.819 362.623C283.986 362.573 284.161 362.526 284.33 362.477C285.008 362.284 285.687 362.089 286.357 361.914C292.483 360.261 299.627 358.964 308.069 358.366C298.474 358.775 289.83 359.775 281.322 361.842C281.276 361.853 281.23 361.866 281.184 361.877Z" fill="#D9CF43" fill-opacity="0.4"/>
<path d="M308.216 358.436L308.133 358.445C308.129 358.446 308.125 358.447 308.121 358.448C307.975 358.477 307.836 358.505 307.691 358.533C307.769 358.522 307.846 358.51 307.924 358.498C308.022 358.477 308.117 358.457 308.216 358.436Z" fill="#D9CF43" fill-opacity="0.4"/>
<path d="M308.63 358.347C308.684 358.334 308.737 358.321 308.791 358.308C308.544 358.324 308.313 358.348 308.069 358.366C308.244 358.358 308.427 358.355 308.603 358.348L307.933 358.468L308.133 358.445C308.301 358.412 308.455 358.38 308.626 358.347C308.627 358.347 308.629 358.347 308.63 358.347Z" fill="#D9CF43" fill-opacity="0.4"/>
<path d="M109.38 360.953C95.3986 367.856 81.9478 375.615 69.0386 384.233C55.037 393.581 41.6808 403.954 28.9529 415.306C19.7864 423.482 10.8469 432.147 2.34698 441.355C-0.297424 444.22 -2.85559 447.126 -5.39307 450.063V470.148C-2.86438 466.659 -0.305328 463.206 2.37427 459.801C4.0379 457.687 5.81155 455.59 7.52359 453.509C8.18448 452.706 11.4928 447.666 12.4357 447.666C17.2304 442.074 22.1637 436.664 27.2351 431.44C38.72 419.609 50.9384 408.759 63.8335 398.827C75.7451 389.653 88.2499 381.285 101.354 373.743C114.085 366.416 127.371 359.857 141.218 354.082C145.277 352.388 149.369 350.74 153.523 349.181C153.428 349.085 153.335 348.987 153.24 348.891C153.096 348.746 152.954 348.599 152.812 348.452C152.766 348.406 152.721 348.36 152.676 348.313C152.702 348.34 152.728 348.366 152.754 348.392C153.011 348.657 153.275 348.916 153.536 349.177C222.028 327.114 286.556 332.12 341.294 347.298C342.243 346.883 343.158 346.482 344.024 346.099C287.731 329.248 220.674 322.502 148.951 344.201C135.317 349.06 122.132 354.657 109.38 360.953Z" fill="#D9CF43" fill-opacity="0.4"/>
<path d="M256.611 344.053C256.746 344.058 256.881 344.057 257.015 344.062C257.116 344.066 257.216 344.065 257.316 344.069C257.861 344.089 258.402 344.13 258.946 344.152C259.142 344.161 259.336 344.174 259.532 344.183C259.605 344.186 259.676 344.191 259.749 344.193C259.189 344.17 258.631 344.538 258.071 344.516C257.584 344.497 257.098 344.849 256.611 344.849H256.545C256.193 344.849 255.838 344.438 255.485 344.426C251.526 344.719 247.276 344.838 242.738 345.259C231.406 346.308 218.226 347.919 202.979 351.572C202.285 351.739 201.578 351.868 200.876 352.043C200.765 352.07 200.65 352.076 200.539 352.104C191.135 354.453 180.986 357.514 169.985 361.636C167.275 362.831 164.621 364.059 161.995 365.304C161.257 365.653 160.527 366.007 159.795 366.361C159.487 366.51 159.174 366.657 158.866 366.807C156.834 367.798 154.828 368.803 152.846 369.823C151.872 370.324 150.901 370.827 149.94 371.336C147.705 372.516 145.506 373.717 143.336 374.934C142.646 375.321 141.96 375.71 141.276 376.1C99.637 399.892 69.9357 430.323 48.813 462.592C48.7158 462.74 48.6203 462.888 48.5235 463.037C46.9545 465.443 45.422 467.858 43.9467 470.283C43.3276 471.301 42.7252 472.322 42.1219 473.343C41.5592 474.296 41.0039 475.249 40.4548 476.205C28.0551 497.77 19.1803 519.834 12.8681 541.023C7.57138 558.805 4.07474 575.964 1.8118 591.691C-0.480591 604.577 -2.85883 617.474 -5.39368 630.343V738.867H10.317C10.522 733.921 10.757 729.671 11.0584 725.069C11.9081 712.11 13.1585 698.854 14.8169 685.605C16.9504 676.167 26.6815 592.97 27.0458 584.606C30.6296 537.172 44.5006 494.431 67.6424 458.248C70.3057 454.075 73.1252 450.015 76.0314 446.02C83.566 435.663 91.9093 425.914 101.038 416.82C109.117 408.774 117.798 401.234 127.083 394.25C136.648 387.055 146.83 380.43 157.633 374.436C163.694 371.073 169.935 367.895 176.375 364.928C176.248 364.869 176.124 364.808 175.998 364.748C176.126 364.809 176.258 364.864 176.386 364.924C198.628 356.223 218.629 351.479 236.83 349.014C236.994 348.99 237.159 348.968 237.323 348.946C237.737 348.89 238.153 348.834 238.565 348.781C254.736 346.614 273.083 345.751 294.39 347.087C294.242 347.068 294.094 347.045 293.946 347.026C293.905 347.021 293.866 347.014 293.825 347.01C294.086 347.042 294.347 347.066 294.638 347.102C306.886 348.228 318.607 349.853 329.904 351.938C330.174 351.835 330.443 351.733 330.715 351.63C331.063 351.494 331.376 351.374 331.642 351.271C332.076 351.102 332.508 350.935 332.951 350.76C307.813 345.655 282.432 343.515 255.694 344.012C256 344.022 256.305 344.042 256.611 344.053Z" fill="#D9CF43" fill-opacity="0.4"/>
<path d="M174.616 348.756C176.202 348.522 177.779 348.326 179.361 348.109C178.771 348.19 178.178 348.283 177.588 348.367C176.513 348.518 175.436 348.676 174.359 348.835L158.553 353.754C158.603 353.796 158.65 353.84 158.7 353.881C158.649 353.839 158.597 353.798 158.547 353.756C149.585 357.321 140.991 361.176 132.732 365.279C119.94 371.635 107.974 378.606 96.7782 386.091C84.3543 394.396 72.8734 403.33 62.2769 412.768C50.0435 423.665 38.982 435.225 28.9764 447.243C28.0436 448.364 27.0272 449.486 26.1124 450.614C14.1902 465.322 3.67636 480.678 -5.3938 496.304V535.511C-3.65186 531.112 -1.83728 526.772 -0.00158691 522.497C7.65924 504.658 16.7083 487.896 26.8705 472.25C27.4086 471.417 27.9511 470.585 28.4994 469.754C29.2408 468.635 29.976 467.51 30.7302 466.403C32.3534 464.01 34.0302 461.628 35.7387 459.255C35.8936 459.041 36.0458 458.825 36.2007 458.612C59.8371 425.95 91.7014 395.411 134.639 372.026C135.319 371.655 136.002 371.288 136.686 370.921C138.963 369.703 141.266 368.503 143.604 367.325C144.539 366.854 145.48 366.391 146.421 365.929C148.489 364.914 150.581 363.915 152.697 362.932C153.75 362.444 154.805 361.959 155.865 361.482C158.555 360.267 161.27 359.071 164.037 357.911C164.019 357.898 164.001 357.884 163.982 357.871C164.001 357.884 164.019 357.898 164.038 357.911C170.734 355.497 177.085 353.523 183.097 351.856C190.162 349.761 196.901 348.035 205.048 346.428C208.23 345.8 211.631 345.189 215.351 344.582C213.541 344.688 211.732 344.793 209.918 344.921C209.96 344.918 210.002 344.915 210.043 344.912C211.938 344.779 213.835 344.629 215.725 344.519C256.983 339.104 296.166 340.597 335.731 349.654C336.176 349.474 336.624 349.292 337.073 349.108C337.397 348.975 337.716 348.849 338.042 348.714C338.142 348.67 338.239 348.628 338.339 348.585C319.564 343.809 299.686 340.3 278.948 338.737C261.652 337.433 243.76 337.491 225.415 339.292C208.815 340.922 191.85 343.965 174.616 348.756Z" fill="#D9CF43" fill-opacity="0.4"/>
<path d="M138.452 334.262C122.916 339.185 107.847 345.009 93.2288 351.732C76.4203 359.463 60.2098 368.393 44.5797 378.538C27.2428 389.791 10.555 402.558 -5.39284 416.828V431.983C7.40369 419.147 20.8606 407.409 34.8394 396.752C48.9524 385.993 63.6898 376.354 79.0467 367.784C92.8116 360.103 107.074 353.28 121.863 347.334C129.425 344.294 137.11 341.459 144.945 338.867C144.953 338.864 144.961 338.861 144.969 338.859C144.912 338.776 144.859 338.691 144.802 338.607C144.779 338.572 144.755 338.536 144.732 338.5C144.699 338.451 144.666 338.401 144.633 338.352C144.44 338.063 144.246 337.775 144.058 337.484C143.829 337.13 143.607 336.773 143.384 336.415C143.353 336.365 143.319 336.316 143.288 336.265C143.28 336.252 143.273 336.24 143.266 336.228C143.238 336.183 143.209 336.138 143.181 336.093C143.097 335.956 143.017 335.817 142.934 335.68C142.911 335.641 142.888 335.602 142.865 335.564C142.825 335.498 142.786 335.432 142.746 335.366C142.611 335.139 142.473 334.914 142.34 334.687C142.14 334.343 141.947 333.998 141.754 333.652C141.721 333.593 141.685 333.535 141.652 333.475C141.644 333.461 141.637 333.446 141.629 333.431C141.598 333.376 141.565 333.32 141.534 333.265C141.511 333.271 141.489 333.28 141.466 333.286C140.454 333.598 139.46 333.943 138.452 334.262Z" fill="#D9CF43" fill-opacity="0.4"/>
</g>
</g>
<defs>
<filter id="filter0_f_367_10" x="-10" y="-10" width="460" height="751.667" filterUnits="userSpaceOnUse" color-interpolation-filters="sRGB">
<feFlood flood-opacity="0" result="BackgroundImageFix"/>
<feBlend mode="normal" in="SourceGraphic" in2="BackgroundImageFix" result="shape"/>
<feGaussianBlur stdDeviation="5" result="effect1_foregroundBlur_367_10"/>
</filter>
<linearGradient id="paint0_linear_367_10" x1="116" y1="17" x2="440" y2="1109.5" gradientUnits="userSpaceOnUse">
<stop offset="0.18" stop-color="#021F37"/>
<stop offset="0.550769" stop-color="#0565B3" stop-opacity="0.6"/>
<stop offset="1" stop-color="#CFD30B" stop-opacity="0.2"/>
</linearGradient>
</defs>
</svg>
