<svg width="440" height="186" viewBox="0 0 440 186" fill="none" xmlns="http://www.w3.org/2000/svg">
<path d="M1 0H441V181.5H1V0Z" fill="url(#paint0_linear_313_286)"/>
<mask id="mask0_313_286" style="mask-type:alpha" maskUnits="userSpaceOnUse" x="0" y="3" width="441" height="183">
<rect y="3" width="441" height="182.414" fill="#D9D9D9"/>
</mask>
<g mask="url(#mask0_313_286)">
<g filter="url(#filter0_f_313_286)">
<mask id="mask1_313_286" style="mask-type:luminance" maskUnits="userSpaceOnUse" x="-12" y="3" width="442" height="725">
<path d="M-11.0249 727.309L-11.0249 2.99994H429.975L429.975 727.309H-11.0249Z" fill="white"/>
</mask>
<g mask="url(#mask1_313_286)">
<path d="M176.176 -4.47717C186.016 -1.70392 195.509 1.55972 204.751 5.58902C212.507 8.97028 220.086 12.7243 227.525 17.028C232.921 20.1498 238.242 23.5093 243.514 27.1317C247.435 29.8257 251.331 32.6258 255.201 35.6027C258.461 38.1105 261.705 40.7291 264.938 43.441C267.476 45.57 270.009 47.7506 272.536 50.0075C275.338 52.5098 278.136 55.0649 280.929 57.7265C283.116 59.8091 285.3 61.9394 287.484 64.1204C289.632 66.2652 291.779 68.4544 293.928 70.6959C295.946 72.8006 297.965 74.9582 299.986 77.149C300.154 77.3306 300.321 77.5014 300.489 77.6838C300.868 77.4989 301.246 77.3165 301.625 77.1333C301.718 77.0881 301.811 77.043 301.904 76.9978C301.981 76.9607 302.057 76.9237 302.133 76.887C302.293 76.8099 302.453 76.7315 302.613 76.6548C303.321 76.3144 304.029 75.9765 304.737 75.6421C305.446 75.3067 306.154 74.9744 306.862 74.6451C306.94 74.6093 307.017 74.5739 307.094 74.5386C306.336 74.8901 305.58 75.2701 304.822 75.628C304.288 75.8802 303.754 76.141 303.22 76.3962C303.023 76.4904 302.826 76.5854 302.628 76.68C301.92 77.0204 301.211 77.354 300.502 77.7C336.038 120.706 342.311 128.307 427.548 284.044C427.986 283.675 428.437 283.295 428.866 282.933C428.95 282.859 429.956 281.944 430.04 281.869C340.376 111.532 334.589 107.332 309.002 73.6817C308.817 73.7665 308.632 73.8458 308.447 73.9306C307.999 74.1364 307.551 74.3264 307.102 74.5343C307.731 74.2424 308.36 73.9519 308.988 73.6643C307.823 72.2898 306.66 70.9694 305.496 69.626C303.502 67.3253 301.508 65.0701 299.516 62.8601C297.254 60.3515 294.992 57.8995 292.729 55.5067C290.119 52.7467 287.507 50.0493 284.891 47.4413C282.026 44.5867 279.155 41.8194 276.277 39.1441C272.613 35.7382 268.934 32.4711 265.235 29.3519C261.357 26.0827 257.452 22.9848 253.52 20.0245C248.366 16.1435 243.162 12.5053 237.882 9.142C230.598 4.50089 223.168 0.647125 215.562 -3.04303C214.271 -3.66934 212.973 -4.59729 211.672 -4.59729H174.667C175.167 -4.59729 175.676 -4.61819 176.176 -4.47717Z" fill="#D9CF43" fill-opacity="0.4"/>
<path d="M335.538 30.0894C340.841 38.6554 346.112 47.7596 351.392 57.5007C352.093 57.2868 352.795 57.0763 353.495 56.8688C354.196 56.6609 354.896 56.4559 355.596 56.254C356.267 56.0606 356.936 55.8701 357.606 55.6818C356.377 56.0273 355.136 56.4163 353.902 56.7806C353.27 56.9668 352.639 57.1513 352.006 57.3426C351.805 57.4035 351.565 57.4606 351.364 57.5215C383.202 123.328 409.248 191.219 435.267 258.908V251.521C411.453 185.708 387.922 119.616 359.759 55.1002C359.498 55.1714 359.258 55.2353 358.998 55.3073C358.867 55.3431 358.748 55.3746 358.618 55.4108C358.492 55.4453 358.372 55.4751 358.247 55.5101C358.043 55.5667 357.844 55.6145 357.64 55.6716C357.657 55.6669 357.675 55.6622 357.692 55.6571C358.045 55.5578 358.397 55.4619 358.749 55.3648C358.783 55.3554 358.816 55.346 358.849 55.3367C359.162 55.2506 359.475 55.1624 359.788 55.0772C352.199 39.6447 344.616 25.9464 336.887 13.2761C332.987 6.88425 329.044 0.089386 325.049 -4.59732H310.931C314.459 0.089386 317.95 4.16125 321.406 9.01839C326.163 15.7046 330.864 22.5395 335.538 30.0894Z" fill="#D9CF43" fill-opacity="0.4"/>
<path d="M402.023 267.19C400.703 265.269 399.38 263.357 398.058 261.449C396.742 259.551 395.426 257.652 394.107 255.768C392.959 254.126 391.808 252.5 390.658 250.87C389.52 249.258 388.383 247.643 387.244 246.042C386.047 244.36 384.847 242.692 383.648 241.022C382.214 239.027 380.782 237.027 379.346 235.05C378.151 233.406 376.952 231.785 375.755 230.154C374.519 228.469 373.284 226.774 372.044 225.103C370.777 223.395 369.503 221.714 368.233 220.02C366.68 217.951 365.127 215.884 363.568 213.837C361.92 211.672 360.268 209.521 358.613 207.382C356.586 204.763 354.552 202.172 352.515 199.594C343.611 188.321 334.606 177.45 325.475 167.029C322.761 163.931 320.034 160.876 317.296 157.86C298.316 136.951 278.767 118.021 258.383 101.626C257.521 102.187 256.659 102.745 255.799 103.315C253.891 104.579 251.99 105.871 250.093 107.174C311.969 152.946 365.965 220.056 416.597 293.18C417.246 292.647 417.879 292.122 418.515 291.597C414.148 285.033 409.774 278.534 405.389 272.108C404.268 270.465 403.146 268.824 402.023 267.19Z" fill="#D9CF43" fill-opacity="0.4"/>
<path d="M-16.4305 66.6729C26.7937 57.8636 64.7033 54.2817 99.537 56.1939C100.112 56.225 100.719 56.277 101.293 56.311C113.758 57.055 125.846 58.5091 137.614 60.6739C147.113 62.4217 156.427 64.6427 165.587 67.3295C172.771 69.4364 179.878 71.8172 186.91 74.5082C192.326 76.5806 197.708 78.8268 203.06 81.2486C207.433 83.2276 211.79 85.3341 216.133 87.5479C219.34 89.1819 222.543 90.8619 225.74 92.6245C228.663 94.2367 231.584 95.9035 234.504 97.6235C236.666 98.8983 238.828 100.212 240.99 101.546C243.265 102.95 245.541 104.397 247.817 105.867C248.55 106.341 249.283 106.791 250.016 107.271C250.036 107.284 250.056 107.296 250.076 107.309C250.764 106.836 251.453 106.366 252.143 105.898C252.833 105.43 253.523 104.965 254.214 104.503C254.392 104.383 254.571 104.266 254.749 104.147C255.262 103.805 255.775 103.463 256.289 103.123C256.981 102.666 257.673 102.212 258.367 101.76C257.326 101.017 256.284 100.281 255.242 99.5497C253.315 98.1978 251.385 96.8681 249.451 95.555C247.448 94.195 245.44 92.8567 243.427 91.5397C241.496 90.2773 239.56 89.0332 237.617 87.8117C234.716 85.9877 231.8 84.211 228.865 82.4829C225.886 80.7292 222.886 79.0279 219.862 77.3769C215.794 75.1559 211.682 73.026 207.511 70.9996C202.169 68.4049 196.731 65.9784 191.177 63.7233C183.974 60.7984 176.573 58.1674 168.92 55.856C159.88 53.1266 150.49 50.8412 140.658 49.0411C133.823 47.7893 126.692 46.7681 119.401 45.9982C81.9504 42.0439 37.3137 44.6624 -16.4305 55.5744V66.6729Z" fill="#D9CF43" fill-opacity="0.4"/>
<path d="M48.5627 0.153961C38.7178 1.24469 1.15295 4.9689 -16.4306 5.26587V18.2451C-13.886 18.0857 -11.341 17.9272 -8.79645 17.7687C-0.30014 17.2404 8.17456 16.4684 16.6404 15.6039C44.4076 12.7685 72.0816 8.9343 100.107 9.4068C100.139 9.40723 100.17 9.40765 100.202 9.40851C119.893 9.74808 139.582 11.7621 158.698 16.1425C168.392 18.3571 177.766 21.1598 186.927 24.5138C194.409 27.2534 201.744 30.3819 208.971 33.9085C214.428 36.5714 219.831 39.4512 225.188 42.5746C229.303 44.9742 233.395 47.5246 237.472 50.2016C240.888 52.4452 244.297 54.7571 247.698 57.198C250.486 59.2001 253.271 61.2788 256.055 63.4151C258.462 65.2621 260.869 67.1619 263.277 69.1107C265.245 70.7038 267.214 72.3143 269.185 73.976C271.086 75.578 272.99 77.2349 274.895 78.9008C276.418 80.2336 277.945 81.5987 279.473 82.9727C280.827 84.1913 282.18 85.389 283.538 86.6403C284.242 86.2522 284.947 85.8661 285.651 85.4835C286.353 85.1026 287.054 84.7239 287.78 84.3353C288.481 83.9599 289.182 83.5876 289.883 83.2177C289.962 83.176 290.041 83.1355 290.12 83.0937C288.692 83.8457 287.266 84.6404 285.84 85.4149C285.275 85.7213 284.71 86.0234 284.146 86.3331C284.104 86.3561 284.063 86.3779 283.979 86.4239C283.919 86.4563 283.86 86.4878 283.801 86.5202C283.718 86.5657 283.635 86.6092 283.552 86.6548C331.061 135.483 363.779 184.082 424.178 287.026C424.757 286.54 425.346 286.047 425.911 285.571C396.17 232.955 375.409 197.179 358.276 169.958C349.157 155.47 341.062 143.401 333.186 132.504C329.865 127.909 326.581 123.516 323.277 119.243C323.079 118.987 322.881 118.734 322.683 118.479C313.155 106.208 303.417 94.8352 292.014 82.1249C291.801 82.2352 291.589 82.3396 291.376 82.4504C291.001 82.6464 290.624 82.8287 290.249 83.026C290.833 82.7188 291.417 82.412 292.002 82.1087C290.54 80.6494 289.085 79.2464 287.628 77.8284C285.754 76.0045 283.883 74.2163 282.015 72.4596C280.219 70.7715 278.424 69.1031 276.632 67.4764C274.817 65.8296 273.003 64.1914 271.191 62.6073C268.81 60.5264 266.429 58.5052 264.048 56.5316C261.461 54.3873 258.872 52.32 256.28 50.3013C252.97 47.7236 249.653 45.258 246.327 42.8818C242.347 40.0391 238.35 37.3391 234.331 34.7802C228.828 31.2775 223.28 28.0331 217.665 25.0515C210.344 21.1636 202.906 17.7052 195.306 14.6759C186.041 10.9832 176.522 7.92838 166.679 5.4606C165.635 5.19901 164.603 4.91568 163.552 4.66727C130.514 -3.13312 93.6328 -4.30823 49.6162 0.0734253C49.2643 0.101135 48.9207 0.114349 48.5627 0.153961Z" fill="#D9CF43" fill-opacity="0.4"/>
<path d="M368.112 52.976C392.697 115.81 413.658 179.797 435.267 243.451V234.494C415.863 173.333 397.511 111.815 376.389 51.1005C376.284 51.1222 376.198 51.1414 376.092 51.1635C375.856 51.213 375.632 51.2543 375.396 51.3046C375.326 51.319 375.262 51.331 375.193 51.3459C375.162 51.3523 375.134 51.3578 375.103 51.3642C375.038 51.3783 374.975 51.3889 374.91 51.403C374.499 51.4907 374.089 51.5798 373.678 51.6697C373.622 51.6816 373.566 51.6965 373.51 51.7089C373.393 51.7345 373.275 51.7651 373.158 51.7907C373.071 51.8099 372.984 51.8324 372.897 51.8516C371.53 52.155 370.156 52.4805 368.783 52.8085C369.259 52.6782 369.736 52.5414 370.211 52.4306C370.735 52.3088 371.258 52.1963 371.781 52.0779C371.872 52.057 371.964 52.0387 372.055 52.0182C372.132 52.0007 372.208 51.9841 372.285 51.9667C372.976 51.812 373.665 51.6607 374.354 51.5116C375.043 51.3629 375.732 51.2172 376.419 51.0745C376.411 51.0549 376.404 51.0361 376.396 51.0165C370.363 35.7864 364.289 22.1588 358.072 9.39134C355.669 4.45837 353.244 0.0890808 350.79 -4.59763H338.332C348.565 11.5928 358.356 31.1147 368.115 53.1929C368.12 53.1916 368.107 52.9773 368.112 52.976Z" fill="#D9CF43" fill-opacity="0.4"/>
<path d="M4.42473 158.055C3.1004 158.298 1.6998 158.517 0.370178 158.773C-5.21906 159.852 -10.6967 161.068 -16.4306 162.387V172.542C-13.8075 171.924 -11.1915 171.329 -8.61609 170.766C1.6041 168.529 11.7387 166.697 21.6674 165.226C45.0382 161.764 67.7135 160.422 90.1953 161.086C114.495 161.803 138.58 164.872 163.079 170.199C167.363 171.131 171.656 172.107 175.969 173.176C175.997 173.182 176.024 173.188 176.05 173.195C176.557 172.604 177.066 172.014 177.579 171.424C178.091 170.834 178.607 170.245 179.125 169.657C179.379 169.37 179.635 169.083 179.89 168.796C179.963 168.714 180.036 168.632 180.109 168.549C180.303 168.331 180.495 168.113 180.69 167.894C180.87 167.693 181.053 167.492 181.234 167.291C181.272 167.247 181.312 167.204 181.35 167.161C181.658 166.82 181.964 166.477 182.273 166.136C164.439 161.19 146.881 157.475 129.347 154.973C108.097 151.94 86.8781 150.727 65.2541 151.401C45.4399 152.017 25.2726 154.223 4.42473 158.055Z" fill="#D9CF43" fill-opacity="0.4"/>
<path d="M180.723 167.726C180.538 167.933 180.363 168.142 180.178 168.35C179.202 169.446 178.249 170.547 177.296 171.647C177.09 171.884 176.879 172.12 176.675 172.357C176.475 172.589 176.266 172.82 176.067 173.052C209.106 183.058 240.148 197.043 269.395 213.865C301.911 232.362 337.228 257.398 376.574 292.91C380.78 296.707 385.036 300.633 389.336 304.674C391.164 306.393 393.002 308.134 394.848 309.898C395.448 309.472 396.048 309.048 396.646 308.618C396.835 308.483 397.024 308.351 397.213 308.215C384.843 295.968 371.639 283.606 357.663 271.463C356.825 270.734 355.988 270.004 355.143 269.277C343.928 259.62 332.215 250.121 320.035 240.943C304.78 229.449 288.793 218.461 272.105 208.325C266.802 205.103 261.423 201.975 255.981 198.936C232.641 185.9 208.044 174.629 182.292 165.994C181.983 166.334 181.658 166.671 181.352 167.011C181.312 167.055 181.272 167.1 181.232 167.144C181.058 167.337 180.896 167.533 180.723 167.726Z" fill="#D9CF43" fill-opacity="0.4"/>
<path d="M-16.4303 88.53C16.2773 81.6883 46.5066 78.149 74.7244 77.9866C83.7918 77.9291 92.7529 78.2354 101.483 78.8737C113.573 79.7574 125.373 81.315 136.974 83.5408C146.181 85.3068 155.267 87.4866 164.27 90.103C171.122 92.094 177.928 94.3441 184.708 96.8302C189.774 98.6874 194.828 100.662 199.874 102.797C203.986 104.536 208.096 106.397 212.205 108.321C215.476 109.852 218.748 111.44 222.021 113.089C224.954 114.566 227.889 116.089 230.827 117.659C231.762 118.159 232.695 118.635 233.63 119.144C233.651 119.156 233.672 119.166 233.693 119.177C234.369 118.661 235.046 118.148 235.725 117.637C236.369 117.152 237.014 116.67 237.659 116.19C237.673 116.179 237.688 116.169 237.701 116.158C237.722 116.143 237.741 116.128 237.762 116.113C238.354 115.673 238.947 115.236 239.54 114.8C239.628 114.736 239.715 114.67 239.803 114.606C239.958 114.492 240.113 114.38 240.268 114.267C240.18 114.331 240.093 114.4 240.005 114.464C239.747 114.653 239.493 114.852 239.235 115.042C238.198 115.806 237.169 116.592 236.136 117.368C235.922 117.528 235.708 117.688 235.494 117.849C235.098 118.148 234.701 118.441 234.306 118.741C234.224 118.804 234.141 118.864 234.059 118.927C234.011 118.963 233.962 118.998 233.914 119.035C233.846 119.087 233.778 119.137 233.71 119.188C258.611 134.67 282.316 153.362 305.139 174.537C305.419 174.794 305.699 175.054 305.979 175.312C309.259 178.331 312.538 181.416 315.821 184.58C323.862 192.33 331.929 200.539 340.099 209.285C343.724 213.165 347.37 217.154 351.042 221.255C354.037 224.6 357.049 228.016 360.083 231.517C362.394 234.182 364.717 236.893 367.054 239.654C368.815 241.732 370.585 243.845 372.362 245.979C374.104 248.071 375.855 250.191 377.614 252.338C379.788 254.989 381.975 257.684 384.177 260.422C385.558 262.14 386.946 263.875 388.34 265.627C390.177 267.938 392.025 270.277 393.885 272.649C395.665 274.92 397.455 277.215 399.257 279.544C401.031 281.837 402.82 284.167 404.617 286.517C406.42 288.877 408.235 291.265 410.063 293.685C410.833 294.705 411.606 295.73 412.381 296.761C413.11 296.172 413.824 295.591 414.538 295.009C407.37 285.101 400.065 275.233 392.618 265.463C391.962 264.602 391.301 263.746 390.643 262.887C388.927 260.647 387.21 258.408 385.48 256.18C383.798 254.015 382.106 251.859 380.41 249.706C378.56 247.357 376.697 245.021 374.829 242.689C372.821 240.18 370.805 237.681 368.778 235.194C366.535 232.443 364.284 229.701 362.017 226.98C359.299 223.716 356.562 220.477 353.81 217.26C351.059 214.044 348.29 210.856 345.504 207.694C335.956 196.853 326.205 186.351 316.257 176.271C292.592 152.288 267.805 130.74 241.867 113.126C241.637 113.292 241.406 113.451 241.177 113.618C240.899 113.819 240.619 114.01 240.342 114.212C240.844 113.845 241.346 113.478 241.849 113.114C241.126 112.683 240.405 112.281 239.682 111.855C237.145 110.362 234.609 108.901 232.075 107.483C229.17 105.857 226.264 104.285 223.36 102.758C219.878 100.928 216.395 99.1786 212.91 97.4906C208.564 95.3858 204.214 93.3663 199.853 91.4814C194.866 89.3259 189.862 87.3196 184.838 85.45C177.962 82.8915 171.038 80.6146 164.055 78.5887C154.963 75.9513 145.756 73.7669 136.396 72.0256C124.748 69.8586 112.851 68.3827 100.619 67.5898C96.1751 67.3018 91.6138 67.0734 87.075 66.9652C55.4955 66.2141 21.5067 69.8352 -16.4303 77.6637V88.53Z" fill="#D9CF43" fill-opacity="0.4"/>
<path d="M40.3032 111.924C22.0797 113.539 3.63358 116.469 -16.4301 120.712V131.279C-0.0765381 127.798 14.7441 125.183 29.7403 123.455C46.385 121.529 62.5984 120.69 78.4038 120.898C93.6946 121.099 108.681 122.309 123.531 124.485C136.043 126.318 148.463 128.849 160.884 132.07C169.676 134.35 178.475 136.974 187.309 139.944C192.417 141.66 197.534 143.462 202.675 145.408C202.956 145.144 203.241 144.88 203.524 144.616C203.607 144.538 203.69 144.461 203.773 144.384C204.013 144.161 204.25 143.938 204.49 143.716C204.646 143.571 204.804 143.427 204.96 143.283C205.414 142.864 205.866 142.446 206.323 142.029C206.937 141.468 207.554 140.907 208.173 140.348C208.346 140.192 208.521 140.037 208.694 139.881C208.504 140.052 208.323 140.227 208.133 140.399C207.683 140.805 207.252 141.216 206.806 141.623C206.252 142.128 205.709 142.635 205.161 143.141C204.861 143.417 204.561 143.693 204.263 143.969C203.742 144.453 203.21 144.933 202.693 145.417C233.092 158.845 261.581 175.949 288.409 195.6C292.316 198.436 296.247 201.376 300.206 204.423C318.364 218.4 337.13 234.677 356.998 254.08C358.32 255.371 359.646 256.673 360.977 257.992C375.831 272.641 390.131 287.865 403.926 303.41C404.62 302.887 405.312 302.362 406.004 301.834C406.061 301.789 406.12 301.741 406.177 301.696C388.945 281.414 371.103 261.802 352.491 243.289C347.543 238.368 342.55 233.513 337.49 228.756C334.269 225.729 331.024 222.738 327.756 219.783C317.924 210.894 307.861 202.362 297.566 194.205C293.468 190.959 289.33 187.778 285.154 184.66C261.486 166.989 236.553 151.422 210.06 138.682C209.857 138.863 209.645 139.042 209.442 139.224C209.298 139.352 209.147 139.479 209.003 139.607C208.942 139.662 208.879 139.716 208.817 139.77C208.987 139.618 209.157 139.466 209.327 139.313C209.428 139.223 209.529 139.132 209.63 139.041C209.768 138.919 209.904 138.796 210.041 138.672C210.017 138.663 209.994 138.654 209.97 138.644C205.966 136.988 201.976 135.432 197.993 133.921C191.175 131.336 184.379 128.968 177.594 126.808C168.76 123.996 159.937 121.544 151.092 119.455C139.078 116.618 127.015 114.446 114.815 112.949C99.8968 111.119 84.7701 110.275 69.2575 110.461C59.7901 110.574 50.096 111.056 40.3032 111.924Z" fill="#D9CF43" fill-opacity="0.4"/>
<path d="M30.229 25.3119C23.6264 26.1261 -2.72427 29.6761 -16.4305 31.5278V44.337C-16.3661 44.3242 -16.3084 44.3122 -16.2436 44.2999C-16.2312 44.299 -16.2197 44.2982 -16.2074 44.2973C-16.2052 44.2952 -16.203 44.2935 -16.2008 44.2914C-16.1514 44.282 -16.1064 44.2726 -16.0565 44.2632L-16.0879 44.2909C-14.2449 43.9258 -12.451 43.5986 -10.6314 43.2518C1.92831 40.9868 19.731 38.208 30.6978 36.6734C69.7995 31.7958 102.913 31.8098 131.976 35.9077C136.432 36.5332 140.792 37.2532 145.064 38.0661C155.013 39.9579 164.485 42.3494 173.573 45.201C181.536 47.6999 189.202 50.5558 196.636 53.7355C201.982 56.0226 207.205 58.4819 212.333 61.0979C216.266 63.1051 220.146 65.2013 223.974 67.3922C226.97 69.1066 229.934 70.8795 232.876 72.7018C235.689 74.4426 238.48 76.2291 241.252 78.065C243.445 79.5166 245.626 80.9976 247.799 82.5068C250.078 84.09 252.348 85.7057 254.61 87.3503C256.747 88.9033 258.877 90.4827 261.002 92.0877C262.768 93.4221 264.531 94.7723 266.292 96.1412C266.433 96.2503 266.572 96.3568 266.713 96.4663C267.41 96.0356 268.108 95.6074 268.807 95.1822C269.505 94.757 270.204 94.3343 270.904 93.9142C271.603 93.4941 272.303 93.077 273.004 92.662C273.119 92.5943 273.234 92.5269 273.349 92.4592C271.137 93.7659 268.932 95.12 266.729 96.4804C312.844 136.757 352.969 187.958 395.279 251.384C395.697 252.009 396.111 252.62 396.53 253.248C396.693 253.493 396.857 253.74 397.02 253.986C398.053 255.542 399.092 257.123 400.129 258.693C400.251 258.878 400.374 259.063 400.496 259.248C401.674 261.033 402.851 262.811 404.035 264.619C404.769 265.74 405.509 266.882 406.245 268.011C406.756 268.795 407.267 269.578 407.78 270.366C408.792 271.922 409.802 273.47 410.819 275.043C411.905 276.723 412.999 278.431 414.09 280.126C414.292 280.441 414.494 280.754 414.697 281.069C415.605 282.483 416.509 283.883 417.422 285.311C418.439 286.901 419.462 288.511 420.483 290.114C421.113 289.59 421.741 289.067 422.357 288.552C367.91 199.457 326.546 140.17 275.121 91.4405C274.621 91.7328 274.118 92.0089 273.618 92.3037C273.548 92.3454 273.478 92.3833 273.407 92.4251C273.403 92.4277 273.398 92.4306 273.393 92.4332C273.397 92.4306 273.402 92.4281 273.406 92.4255C273.527 92.354 273.649 92.2828 273.771 92.2112C273.848 92.1652 273.927 92.1196 274.004 92.0736C274.371 91.8576 274.738 91.6407 275.106 91.426C275.088 91.4107 275.07 91.3966 275.053 91.3817C274.273 90.723 273.499 90.1005 272.721 89.4516C271.116 88.1125 269.509 86.7661 267.91 85.4688C265.873 83.8178 263.842 82.2205 261.811 80.6368C259.677 78.9721 257.546 77.3535 255.416 75.7626C252.976 73.9399 250.538 72.1653 248.101 70.4385C245.114 68.3227 242.127 66.2609 239.139 64.2883C235.745 62.0472 232.345 59.9117 228.939 57.8526C225.255 55.6264 221.561 53.5029 217.852 51.4868C212.719 48.6969 207.554 46.1 202.344 43.7068C194.899 40.2872 187.357 37.2724 179.676 34.6457C170.391 31.4711 160.891 28.8781 151.109 26.8283C149.478 26.4862 147.855 26.13 146.207 25.8185C112.261 19.4071 74.7145 19.5004 30.2264 25.3213C30.2277 25.3179 30.2277 25.3153 30.229 25.3119Z" fill="#D9CF43" fill-opacity="0.4"/>
<path d="M-16.4306 99.3577V110.087C7.36926 105.054 29.7452 101.848 51.2086 100.525C54.947 100.293 58.7383 100.129 62.4228 100.008C78.1643 99.4945 93.4397 99.9973 108.416 101.53C120.471 102.763 132.335 104.671 144.1 107.228C153.037 109.171 161.919 111.499 170.782 114.205C177.518 116.262 184.246 118.522 190.981 121.019C195.992 122.877 201.011 124.879 206.038 126.981C209.915 128.602 213.796 130.268 217.69 132.033C217.694 132.03 217.698 132.027 217.702 132.024C217.717 132.011 217.732 131.999 217.746 131.986C218.085 131.7 218.426 131.414 218.766 131.128C218.946 130.977 219.124 130.826 219.304 130.675C219.345 130.641 219.385 130.608 219.426 130.574C219.729 130.321 220.033 130.068 220.337 129.815C220.535 129.651 220.732 129.486 220.93 129.322C220.959 129.298 220.987 129.275 221.016 129.251C221.337 128.985 221.661 128.72 221.984 128.454C222.179 128.294 222.373 128.133 222.568 127.972C222.585 127.959 222.602 127.945 222.618 127.932C223.15 127.497 223.683 127.062 224.219 126.628C224.493 126.406 224.7 126.239 224.872 126.1C225.429 125.651 225.527 125.572 225.616 125.5H225.616C225.593 125.489 225.57 125.479 225.548 125.467C225.208 125.3 224.87 125.147 224.53 124.98C221.047 123.276 217.571 121.647 214.101 120.064C210.046 118.216 205.998 116.451 201.953 114.769C196.869 112.653 191.787 110.671 186.705 108.818C179.974 106.363 173.235 104.133 166.475 102.137C157.55 99.5009 148.581 97.2628 139.53 95.4256C127.881 93.0601 116.088 91.3601 104.071 90.3141C90.5891 89.1407 76.7417 88.7671 62.5547 89.2498C37.8089 90.0913 11.1433 93.4951 -16.4306 99.3577Z" fill="#D9CF43" fill-opacity="0.4"/>
<path d="M289.359 179.019C291.57 180.76 293.791 182.538 296.02 184.354C300.567 188.055 305.152 191.911 309.789 195.949C321.975 206.56 334.518 218.403 347.626 231.797C368.659 253.184 388.791 276.119 408.236 299.923C408.922 299.38 409.601 298.84 410.275 298.302C409.865 297.78 409.457 297.255 409.046 296.734C407.214 294.407 405.373 292.093 403.53 289.783C401.516 287.259 399.497 284.743 397.469 282.24C395.559 279.883 393.65 277.524 391.728 275.187C389.864 272.922 387.987 270.678 386.112 268.433C384.013 265.919 381.904 263.422 379.79 260.936C378.841 259.82 377.894 258.699 376.943 257.589C373.931 254.077 370.907 250.588 367.865 247.137C365.876 244.882 363.874 242.654 361.871 240.426C359.986 238.329 358.094 236.248 356.197 234.176C352.652 230.307 349.086 226.484 345.496 222.71C338.112 214.946 330.632 207.395 323.049 200.082C317.46 194.693 311.816 189.435 306.112 184.32C304.203 182.609 302.293 180.901 300.37 179.222C276.555 158.421 251.712 140.158 225.633 125.362C225.164 125.739 224.687 126.1 224.219 126.48C222.01 128.27 219.853 130.081 217.708 131.895C242.812 145.005 266.618 160.955 289.359 179.019Z" fill="#D9CF43" fill-opacity="0.4"/>
<path d="M429.507 46.456C429.607 46.4612 429.705 46.468 429.805 46.4731C429.772 46.4756 429.731 46.4782 429.732 46.4803C430.055 50.0755 430.266 53.6501 430.588 57.2163C430.714 58.6104 430.746 60.0036 430.872 61.3938C432.598 80.3852 433.944 95.4939 435.267 108.406V34.6762C434.385 22.8904 433.087 11.9431 431.857 1.29623C431.614 -0.796593 431.4 -3.31889 431.15 -4.59708H422.367C423.913 5.20239 425.37 14.5762 426.761 25.0105C427.698 32.0402 428.611 38.9897 429.507 46.456Z" fill="#D9CF43" fill-opacity="0.4"/>
<path d="M415.109 45.6784H415.116C424.477 106.179 430.019 141.059 434.718 168.283C434.914 169.41 435.267 170.488 435.267 171.619V143.96C431.739 118.393 428.652 89.626 422.478 46.2616V46.2408C422.478 46.2408 422.43 46.0836 422.243 45.8974C422.245 45.8411 422.388 45.6784 422.39 45.6784H422.331C422.281 45.6784 422.232 45.133 422.184 44.8216C419.802 29.603 417.368 15.6992 414.781 2.31612C414.312 -0.105209 413.837 -3.319 413.358 -4.5972H404.058C406.828 6.90652 409.448 18.0707 411.99 30.5356C413.04 35.6791 414.079 40.9917 415.109 45.6784Z" fill="#D9CF43" fill-opacity="0.4"/>
<path d="M384.631 49.5072C385.284 49.3935 385.937 49.2831 386.588 49.1753C386.874 49.128 387.158 49.0833 387.444 49.0373C387.571 49.0168 387.697 48.9964 387.824 48.9759C387.914 48.9614 388.004 48.947 388.094 48.9325C388.242 48.9086 388.391 48.8835 388.54 48.8605C389.19 48.7582 389.839 48.6589 390.487 48.5631C390.519 48.5584 390.55 48.5567 390.582 48.5524C390.561 48.5554 390.539 48.5588 390.518 48.5618C390.295 48.5946 390.067 48.6393 389.844 48.6734C389.787 48.6819 389.729 48.693 389.673 48.7016C389.569 48.7173 389.463 48.7378 389.359 48.7535C389.231 48.7731 389.102 48.7974 388.974 48.817C387.534 49.0407 386.088 49.2827 384.639 49.5345C386.424 55.3652 388.17 61.2044 389.901 67.0479C392.938 77.155 395.871 86.9191 398.703 96.3428C400.922 103.726 403.079 110.903 405.177 117.882C407.183 124.554 409.133 131.04 411.031 137.354C412.737 143.026 414.401 148.557 416.023 153.95C417.659 159.384 419.252 164.68 420.806 169.838C422.567 175.687 424.237 181.362 425.897 186.869C429.231 197.933 432.621 208.284 435.267 218.047V208.712C424.683 169.497 410.964 117.86 392.397 48.3079C392.39 48.3087 392.403 48.5222 392.396 48.523C386.281 28.7494 380.122 11.5931 373.688 -4.59738H362.821C370.284 11.5931 377.465 29.3531 384.61 49.7309C384.617 49.7505 384.624 49.4876 384.631 49.5072Z" fill="#D9CF43" fill-opacity="0.4"/>
<path d="M290.748 7.10217C294.92 11.4629 299.041 15.9051 303.131 20.7379C306.917 25.2116 310.674 29.8425 314.412 34.7337C318.071 39.5218 321.714 44.4884 325.348 49.6886C328.397 54.0532 331.442 58.5187 334.486 63.1812C334.561 63.1539 334.635 63.1211 334.709 63.0942C334.762 63.0742 334.816 63.0521 334.87 63.0325C335.449 62.8211 336.028 62.6094 336.606 62.4023C337.312 62.1492 338.018 61.8978 338.724 61.6507C339.429 61.4032 340.135 61.1582 340.84 60.9166C341.092 60.8297 341.344 60.7453 341.597 60.6597C341.753 60.6064 341.91 60.5532 342.066 60.4999C342.082 60.4948 342.097 60.4897 342.113 60.4842C342.182 60.4607 342.251 60.4373 342.32 60.4139C342.531 60.3427 342.743 60.2699 342.954 60.1987C342.943 60.1795 342.931 60.1616 342.92 60.1425C339.15 53.8295 335.389 47.8075 331.624 42.019C327.413 35.5424 323.194 29.3972 318.953 23.5521C314.504 17.4214 310.027 11.9035 305.502 6.4375C302.235 2.4913 298.937 -1.61469 295.608 -4.59713H278.501C282.635 -1.61469 286.716 2.88711 290.748 7.10217Z" fill="#D9CF43" fill-opacity="0.4"/>
<path d="M265.083 14.3708C269.252 17.8428 273.382 21.5035 277.483 25.356C281.11 28.7632 284.717 32.3064 288.305 36.0187C291.214 39.028 294.112 42.1553 297.005 45.3687C299.417 48.0482 301.826 50.7882 304.232 53.6121C306.556 56.3398 308.879 59.1173 311.201 61.9822C313.178 64.4205 315.156 66.9109 317.134 69.4498C317.241 69.5861 317.347 69.7144 317.452 69.8507C317.467 69.8686 317.481 69.8857 317.494 69.9036C317.631 69.8452 317.769 69.7881 317.905 69.7302C318.477 69.4864 319.049 69.244 319.621 69.0041C320.329 68.7072 321.038 68.4128 321.746 68.1209C322.455 67.8295 323.163 67.5406 323.872 67.2543C324.085 67.1682 324.298 67.0843 324.511 66.9982C325.007 66.7993 325.502 66.6003 325.996 66.4043C325.983 66.386 325.97 66.3685 325.957 66.3502C322.973 62.176 319.991 58.1663 317.008 54.2457C314.319 50.7115 311.628 47.2442 308.931 43.9119C305.948 40.2269 302.956 36.6983 299.955 33.2552C296.613 29.4194 293.254 25.7245 289.876 22.1823C285.896 18.0098 281.886 14.0402 277.837 10.2644C272.129 4.94029 266.34 0.278297 260.442 -4.28442C260.179 -4.48723 259.913 -4.59715 259.65 -4.59715H238.051C241.671 -3.31896 245.25 -0.299873 248.79 2.17556C254.302 6.02888 259.725 9.90862 265.083 14.3708Z" fill="#D9CF43" fill-opacity="0.4"/>
<path d="M341.515 60.6939C341.432 60.7225 341.349 60.7472 341.266 60.7757C340.658 60.9832 340.048 61.2073 339.44 61.4186C339.067 61.5486 338.692 61.6888 338.318 61.8204C337.968 61.944 337.616 62.0722 337.266 62.1971C336.343 62.5251 335.383 62.8498 334.459 63.1877C373.897 130.549 404.838 201.276 435.267 272.037V265.712C407.043 196.386 378.526 126.963 342.926 60.2193C342.442 60.3816 342 60.529 341.515 60.6939Z" fill="#D9CF43" fill-opacity="0.4"/>
<path d="M-16.4307 182.682V192.76C16.3669 184.559 47.7392 180.34 78.8522 179.839C107.235 179.381 135.469 181.989 164.473 187.494C164.838 187.014 165.218 186.534 165.587 186.054C165.637 185.989 165.692 185.924 165.742 185.859C165.784 185.804 165.828 185.749 165.87 185.695C166.147 185.337 166.428 184.98 166.706 184.623C166.894 184.381 167.081 184.14 167.27 183.899C167.739 183.301 168.212 182.703 168.687 182.107C168.882 181.862 169.079 181.617 169.275 181.373C168.822 181.939 168.399 182.509 167.951 183.076C166.803 184.531 165.663 185.987 164.552 187.446C164.539 187.463 164.525 187.481 164.512 187.498C252.759 208.833 326.668 257.102 390.054 313.194C390.651 312.854 391.243 312.519 391.83 312.196C392.049 312.038 392.268 311.881 392.489 311.727C329.828 254.072 256.901 203.897 170.138 180.321C169.915 180.597 169.677 180.872 169.456 181.149C169.678 180.871 169.899 180.594 170.122 180.317C156.298 177.316 142.653 174.99 129.077 173.352C100.48 169.902 72.186 169.547 43.2026 172.433C23.7673 174.368 3.93729 177.751 -16.4307 182.682Z" fill="#D9CF43" fill-opacity="0.4"/>
<path d="M397.371 37.3232C397.566 38.0228 397.761 38.728 397.956 39.4314C398.18 40.2405 398.404 41.0432 398.628 41.8591C399.123 43.6648 399.618 45.4858 400.112 47.3259C400.113 47.3302 400.114 47.3345 400.115 47.3391C400.75 47.2727 401.383 47.2088 402.016 47.1483C402.649 47.0873 403.28 47.0294 403.91 46.9749C404.054 46.9621 404.196 46.9514 404.339 46.9395C404.365 46.937 404.39 46.9352 404.415 46.9331C404.478 46.9276 404.54 46.9229 404.602 46.9178C404.728 46.9071 404.855 46.9357 404.981 46.9548C404.852 46.9591 404.724 46.9612 404.596 46.9719C403.121 47.0954 401.641 47.2164 400.152 47.3728C400.141 47.3737 400.092 47.3677 400.082 47.369C416.105 117.299 427.329 165.453 435.267 200.381V189.217C429.534 159.107 420.988 115.979 407.684 47.8087H407.66C403.971 31.1922 400.239 16.4597 396.293 2.46907C395.623 0.0946198 394.947 -3.31902 394.264 -4.59721H384.243C388.453 6.90652 392.433 20.1426 396.308 33.8414C396.663 35.0898 397.017 36.0583 397.371 37.3232Z" fill="#D9CF43" fill-opacity="0.4"/>
<path d="M435.038 277.267C402.372 205.473 369.211 133.884 326.008 66.4233C325.836 66.4915 325.665 66.555 325.493 66.6236C325.333 66.687 325.173 66.7454 325.013 66.8098C324.778 66.9035 324.545 66.9883 324.31 67.0829C322.044 67.9946 319.776 68.9537 317.507 69.9221C342.735 106.036 364.968 146.874 373.356 162.758C374.442 164.814 375.511 166.876 376.591 168.935C377.477 170.597 378.377 172.287 379.292 174.012C380.291 175.896 381.302 177.804 382.338 179.767C383.173 181.347 383.992 182.934 384.822 184.516C386.655 188.008 388.485 191.502 390.296 195.003C391.432 197.199 392.556 199.399 393.685 201.598C394.979 204.119 396.277 206.638 397.562 209.164C398.935 211.862 400.297 214.565 401.661 217.267C402.337 218.607 403.02 219.945 403.694 221.286C405.99 225.854 408.273 230.427 410.546 235.004C413.318 240.584 416.075 246.171 418.821 251.761C419.712 253.575 420.598 255.391 421.487 257.205C423.551 261.422 425.612 265.639 427.668 269.859C429.26 273.13 430.854 276.401 432.444 279.674C432.392 279.721 432.343 279.766 432.291 279.814C431.977 280.101 431.665 280.387 431.357 280.668L431.257 280.725C432.616 279.499 433.944 278.274 435.267 277.043V276.982L435.059 277.21C435.039 277.229 435.058 277.248 435.038 277.267Z" fill="#D9CF43" fill-opacity="0.4"/>
<path d="M19.517 135.117C7.71844 136.786 -3.74048 139.01 -16.4307 141.753V152.12C-7.29141 150.091 1.08362 148.338 9.76117 146.886C22.5405 144.742 35.0732 143.244 47.3732 142.321C67.5207 140.809 87.1615 140.925 106.591 142.624C121.744 143.95 136.802 146.231 151.9 149.465C164.101 152.079 176.342 155.287 188.704 159.124C188.73 159.132 188.759 159.139 188.785 159.147C189.164 158.751 189.548 158.356 189.93 157.961C190.107 157.778 190.283 157.595 190.461 157.412C191.021 156.834 191.585 156.258 192.152 155.682C192.652 155.173 193.156 154.665 193.661 154.158C193.701 154.119 193.739 154.08 193.778 154.04C193.806 154.012 193.833 153.984 193.861 153.956C194.041 153.776 194.223 153.596 194.403 153.416C194.347 153.472 194.295 153.528 194.239 153.584C194.042 153.781 193.857 153.981 193.66 154.178C193.506 154.333 193.361 154.489 193.207 154.642C192.287 155.57 191.389 156.503 190.485 157.434C190.077 157.854 189.661 158.272 189.256 158.693C189.108 158.848 188.954 159 188.807 159.154C225.06 172.537 258.701 190.779 290.253 212.44C291.883 213.549 293.517 214.675 295.155 215.817C295.574 216.112 295.997 216.401 296.415 216.697C304.002 222.019 311.685 227.697 319.491 233.788C327.284 239.869 335.201 246.364 343.261 253.301C354.275 262.781 365.564 273.108 377.188 284.386C381.405 288.478 385.662 292.683 389.97 297.033C389.971 297.033 389.972 297.033 389.972 297.034C393.111 300.203 396.278 303.447 399.468 306.757C399.639 306.632 399.814 306.515 399.985 306.389C399.196 306.968 398.406 307.545 397.615 308.117C397.405 308.269 397.195 308.417 396.986 308.568C396.968 308.581 396.952 308.593 396.935 308.605C396.777 308.719 396.618 308.832 396.46 308.945C395.973 309.295 395.486 309.646 394.998 309.993C394.124 310.614 393.249 311.232 392.371 311.845C392.243 311.935 392.115 312.023 391.986 312.112C396.814 309.464 401.475 307.319 408.569 304.603C408.649 304.573 408.729 304.617 408.809 304.586C415.127 302.175 423.382 299.361 435.345 295.391V288.73C416.927 296.336 409.034 300.473 400.235 306.208C400.264 306.187 400.293 306.164 400.322 306.143C400.657 305.896 400.985 305.634 401.32 305.386C401.48 305.267 401.638 305.142 401.798 305.023C343.904 242.282 276.814 185.096 195.608 152.244C195.513 152.338 195.413 152.431 195.318 152.526C195.171 152.672 195.016 152.816 194.869 152.962C194.735 153.096 194.593 153.227 194.459 153.361C194.835 152.986 195.21 152.61 195.588 152.236C188.476 149.8 181.405 147.593 174.357 145.574C161.33 141.845 148.38 138.836 135.403 136.548C120.538 133.928 105.632 132.246 90.5228 131.547C72.2037 130.699 53.5723 131.298 34.3571 133.324C29.4748 133.838 24.4809 134.414 19.517 135.117Z" fill="#D9CF43" fill-opacity="0.4"/>
</g>
</g>
</g>
<defs>
<filter id="filter0_f_313_286" x="-21.0476" y="-7.02273" width="461.045" height="744.354" filterUnits="userSpaceOnUse" color-interpolation-filters="sRGB">
<feFlood flood-opacity="0" result="BackgroundImageFix"/>
<feBlend mode="normal" in="SourceGraphic" in2="BackgroundImageFix" result="shape"/>
<feGaussianBlur stdDeviation="5.01136" result="effect1_foregroundBlur_313_286"/>
</filter>
<linearGradient id="paint0_linear_313_286" x1="388.5" y1="182" x2="77.4938" y2="-0.840006" gradientUnits="userSpaceOnUse">
<stop stop-color="#C9DBBF"/>
<stop offset="0.86312" stop-color="#75A5BA"/>
</linearGradient>
</defs>
</svg>
